<?xml version="1.0" encoding="UTF-8" standalone="no"?>
<!-- Created with Inkscape (http://www.inkscape.org/) -->

<svg
   xmlns:dc="http://purl.org/dc/elements/1.1/"
   xmlns:cc="http://creativecommons.org/ns#"
   xmlns:rdf="http://www.w3.org/1999/02/22-rdf-syntax-ns#"
   xmlns:svg="http://www.w3.org/2000/svg"
   xmlns="http://www.w3.org/2000/svg"
   xmlns:sodipodi="http://sodipodi.sourceforge.net/DTD/sodipodi-0.dtd"
   xmlns:inkscape="http://www.inkscape.org/namespaces/inkscape"
   width="105mm"
   height="148mm"
   viewBox="0 0 105 148"
   version="1.1"
   id="svg8"
   inkscape:version="0.92.2 (5c3e80d, 2017-08-06)"
   sodipodi:docname="suggestions_back_en.svg"
   inkscape:export-filename="C:\Users\ioarvanit\Desktop\New Design Cards\Προτάσεις\Back.png"
   inkscape:export-xdpi="90"
   inkscape:export-ydpi="90">
  <defs
     id="defs2" />
  <sodipodi:namedview
     id="base"
     pagecolor="#ffffff"
     bordercolor="#666666"
     borderopacity="1.0"
     inkscape:pageopacity="0.0"
     inkscape:pageshadow="2"
     inkscape:zoom="0.7"
     inkscape:cx="147.92654"
     inkscape:cy="342.60549"
     inkscape:document-units="mm"
     inkscape:current-layer="layer1"
     showgrid="false"
     inkscape:window-width="1920"
     inkscape:window-height="1017"
     inkscape:window-x="-8"
     inkscape:window-y="-8"
     inkscape:window-maximized="1" />
  <metadata
     id="metadata5">
    <rdf:RDF>
      <cc:Work
         rdf:about="">
        <dc:format>image/svg+xml</dc:format>
        <dc:type
           rdf:resource="http://purl.org/dc/dcmitype/StillImage" />
        <dc:title></dc:title>
      </cc:Work>
    </rdf:RDF>
  </metadata>
  <g
     inkscape:label="Layer 1"
     inkscape:groupmode="layer"
     id="layer1"
     transform="translate(0,-149)">
    <rect
       style="opacity:1;fill:#72147e;fill-opacity:1;stroke:none;stroke-width:0.66500872;stroke-linecap:square;stroke-miterlimit:4;stroke-dasharray:none;stroke-dashoffset:0;stroke-opacity:1"
       id="rect854"
       width="105"
       height="148"
       x="0"
       y="149.00002"
       ry="0" />
    <g
       id="g880"
       transform="matrix(4.0625428,0,0,4.0625428,3.7486517,174.24765)"
       style="fill:#ffffff;fill-opacity:1">
      <path
         id="path867"
         d="M 23.508,0.003 C 18.823,-0.081 13.48,2.368 10.098,6.167 6.866,6.228 3.719,7.553 1.402,9.87 c -0.135,0.133 -0.183,0.332 -0.124,0.512 0.06,0.181 0.216,0.312 0.404,0.339 l 3.854,0.552 -0.476,0.533 c -0.177,0.198 -0.168,0.499 0.02,0.687 l 6.427,6.427 c 0.097,0.097 0.225,0.146 0.354,0.146 0.119,0 0.238,-0.042 0.333,-0.127 l 0.533,-0.476 0.552,3.854 c 0.027,0.188 0.175,0.326 0.354,0.386 0.046,0.015 0.094,0.022 0.143,0.022 0.142,0 0.287,-0.062 0.387,-0.161 2.285,-2.285 3.61,-5.432 3.671,-8.664 C 21.637,10.511 24.106,5.17 23.997,0.491 23.99,0.225 23.775,0.01 23.508,0.003 Z M 18.9,8.635 c -0.487,0.487 -1.127,0.731 -1.768,0.731 -0.641,0 -1.281,-0.244 -1.768,-0.731 -0.974,-0.975 -0.974,-2.561 0,-3.536 0.975,-0.975 2.561,-0.975 3.536,0 0.975,0.975 0.975,2.562 0,3.536 z"
         inkscape:connector-curvature="0"
         style="fill:#ffffff;fill-opacity:1" />
      <path
         id="path869"
         d="m 2.724,16.905 c -1.07,1.07 -2.539,5.904 -2.703,6.451 -0.053,0.176 -0.004,0.367 0.125,0.497 C 0.242,23.949 0.369,24 0.5,24 0.548,24 0.596,23.993 0.644,23.979 1.191,23.815 6.025,22.346 7.095,21.276 8.3,20.071 8.3,18.11 7.095,16.905 5.889,15.7 3.929,15.701 2.724,16.905 Z"
         inkscape:connector-curvature="0"
         style="fill:#ffffff;fill-opacity:1" />
    </g>
  </g>
</svg>
