<?xml version="1.0" encoding="UTF-8" standalone="no"?>
<!-- Created with Inkscape (http://www.inkscape.org/) -->

<svg
   xmlns:dc="http://purl.org/dc/elements/1.1/"
   xmlns:cc="http://creativecommons.org/ns#"
   xmlns:rdf="http://www.w3.org/1999/02/22-rdf-syntax-ns#"
   xmlns:svg="http://www.w3.org/2000/svg"
   xmlns="http://www.w3.org/2000/svg"
   xmlns:sodipodi="http://sodipodi.sourceforge.net/DTD/sodipodi-0.dtd"
   xmlns:inkscape="http://www.inkscape.org/namespaces/inkscape"
   width="59mm"
   height="84.286003mm"
   viewBox="0 0 59 84.286003"
   version="1.1"
   id="svg8"
   inkscape:version="0.92.2 (5c3e80d, 2017-08-06)"
   sodipodi:docname="BackENG.svg"
   inkscape:export-filename="C:\Users\ioarvanit\Desktop\New Design Cards\Προτάσεις\Back.png"
   inkscape:export-xdpi="90"
   inkscape:export-ydpi="90">
  <defs
     id="defs2" />
  <sodipodi:namedview
     id="base"
     pagecolor="#ffffff"
     bordercolor="#666666"
     borderopacity="1.0"
     inkscape:pageopacity="0.0"
     inkscape:pageshadow="2"
     inkscape:zoom="1.4"
     inkscape:cx="-19.864524"
     inkscape:cy="243.41648"
     inkscape:document-units="mm"
     inkscape:current-layer="layer1"
     showgrid="false"
     inkscape:window-width="1920"
     inkscape:window-height="1017"
     inkscape:window-x="-8"
     inkscape:window-y="-8"
     inkscape:window-maximized="1" />
  <metadata
     id="metadata5">
    <rdf:RDF>
      <cc:Work
         rdf:about="">
        <dc:format>image/svg+xml</dc:format>
        <dc:type
           rdf:resource="http://purl.org/dc/dcmitype/StillImage" />
        <dc:title></dc:title>
      </cc:Work>
    </rdf:RDF>
  </metadata>
  <g
     inkscape:label="Layer 1"
     inkscape:groupmode="layer"
     id="layer1"
     transform="translate(0,-212.714)">
    <rect
       y="212.71429"
       x="7.3978532e-007"
       height="84.285713"
       width="59"
       id="rect989"
       style="opacity:1;fill:#b380ff;fill-opacity:1;stroke:none;stroke-width:1.72474813;stroke-linecap:round;stroke-miterlimit:4;stroke-dasharray:none;stroke-dashoffset:0;stroke-opacity:1" />
    <path
       sodipodi:nodetypes="cccc"
       style="fill:#6600ff;fill-opacity:1;stroke:none;stroke-width:0.22300594px;stroke-linecap:butt;stroke-linejoin:miter;stroke-opacity:1"
       d="M 0,212.71429 58.937286,253.35455 0,297 Z"
       id="path1043"
       inkscape:connector-curvature="0" />
    <path
       inkscape:connector-curvature="0"
       id="path1041"
       d="M 0,212.71429 42.371132,253.35455 0,297 Z"
       style="fill:#330080;fill-opacity:1;stroke:none;stroke-width:0.22300594px;stroke-linecap:butt;stroke-linejoin:miter;stroke-opacity:1"
       sodipodi:nodetypes="cccc" />
    <path
       style="fill:#220055;fill-opacity:1;stroke:none;stroke-width:0.22300594px;stroke-linecap:butt;stroke-linejoin:miter;stroke-opacity:1"
       d="M 0,212.71429 29.468641,253.35455 0,297 Z"
       id="path1039"
       inkscape:connector-curvature="0" />
    <text
       id="text1037"
       y="271.02069"
       x="4.6899219"
       style="font-style:normal;font-weight:normal;font-size:8.27120495px;line-height:1.25;font-family:sans-serif;letter-spacing:0px;word-spacing:0px;fill:#ffffff;fill-opacity:1;stroke:none;stroke-width:0.62034041"
       xml:space="preserve"><tspan
         style="fill:#ffffff;fill-opacity:1;stroke-width:0.62034041"
         y="271.02069"
         x="4.6899219"
         sodipodi:role="line"
         id="tspan1035">Suggestions</tspan></text>
    <g
       id="g962"
       transform="matrix(0.06036115,0,0,0.06036115,14.69142,234.00621)"
       style="fill:#ffffff">
      <g
         id="g896"
         style="fill:#ffffff">
        <g
           id="g894"
           style="fill:#ffffff">
          <path
             id="path892"
             d="M 245.333,0 C 110.059,0 0,110.059 0,245.333 0,380.607 110.059,490.666 245.333,490.666 380.607,490.666 490.666,380.607 490.666,245.333 490.666,110.059 380.608,0 245.333,0 Z m 0,448 C 133.589,448 42.666,357.077 42.666,245.333 42.666,133.589 133.589,42.667 245.333,42.667 357.077,42.667 448,133.589 448,245.333 448,357.077 357.077,448 245.333,448 Z"
             inkscape:connector-curvature="0"
             style="fill:#ffffff" />
        </g>
      </g>
      <g
         id="g902"
         style="fill:#ffffff">
        <g
           id="g900"
           style="fill:#ffffff">
          <path
             id="path898"
             d="m 359.552,131.136 c -3.093,-3.115 -7.765,-4.011 -11.755,-2.261 l -149.333,64 c -2.517,1.067 -4.523,3.093 -5.611,5.611 l -64,149.333 c -1.728,4.011 -0.832,8.661 2.261,11.755 2.048,2.005 4.779,3.093 7.552,3.093 1.408,0 2.837,-0.299 4.203,-0.853 l 149.333,-64 c 2.517,-1.088 4.523,-3.093 5.611,-5.611 l 64,-149.333 c 1.707,-4.011 0.811,-8.662 -2.261,-11.734 z M 245.333,266.667 c -11.755,0 -21.333,-9.579 -21.333,-21.333 0,-11.755 9.579,-21.333 21.333,-21.333 11.755,0 21.333,9.579 21.333,21.333 10e-4,11.754 -9.578,21.333 -21.333,21.333 z"
             inkscape:connector-curvature="0"
             style="fill:#ffffff" />
        </g>
      </g>
      <g
         id="g904"
         style="fill:#ffffff" />
      <g
         id="g906"
         style="fill:#ffffff" />
      <g
         id="g908"
         style="fill:#ffffff" />
      <g
         id="g910"
         style="fill:#ffffff" />
      <g
         id="g912"
         style="fill:#ffffff" />
      <g
         id="g914"
         style="fill:#ffffff" />
      <g
         id="g916"
         style="fill:#ffffff" />
      <g
         id="g918"
         style="fill:#ffffff" />
      <g
         id="g920"
         style="fill:#ffffff" />
      <g
         id="g922"
         style="fill:#ffffff" />
      <g
         id="g924"
         style="fill:#ffffff" />
      <g
         id="g926"
         style="fill:#ffffff" />
      <g
         id="g928"
         style="fill:#ffffff" />
      <g
         id="g930"
         style="fill:#ffffff" />
      <g
         id="g932"
         style="fill:#ffffff" />
    </g>
  </g>
</svg>
