<?xml version="1.0" encoding="UTF-8" standalone="no"?>
<!-- Created with Inkscape (http://www.inkscape.org/) -->

<svg
   xmlns:dc="http://purl.org/dc/elements/1.1/"
   xmlns:cc="http://creativecommons.org/ns#"
   xmlns:rdf="http://www.w3.org/1999/02/22-rdf-syntax-ns#"
   xmlns:svg="http://www.w3.org/2000/svg"
   xmlns="http://www.w3.org/2000/svg"
   xmlns:sodipodi="http://sodipodi.sourceforge.net/DTD/sodipodi-0.dtd"
   xmlns:inkscape="http://www.inkscape.org/namespaces/inkscape"
   width="59mm"
   height="84.286003mm"
   viewBox="0 0 59 84.286003"
   version="1.1"
   id="svg8"
   inkscape:version="0.92.2 (5c3e80d, 2017-08-06)"
   sodipodi:docname="Emotions02ENG.svg"
   inkscape:export-filename="C:\Users\ioarvanit\Desktop\New Design Cards\Πλαίσιο\Emotions01.png"
   inkscape:export-xdpi="90"
   inkscape:export-ydpi="90">
  <defs
     id="defs2" />
  <sodipodi:namedview
     id="base"
     pagecolor="#ffffff"
     bordercolor="#666666"
     borderopacity="1.0"
     inkscape:pageopacity="0.0"
     inkscape:pageshadow="2"
     inkscape:zoom="1.979899"
     inkscape:cx="273.51457"
     inkscape:cy="202.37456"
     inkscape:document-units="mm"
     inkscape:current-layer="layer1"
     showgrid="false"
     inkscape:window-width="1920"
     inkscape:window-height="1017"
     inkscape:window-x="-8"
     inkscape:window-y="-8"
     inkscape:window-maximized="1" />
  <metadata
     id="metadata5">
    <rdf:RDF>
      <cc:Work
         rdf:about="">
        <dc:format>image/svg+xml</dc:format>
        <dc:type
           rdf:resource="http://purl.org/dc/dcmitype/StillImage" />
        <dc:title></dc:title>
      </cc:Work>
    </rdf:RDF>
  </metadata>
  <g
     inkscape:label="Layer 1"
     inkscape:groupmode="layer"
     id="layer1"
     transform="translate(0,-212.714)">
    <rect
       style="opacity:1;fill:#ff3da1;fill-opacity:1;stroke:none;stroke-width:1.72474813;stroke-linecap:round;stroke-miterlimit:4;stroke-dasharray:none;stroke-dashoffset:0;stroke-opacity:1"
       id="rect826"
       width="59"
       height="84.285713"
       x="0"
       y="212.71428" />
    <rect
       style="opacity:1;fill:#ffffff;fill-opacity:1;stroke:none;stroke-width:1.7365911;stroke-linecap:round;stroke-miterlimit:4;stroke-dasharray:none;stroke-dashoffset:0;stroke-opacity:1"
       id="rect828"
       width="50.571426"
       height="75.85714"
       x="4.2142859"
       y="216.92857"
       ry="4.2515807" />
    <text
       xml:space="preserve"
       style="font-style:normal;font-weight:normal;font-size:5.18416119px;line-height:1.25;font-family:sans-serif;letter-spacing:0px;word-spacing:0px;fill:#a6266e;fill-opacity:1;stroke:none;stroke-width:0.12960401"
       x="6.9319711"
       y="224.62871"
       id="text832"><tspan
         sodipodi:role="line"
         id="tspan830"
         x="6.9319711"
         y="224.62871"
         style="font-style:normal;font-variant:normal;font-weight:bold;font-stretch:normal;font-family:'DejaVu Serif';-inkscape-font-specification:'DejaVu Serif Bold';fill:#a6266e;fill-opacity:1;stroke-width:0.12960401">Emotions</tspan></text>
    <text
       xml:space="preserve"
       style="font-style:normal;font-weight:normal;font-size:2.97341251px;line-height:1.25;font-family:sans-serif;letter-spacing:0px;word-spacing:0px;fill:#a6266e;fill-opacity:1;stroke:none;stroke-width:0.22300594"
       x="6.9652581"
       y="237.74492"
       id="text890"><tspan
         sodipodi:role="line"
         x="6.9652581"
         y="237.74492"
         style="fill:#a6266e;fill-opacity:1;stroke-width:0.22300594"
         id="tspan981">Happy, dissapointed</tspan><tspan
         sodipodi:role="line"
         x="6.9652581"
         y="241.46169"
         style="fill:#a6266e;fill-opacity:1;stroke-width:0.22300594"
         id="tspan856">shocked, surprised</tspan><tspan
         sodipodi:role="line"
         x="6.9652581"
         y="245.17845"
         style="fill:#a6266e;fill-opacity:1;stroke-width:0.22300594"
         id="tspan858">scared, overwhelmed</tspan><tspan
         sodipodi:role="line"
         x="6.9652581"
         y="248.89522"
         style="fill:#a6266e;fill-opacity:1;stroke-width:0.22300594"
         id="tspan1059">doubt, hesitate</tspan><tspan
         sodipodi:role="line"
         x="6.9652581"
         y="252.61198"
         style="fill:#a6266e;fill-opacity:1;stroke-width:0.22300594"
         id="tspan1053" /><tspan
         sodipodi:role="line"
         x="6.9652581"
         y="256.32874"
         style="fill:#a6266e;fill-opacity:1;stroke-width:0.22300594"
         id="tspan1051">How does your character feel?</tspan><tspan
         sodipodi:role="line"
         x="6.9652581"
         y="260.0455"
         style="fill:#a6266e;fill-opacity:1;stroke-width:0.22300594"
         id="tspan1049">Why does he/she feel like that? </tspan><tspan
         sodipodi:role="line"
         x="6.9652581"
         y="263.76227"
         style="fill:#a6266e;fill-opacity:1;stroke-width:0.22300594"
         id="tspan893">Use all the verbs to describe </tspan><tspan
         sodipodi:role="line"
         x="6.9652581"
         y="267.47903"
         style="fill:#a6266e;fill-opacity:1;stroke-width:0.22300594"
         id="tspan895">the problems, needs and </tspan><tspan
         sodipodi:role="line"
         x="6.9652581"
         y="271.1958"
         style="fill:#a6266e;fill-opacity:1;stroke-width:0.22300594"
         id="tspan897">opportunities of your character.</tspan></text>
    <text
       xml:space="preserve"
       style="font-style:normal;font-weight:normal;font-size:4.00764275px;line-height:1.25;font-family:sans-serif;letter-spacing:0px;word-spacing:0px;fill:#ff3da1;fill-opacity:1;stroke:none;stroke-width:0.3005732"
       x="15.943276"
       y="288.31836"
       id="text844"><tspan
         id="tspan842"
         sodipodi:role="line"
         x="15.943276"
         y="288.31836"
         style="fill:#ff3da1;fill-opacity:1;stroke-width:0.3005732">Context</tspan></text>
    <g
       id="g970"
       transform="matrix(0.01533828,0,0,0.01533828,6.944816,282.71957)"
       style="fill:#ff3da1;fill-opacity:1">
      <g
         id="g910"
         style="fill:#ff3da1;fill-opacity:1">
        <g
           id="g908"
           style="fill:#ff3da1;fill-opacity:1">
          <g
             id="g906"
             style="fill:#ff3da1;fill-opacity:1">
            <path
               id="path900"
               d="M 504.813,254.448 475.271,121.49 C 470.521,100.198 451.979,85.334 430.188,85.334 404.73,85.334 384,106.053 384,131.511 v 7.156 c 0,5.896 4.771,10.667 10.667,10.667 5.896,0 10.667,-4.771 10.667,-10.667 v -7.156 c 0,-13.698 11.146,-24.844 24.854,-24.844 11.729,0 21.708,8.01 24.25,19.458 l 29.542,132.948 c 3.667,16.521 5.833,33.375 6.479,50.26 h -0.87 c -5.441,-53.75 -50.428,-96 -105.589,-96 -48.228,0 -88.613,32.385 -101.758,76.398 -6.527,-6.881 -15.129,-12.398 -26.242,-12.398 -11.113,0 -19.715,5.517 -26.242,12.398 -13.145,-44.013 -53.53,-76.398 -101.758,-76.398 -55.16,0 -100.147,42.25 -105.589,96 h -0.87 c 0.646,-16.885 2.813,-33.74 6.479,-50.26 L 57.562,126.135 c 2.542,-11.458 12.521,-19.469 24.25,-19.469 13.708,0 24.854,11.146 24.854,24.844 v 7.156 c 0,5.896 4.771,10.667 10.667,10.667 5.896,0 10.667,-4.771 10.667,-10.667 V 131.51 C 128,106.052 107.271,85.333 81.812,85.333 60.02,85.333 41.479,100.198 36.729,121.5 L 7.188,254.448 C 2.417,275.969 0,298.021 0,320 c 0,5.896 4.771,10.667 10.667,10.667 h 11.745 c 5.441,53.75 50.428,96 105.589,96 57.904,0 104.951,-46.451 106.398,-104.012 2.143,-5.964 10.667,-23.988 21.602,-23.988 10.654,0 19.07,17.02 21.599,23.956 1.43,57.576 48.487,104.044 106.401,104.044 55.16,0 100.147,-42.25 105.589,-96 h 11.745 c 5.896,0 10.667,-4.771 10.667,-10.667 -0.002,-21.979 -2.419,-44.031 -7.189,-65.552 z M 128,405.333 c -47.063,0 -85.333,-38.281 -85.333,-85.333 0,-47.052 38.271,-85.333 85.333,-85.333 47.062,0 85.333,38.281 85.333,85.333 0,47.052 -38.27,85.333 -85.333,85.333 z m 256,0 c -47.063,0 -85.333,-38.281 -85.333,-85.333 0,-47.052 38.271,-85.333 85.333,-85.333 47.062,0 85.333,38.281 85.333,85.333 0,47.052 -38.27,85.333 -85.333,85.333 z"
               inkscape:connector-curvature="0"
               style="fill:#ff3da1;fill-opacity:1" />
            <path
               id="path902"
               d="m 128,256 c -35.292,0 -64,28.708 -64,64 0,5.896 4.771,10.667 10.667,10.667 5.896,0 10.667,-4.771 10.667,-10.667 0,-23.531 19.146,-42.667 42.667,-42.667 5.896,0 10.667,-4.771 10.667,-10.667 C 138.667,260.771 133.896,256 128,256 Z"
               inkscape:connector-curvature="0"
               style="fill:#ff3da1;fill-opacity:1" />
            <path
               id="path904"
               d="m 384,256 c -35.292,0 -64,28.708 -64,64 0,5.896 4.771,10.667 10.667,10.667 5.896,0 10.667,-4.771 10.667,-10.667 0,-23.531 19.146,-42.667 42.667,-42.667 5.896,0 10.667,-4.771 10.667,-10.667 C 394.667,260.771 389.896,256 384,256 Z"
               inkscape:connector-curvature="0"
               style="fill:#ff3da1;fill-opacity:1" />
          </g>
        </g>
      </g>
      <g
         id="g912"
         style="fill:#ff3da1;fill-opacity:1" />
      <g
         id="g914"
         style="fill:#ff3da1;fill-opacity:1" />
      <g
         id="g916"
         style="fill:#ff3da1;fill-opacity:1" />
      <g
         id="g918"
         style="fill:#ff3da1;fill-opacity:1" />
      <g
         id="g920"
         style="fill:#ff3da1;fill-opacity:1" />
      <g
         id="g922"
         style="fill:#ff3da1;fill-opacity:1" />
      <g
         id="g924"
         style="fill:#ff3da1;fill-opacity:1" />
      <g
         id="g926"
         style="fill:#ff3da1;fill-opacity:1" />
      <g
         id="g928"
         style="fill:#ff3da1;fill-opacity:1" />
      <g
         id="g930"
         style="fill:#ff3da1;fill-opacity:1" />
      <g
         id="g932"
         style="fill:#ff3da1;fill-opacity:1" />
      <g
         id="g934"
         style="fill:#ff3da1;fill-opacity:1" />
      <g
         id="g936"
         style="fill:#ff3da1;fill-opacity:1" />
      <g
         id="g938"
         style="fill:#ff3da1;fill-opacity:1" />
      <g
         id="g940"
         style="fill:#ff3da1;fill-opacity:1" />
    </g>
    <text
       id="text974"
       y="288.31836"
       x="45.380062"
       style="font-style:normal;font-weight:normal;font-size:4.00764275px;line-height:1.25;font-family:sans-serif;letter-spacing:0px;word-spacing:0px;fill:#ff3da1;fill-opacity:1;stroke:none;stroke-width:0.3005732"
       xml:space="preserve"><tspan
         style="fill:#ff3da1;fill-opacity:1;stroke-width:0.3005732"
         y="288.31836"
         x="45.380062"
         sodipodi:role="line"
         id="tspan972">A-8</tspan></text>
    <text
       id="text982"
       y="232.83878"
       x="6.9652581"
       style="font-style:normal;font-weight:normal;font-size:2.97341251px;line-height:1.25;font-family:sans-serif;letter-spacing:0px;word-spacing:0px;fill:#ff3da1;fill-opacity:1;stroke:none;stroke-width:0.22300594"
       xml:space="preserve"><tspan
         id="tspan980"
         style="fill:#ff3da1;fill-opacity:1;stroke-width:0.22300594"
         y="232.83878"
         x="6.9652581"
         sodipodi:role="line">How i feel</tspan></text>
  </g>
</svg>
