<?xml version="1.0" encoding="UTF-8" standalone="no"?>
<!-- Created with Inkscape (http://www.inkscape.org/) -->

<svg
   xmlns:dc="http://purl.org/dc/elements/1.1/"
   xmlns:cc="http://creativecommons.org/ns#"
   xmlns:rdf="http://www.w3.org/1999/02/22-rdf-syntax-ns#"
   xmlns:svg="http://www.w3.org/2000/svg"
   xmlns="http://www.w3.org/2000/svg"
   xmlns:sodipodi="http://sodipodi.sourceforge.net/DTD/sodipodi-0.dtd"
   xmlns:inkscape="http://www.inkscape.org/namespaces/inkscape"
   width="105mm"
   height="148mm"
   viewBox="0 0 105 148"
   version="1.1"
   id="svg8"
   inkscape:version="0.92.2 (5c3e80d, 2017-08-06)"
   sodipodi:docname="context_back_en.svg"
   inkscape:export-filename="C:\Users\ioarvanit\Desktop\New Design Cards\Πλαίσιο\Back.png"
   inkscape:export-xdpi="90"
   inkscape:export-ydpi="90">
  <defs
     id="defs2" />
  <sodipodi:namedview
     id="base"
     pagecolor="#ffffff"
     bordercolor="#666666"
     borderopacity="1.0"
     inkscape:pageopacity="0.0"
     inkscape:pageshadow="2"
     inkscape:zoom="0.49497475"
     inkscape:cx="398.31326"
     inkscape:cy="-35.366715"
     inkscape:document-units="mm"
     inkscape:current-layer="layer1"
     showgrid="false"
     inkscape:window-width="1920"
     inkscape:window-height="1017"
     inkscape:window-x="-8"
     inkscape:window-y="-8"
     inkscape:window-maximized="1" />
  <metadata
     id="metadata5">
    <rdf:RDF>
      <cc:Work
         rdf:about="">
        <dc:format>image/svg+xml</dc:format>
        <dc:type
           rdf:resource="http://purl.org/dc/dcmitype/StillImage" />
        <dc:title></dc:title>
      </cc:Work>
    </rdf:RDF>
  </metadata>
  <g
     inkscape:label="Layer 1"
     inkscape:groupmode="layer"
     id="layer1"
     transform="translate(0,-149)">
    <g
       id="g893"
       transform="matrix(0.99966463,0,0,0.99966463,-0.18892448,-1.2228723)">
      <rect
         style="opacity:1;fill:#f21170;fill-opacity:1;stroke:none;stroke-width:3.04995847;stroke-linecap:round;stroke-miterlimit:4;stroke-dasharray:none;stroke-dashoffset:0;stroke-opacity:1"
         id="rect989"
         width="105.03522"
         height="148.04965"
         x="0.1889905"
         y="150.27327" />
      <g
         id="g958"
         transform="matrix(0.20473723,0,0,0.20473723,2.791604,174.38316)"
         style="fill:#ffffff">
        <g
           id="g899"
           style="fill:#ffffff">
          <g
             id="XMLID_1736_"
             style="fill:#ffffff">
            <path
               d="m 379,229.65 c -25.6,0 -46.3,20.8 -46.3,46.3 0,6.1 5,11.1 11.1,11.1 6.1,0 11.1,-5 11.1,-11.1 0,-13.3 10.9,-24.2 24.2,-24.2 6.1,0 11.1,-5 11.1,-11.1 -0.1,-6.1 -5.1,-11 -11.2,-11 z"
               id="XMLID_1737_"
               inkscape:connector-curvature="0"
               style="fill:#ffffff" />
            <path
               d="m 454.5,197.75 c -2.7,-2.6 -5.6,-5.1 -8.6,-7.5 v 0 l -41,-34.8 c -15.8,-11.2 -34.6,-18.3 -55,-19.7 l 2.2,2.2 -24.9,-25 H 327 c -6.9,-6.3 -16.2,-10.2 -26.3,-10.2 -17.4,0 -32.1,11.3 -37.1,27 -5,-3.2 -10.8,-5.1 -17.1,-5.5 -1,-0.1 -2.1,-0.1 -3.1,-0.1 -7.1,0 -13.7,2.1 -19.3,5.6 -5.1,-15.6 -19.8,-26.9 -37.1,-26.9 -10.1,0 -19.3,3.8 -26.3,10.2 h -0.2 l -24.9,25 2.2,-2.2 c -20.4,1.4 -39.3,8.6 -55,19.7 l -41,34.8 v 0 c -3,2.3 -5.9,4.8 -8.6,7.5 -20.5,19.8 -33.2,47.5 -33.2,78.2 0,60 48.8,108.8 108.8,108.8 55.4,0 101.3,-41.7 107.9,-95.4 8,4.6 17.3,7.2 27.1,7.2 9.9,0 19.1,-2.6 27.1,-7.2 6.7,53.6 52.5,95.3 107.9,95.3 60,0 108.8,-48.8 108.8,-108.8 0.1,-30.7 -12.6,-58.4 -33.1,-78.2 z m -345.7,152.5 c -41,0 -74.2,-33.2 -74.2,-74.2 0,-41 33.2,-74.2 74.2,-74.2 41,0 74.2,33.2 74.2,74.2 0.1,40.9 -33.2,74.2 -74.2,74.2 z m 135.1,-84.4 c -13.3,0 -24.1,-10.8 -24.1,-24.1 0,-13.3 10.8,-24.1 24.1,-24.1 13.3,0 24.1,10.8 24.1,24.1 0,13.3 -10.8,24.1 -24.1,24.1 z m 135.1,84.4 c -41,0 -74.2,-33.2 -74.2,-74.2 0,-41 33.2,-74.2 74.2,-74.2 41,0 74.2,33.2 74.2,74.2 0,40.9 -33.2,74.2 -74.2,74.2 z"
               id="XMLID_1738_"
               inkscape:connector-curvature="0"
               style="fill:#ffffff" />
            <path
               d="m 108.8,229.65 c -25.6,0 -46.3,20.8 -46.3,46.3 0,6.1 5,11.1 11.1,11.1 6.1,0 11.1,-5 11.1,-11.1 0,-13.3 10.9,-24.2 24.2,-24.2 6.1,0 11.1,-5 11.1,-11.1 -0.1,-6.1 -5.1,-11 -11.2,-11 z"
               id="XMLID_1745_"
               inkscape:connector-curvature="0"
               style="fill:#ffffff" />
          </g>
        </g>
        <g
           id="g901"
           style="fill:#ffffff" />
        <g
           id="g903"
           style="fill:#ffffff" />
        <g
           id="g905"
           style="fill:#ffffff" />
        <g
           id="g907"
           style="fill:#ffffff" />
        <g
           id="g909"
           style="fill:#ffffff" />
        <g
           id="g911"
           style="fill:#ffffff" />
        <g
           id="g913"
           style="fill:#ffffff" />
        <g
           id="g915"
           style="fill:#ffffff" />
        <g
           id="g917"
           style="fill:#ffffff" />
        <g
           id="g919"
           style="fill:#ffffff" />
        <g
           id="g921"
           style="fill:#ffffff" />
        <g
           id="g923"
           style="fill:#ffffff" />
        <g
           id="g925"
           style="fill:#ffffff" />
        <g
           id="g927"
           style="fill:#ffffff" />
        <g
           id="g929"
           style="fill:#ffffff" />
      </g>
    </g>
  </g>
</svg>
