<?xml version="1.0" encoding="UTF-8" standalone="no"?>
<!-- Created with Inkscape (http://www.inkscape.org/) -->

<svg
   xmlns:dc="http://purl.org/dc/elements/1.1/"
   xmlns:cc="http://creativecommons.org/ns#"
   xmlns:rdf="http://www.w3.org/1999/02/22-rdf-syntax-ns#"
   xmlns:svg="http://www.w3.org/2000/svg"
   xmlns="http://www.w3.org/2000/svg"
   xmlns:sodipodi="http://sodipodi.sourceforge.net/DTD/sodipodi-0.dtd"
   xmlns:inkscape="http://www.inkscape.org/namespaces/inkscape"
   width="59mm"
   height="84.286003mm"
   viewBox="0 0 59 84.286003"
   version="1.1"
   id="svg8"
   inkscape:version="0.92.2 (5c3e80d, 2017-08-06)"
   sodipodi:docname="c01_aesthetics_en.svg"
   inkscape:export-filename="C:\Users\ioarvanit\Desktop\New Design Cards\Προτάσεις\Transfer.png"
   inkscape:export-xdpi="90"
   inkscape:export-ydpi="90">
  <defs
     id="defs2" />
  <sodipodi:namedview
     id="base"
     pagecolor="#ffffff"
     bordercolor="#666666"
     borderopacity="1.0"
     inkscape:pageopacity="0.0"
     inkscape:pageshadow="2"
     inkscape:zoom="1.4"
     inkscape:cx="-98.619294"
     inkscape:cy="203.6879"
     inkscape:document-units="mm"
     inkscape:current-layer="layer1"
     showgrid="false"
     inkscape:window-width="1920"
     inkscape:window-height="1017"
     inkscape:window-x="-8"
     inkscape:window-y="-8"
     inkscape:window-maximized="1" />
  <metadata
     id="metadata5">
    <rdf:RDF>
      <cc:Work
         rdf:about="">
        <dc:format>image/svg+xml</dc:format>
        <dc:type
           rdf:resource="http://purl.org/dc/dcmitype/StillImage" />
        <dc:title></dc:title>
      </cc:Work>
    </rdf:RDF>
  </metadata>
  <g
     inkscape:label="Layer 1"
     inkscape:groupmode="layer"
     id="layer1"
     transform="translate(0,-212.714)">
    <rect
       style="opacity:1;fill:#ff4f4f;fill-opacity:1;stroke:none;stroke-width:1.72474813;stroke-linecap:round;stroke-miterlimit:4;stroke-dasharray:none;stroke-dashoffset:0;stroke-opacity:1"
       id="rect826"
       width="59"
       height="84.285713"
       x="0"
       y="212.71428" />
    <rect
       style="opacity:1;fill:#ffffff;fill-opacity:1;stroke:none;stroke-width:1.7365911;stroke-linecap:round;stroke-miterlimit:4;stroke-dasharray:none;stroke-dashoffset:0;stroke-opacity:1"
       id="rect828"
       width="50.57143"
       height="75.85714"
       x="4.2142859"
       y="216.92857"
       ry="4.2515807" />
    <text
       xml:space="preserve"
       style="font-style:normal;font-weight:normal;font-size:6.84645987px;line-height:1.25;font-family:sans-serif;letter-spacing:0px;word-spacing:0px;fill:#ff4f4f;fill-opacity:1;stroke:none;stroke-width:0.17116149"
       x="9.7545834"
       y="266.63541"
       id="text832"><tspan
         sodipodi:role="line"
         id="tspan830"
         x="9.7545834"
         y="266.63541"
         style="font-style:normal;font-variant:normal;font-weight:bold;font-stretch:normal;font-family:'DejaVu Serif';-inkscape-font-specification:'DejaVu Serif Bold';fill:#ff4f4f;fill-opacity:1;stroke-width:0.17116149">Aesthetics</tspan></text>
    <text
       xml:space="preserve"
       style="font-style:normal;font-weight:normal;font-size:2.97341251px;line-height:1.25;font-family:sans-serif;letter-spacing:0px;word-spacing:0px;fill:#ff7a69;fill-opacity:1;stroke:none;stroke-width:0.22300594"
       x="29.634298"
       y="271.06711"
       id="text890"><tspan
         sodipodi:role="line"
         x="29.634298"
         y="271.06711"
         style="text-align:center;text-anchor:middle;fill:#ff7a69;fill-opacity:1;stroke-width:0.22300594"
         id="tspan964">Timeless form, beautiful,</tspan><tspan
         sodipodi:role="line"
         x="29.634298"
         y="274.78387"
         style="text-align:center;text-anchor:middle;fill:#ff7a69;fill-opacity:1;stroke-width:0.22300594"
         id="tspan1214">respect to the environment</tspan></text>
    <text
       xml:space="preserve"
       style="font-style:normal;font-weight:normal;font-size:4.00764322px;line-height:1.25;font-family:sans-serif;letter-spacing:0px;word-spacing:0px;fill:#ff4f4f;fill-opacity:1;stroke:none;stroke-width:0.30057323"
       x="15.943277"
       y="288.31839"
       id="text844"><tspan
         id="tspan842"
         sodipodi:role="line"
         x="15.943277"
         y="288.31839"
         style="fill:#ff4f4f;fill-opacity:1;stroke-width:0.30057323">Sustainability</tspan></text>
    <text
       id="text974"
       y="288.31839"
       x="45.380066"
       style="font-style:normal;font-weight:normal;font-size:4.00764322px;line-height:1.25;font-family:sans-serif;letter-spacing:0px;word-spacing:0px;fill:#ff4f4f;fill-opacity:1;stroke:none;stroke-width:0.30057323"
       xml:space="preserve"><tspan
         style="fill:#ff4f4f;fill-opacity:1;stroke-width:0.30057323"
         y="288.31839"
         x="45.380066"
         sodipodi:role="line"
         id="tspan972">C-1</tspan></text>
    <g
       data-name="35-bulb"
       id="_35-bulb"
       transform="matrix(0.01077781,0,0,0.01077781,7.413814,284.11211)"
       style="fill:#ff4f4f;fill-opacity:1">
      <g
         data-name="linear color"
         id="linear_color"
         style="fill:#ff4f4f;fill-opacity:1">
        <path
           id="path903"
           d="m 356.757,392.438 c -3.906,-1.23 -38.856,-11.7 -62.392,-0.552 -26.913,12.742 -25.573,45.451 -25.5,46.838 a 12,12 0 0 0 3.916,8.276 c 0.8,0.724 15.649,13.95 34.816,13.95 a 40.658,40.658 0 0 0 17.577,-3.99 c 23.539,-11.144 37.592,-44.808 39.117,-48.61 a 12,12 0 0 0 -7.534,-15.913 z M 314.9,435.27 c -8.088,3.827 -16.712,0.068 -21.713,-2.994 0.8,-5.831 3.364,-14.873 11.444,-18.7 8.028,-3.8 20.761,-3.055 30.982,-1.391 -5.188,8.963 -12.68,19.284 -20.713,23.085 z"
           inkscape:connector-curvature="0"
           style="fill:#ff4f4f;fill-opacity:1" />
        <path
           id="path905"
           d="m 217.635,391.886 c -23.539,-11.145 -58.485,-0.679 -62.392,0.552 a 12,12 0 0 0 -7.534,15.913 c 1.525,3.8 15.578,37.466 39.117,48.61 a 40.661,40.661 0 0 0 17.577,3.99 c 19.165,0 34.02,-13.227 34.816,-13.95 a 12,12 0 0 0 3.919,-8.277 c 0.07,-1.387 1.41,-34.096 -25.503,-46.838 z M 197.1,435.27 c -8.035,-3.805 -15.535,-14.141 -20.726,-23.1 10.2,-1.67 22.914,-2.413 31,1.412 8.086,3.825 10.646,12.884 11.447,18.693 -5.029,3.07 -13.643,6.825 -21.721,2.995 z"
           inkscape:connector-curvature="0"
           style="fill:#ff4f4f;fill-opacity:1" />
        <path
           id="path907"
           d="m 288,364 a 76.087,76.087 0 0 0 76,-76 V 232 A 12,12 0 0 0 352,220 H 340 V 88 a 36,36 0 0 0 -72,0 V 220 H 244 V 88 a 36,36 0 0 0 -72,0 v 132 h -12 a 12,12 0 0 0 -12,12 v 56 a 76.087,76.087 0 0 0 76,76 h 20 v 132 a 12,12 0 0 0 24,0 V 364 Z m 4,-276 a 12,12 0 0 1 24,0 v 132 h -24 z m -96,0 a 12,12 0 0 1 24,0 v 132 h -24 z m -24,200 v -44 h 168 v 44 a 52.059,52.059 0 0 1 -52,52 h -64 a 52.059,52.059 0 0 1 -52,-52 z"
           inkscape:connector-curvature="0"
           style="fill:#ff4f4f;fill-opacity:1" />
        <path
           id="path909"
           d="m 480,196 h -16 a 12,12 0 0 0 0,24 h 16 a 12,12 0 0 0 0,-24 z"
           inkscape:connector-curvature="0"
           style="fill:#ff4f4f;fill-opacity:1" />
        <path
           id="path911"
           d="m 436.144,116 a 11.956,11.956 0 0 0 5.989,-1.609 l 13.856,-8 a 12.000602,12.000602 0 1 0 -12,-20.786 l -13.856,8 A 12,12 0 0 0 436.144,116 Z"
           inkscape:connector-curvature="0"
           style="fill:#ff4f4f;fill-opacity:1" />
        <path
           id="path913"
           d="m 374,3.618 a 12,12 0 0 0 -16.393,4.393 l -8,13.856 a 12.000602,12.000602 0 1 0 20.786,12 l 8,-13.856 A 12,12 0 0 0 374,3.618 Z"
           inkscape:connector-curvature="0"
           style="fill:#ff4f4f;fill-opacity:1" />
        <path
           id="path915"
           d="m 455.989,309.607 -13.856,-8 a 12.000602,12.000602 0 1 0 -12,20.786 l 13.856,8 a 12.000602,12.000602 0 0 0 12,-20.786 z"
           inkscape:connector-curvature="0"
           style="fill:#ff4f4f;fill-opacity:1" />
        <path
           id="path917"
           d="M 60,208 A 12,12 0 0 0 48,196 H 32 a 12,12 0 0 0 0,24 h 16 a 12,12 0 0 0 12,-12 z"
           inkscape:connector-curvature="0"
           style="fill:#ff4f4f;fill-opacity:1" />
        <path
           id="path919"
           d="m 81.867,93.607 -13.856,-8 a 12.000602,12.000602 0 0 0 -12,20.786 l 13.856,8 a 12.000602,12.000602 0 1 0 12,-20.786 z"
           inkscape:connector-curvature="0"
           style="fill:#ff4f4f;fill-opacity:1" />
        <path
           id="path921"
           d="m 158,38.26 a 12,12 0 0 0 4.393,-16.393 l -8,-13.856 a 12.000602,12.000602 0 0 0 -20.786,12 l 8,13.856 A 12,12 0 0 0 158,38.26 Z"
           inkscape:connector-curvature="0"
           style="fill:#ff4f4f;fill-opacity:1" />
        <path
           id="path923"
           d="m 69.867,301.607 -13.856,8 a 12.000602,12.000602 0 1 0 12,20.786 l 13.856,-8 a 12.000602,12.000602 0 0 0 -12,-20.786 z"
           inkscape:connector-curvature="0"
           style="fill:#ff4f4f;fill-opacity:1" />
      </g>
    </g>
    <g
       id="g1205"
       transform="matrix(0.05935407,0,0,0.05935407,13.698141,223.40805)"
       style="fill:#ff4f4f;fill-opacity:1">
      <g
         id="g1067"
         style="fill:#ff4f4f;fill-opacity:1">
        <g
           id="g1065"
           style="fill:#ff4f4f;fill-opacity:1">
          <path
             id="path1063"
             d="m 501.942,380.374 c -17.175,-17.175 -40.011,-26.635 -64.301,-26.635 -21.678,0 -42.197,7.534 -58.568,21.364 -35.69,-30.086 -89.263,-28.329 -122.863,5.271 -1.415,1.414 -2.209,3.332 -2.209,5.332 0,68.966 56.109,125.075 125.075,125.075 68.966,0 125.075,-56.109 125.075,-125.075 -0.001,-2 -0.795,-3.919 -2.209,-5.332 z m -130.156,8.401 c 1.21,2.714 3.905,4.471 6.888,4.471 h 0.805 c 2.984,0 5.68,-1.758 6.889,-4.473 14.025,-12.891 32.107,-19.952 51.274,-19.952 17.259,0 33.628,5.742 46.958,16.293 -59.729,54.786 -151.859,55.005 -211.839,0.641 28.928,-23.48 71.249,-22.484 99.025,3.02 z m 7.289,106.923 c -54.53,0 -99.911,-39.886 -108.517,-92.016 31.373,25.17 69.571,37.765 107.774,37.765 38.9,0 77.794,-13.056 109.484,-39.151 -8.021,52.807 -53.728,93.402 -108.741,93.402 z"
             inkscape:connector-curvature="0"
             style="fill:#ff4f4f;fill-opacity:1" />
        </g>
      </g>
      <g
         id="g1073"
         style="fill:#ff4f4f;fill-opacity:1">
        <g
           id="g1071"
           style="fill:#ff4f4f;fill-opacity:1">
          <path
             id="path1069"
             d="m 198.119,223.893 c -2.285,-1.359 -5.119,-1.414 -7.455,-0.145 -1.34,0.728 -33.218,18.251 -68.596,54.858 -32.658,33.792 -74.418,90.881 -87.905,170.963 -2.617,15.54 1.726,31.363 11.918,43.415 C 56.301,505.069 71.236,512 87.057,512 h 68.208 c 25.662,0 46.54,-20.877 46.54,-46.54 V 230.374 c 0.001,-2.659 -1.4,-5.121 -3.686,-6.481 z M 186.724,465.46 c 0,17.346 -14.112,31.458 -31.458,31.458 H 87.058 c -11.375,0 -22.113,-4.984 -29.461,-13.673 -7.32,-8.655 -10.44,-20.016 -8.56,-31.17 12.807,-76.046 52.477,-130.396 83.501,-162.598 21.567,-22.386 42.08,-37.499 54.186,-45.551 V 465.46 Z"
             inkscape:connector-curvature="0"
             style="fill:#ff4f4f;fill-opacity:1" />
        </g>
      </g>
      <g
         id="g1079"
         style="fill:#ff4f4f;fill-opacity:1">
        <g
           id="g1077"
           style="fill:#ff4f4f;fill-opacity:1">
          <path
             id="path1075"
             d="m 120.662,447.551 c -19.278,0 -38.73,5.732 -38.73,18.539 0,4.165 3.376,7.541 7.541,7.541 3.695,0 6.77,-2.658 7.415,-6.167 2.233,-1.818 10.823,-4.831 23.774,-4.831 12.951,0 21.54,3.013 23.774,4.831 0.646,3.508 3.72,6.167 7.415,6.167 4.165,0 7.541,-3.376 7.541,-7.541 0,-12.807 -19.453,-18.539 -38.73,-18.539 z"
             inkscape:connector-curvature="0"
             style="fill:#ff4f4f;fill-opacity:1" />
        </g>
      </g>
      <g
         id="g1085"
         style="fill:#ff4f4f;fill-opacity:1">
        <g
           id="g1083"
           style="fill:#ff4f4f;fill-opacity:1">
          <path
             id="path1081"
             d="M 273.69,117.838 C 271.837,115.19 237.246,66.492 188.034,44.547 L 201.101,16.48 c 1.758,-3.775 0.122,-8.261 -3.654,-10.018 -3.774,-1.758 -8.26,-0.122 -10.018,3.654 l -13.522,29.048 c -6.904,-2.176 -14.039,-3.749 -21.361,-4.56 V 7.541 C 152.546,3.376 149.17,0 145.005,0 c -4.165,0 -7.541,3.376 -7.541,7.541 v 26.522 c -7.594,0.306 -15.008,1.466 -22.196,3.307 L 102.58,10.115 C 100.822,6.339 96.337,4.704 92.562,6.461 88.786,8.219 87.151,12.704 88.908,16.479 l 11.908,25.579 c -52.353,20.482 -89.677,73.026 -91.604,75.78 -1.817,2.596 -1.817,6.052 0,8.648 2.396,3.425 59.527,83.863 132.24,83.863 72.712,0 129.843,-80.44 132.239,-83.864 1.816,-2.596 1.816,-6.051 -10e-4,-8.647 z M 100.862,58.44 c 12.726,-5.724 26.405,-9.384 40.589,-9.384 14.19,0 27.884,3.678 40.63,9.426 10.356,10.641 16.061,24.637 16.061,39.516 0,15.143 -5.897,29.379 -16.604,40.087 -10.707,10.707 -24.944,16.605 -40.088,16.605 -15.143,0 -29.38,-5.897 -40.087,-16.605 C 79.433,116.154 79.274,80.584 100.862,58.44 Z m 40.591,136.829 c -55.8,0 -103.968,-56.807 -116.639,-73.11 6.995,-9.021 24.829,-30.414 48.822,-47.741 -2.595,7.484 -3.958,15.427 -3.958,23.581 0,19.171 7.466,37.195 21.022,50.751 13.556,13.557 31.58,21.022 50.751,21.022 19.171,0 37.196,-7.466 50.751,-21.022 13.557,-13.556 21.022,-31.579 21.022,-50.751 0,-8.136 -1.358,-16.06 -3.941,-23.529 23.964,17.319 41.8,38.681 48.805,47.693 -12.68,16.314 -60.844,73.106 -116.635,73.106 z"
             inkscape:connector-curvature="0"
             style="fill:#ff4f4f;fill-opacity:1" />
        </g>
      </g>
      <g
         id="g1091"
         style="fill:#ff4f4f;fill-opacity:1">
        <g
           id="g1089"
           style="fill:#ff4f4f;fill-opacity:1">
          <path
             id="path1087"
             d="m 141.45,60.384 c -19.091,0 -34.622,15.531 -34.622,34.622 0,19.091 15.531,34.622 34.622,34.622 19.091,0 34.622,-15.531 34.622,-34.622 0,-19.091 -15.531,-34.622 -34.622,-34.622 z m 0,54.162 c -10.774,0 -19.54,-8.766 -19.54,-19.54 0,-10.774 8.766,-19.54 19.54,-19.54 10.774,0 19.54,8.766 19.54,19.54 0,10.774 -8.765,19.54 -19.54,19.54 z"
             inkscape:connector-curvature="0"
             style="fill:#ff4f4f;fill-opacity:1" />
        </g>
      </g>
      <g
         id="g1097"
         style="fill:#ff4f4f;fill-opacity:1">
        <g
           id="g1095"
           style="fill:#ff4f4f;fill-opacity:1">
          <path
             id="path1093"
             d="m 405.801,169.901 c -19.091,0 -34.622,15.531 -34.622,34.622 0,19.091 15.531,34.622 34.622,34.622 19.091,0 34.622,-15.531 34.622,-34.622 0,-19.091 -15.531,-34.622 -34.622,-34.622 z m 0,54.162 c -10.774,0 -19.54,-8.766 -19.54,-19.54 0,-10.775 8.766,-19.54 19.54,-19.54 10.774,0 19.54,8.766 19.54,19.54 0,10.775 -8.765,19.54 -19.54,19.54 z"
             inkscape:connector-curvature="0"
             style="fill:#ff4f4f;fill-opacity:1" />
        </g>
      </g>
      <g
         id="g1103"
         style="fill:#ff4f4f;fill-opacity:1">
        <g
           id="g1101"
           style="fill:#ff4f4f;fill-opacity:1">
          <path
             id="path1099"
             d="m 493.266,215.618 c 4.165,0 7.541,-3.376 7.541,-7.541 0,-4.165 -3.376,-7.541 -7.541,-7.541 h -26.522 c -0.306,-7.594 -1.466,-15.008 -3.307,-22.195 l 27.255,-12.688 c 3.776,-1.758 5.411,-6.243 3.654,-10.018 -1.758,-3.775 -6.243,-5.41 -10.018,-3.654 l -25.579,11.907 C 438.267,111.535 385.723,74.211 382.97,72.284 c -2.596,-1.818 -6.052,-1.818 -8.648,0 -3.425,2.396 -83.864,59.527 -83.864,132.24 0,72.713 80.44,129.844 83.864,132.24 1.298,0.909 2.811,1.362 4.323,1.362 1.512,0 3.025,-0.454 4.323,-1.362 2.648,-1.853 51.346,-36.444 73.29,-85.656 l 28.07,13.067 c 1.03,0.48 2.112,0.707 3.177,0.707 2.841,0 5.563,-1.614 6.841,-4.361 1.758,-3.776 0.122,-8.261 -3.654,-10.018 l -29.049,-13.522 c 2.176,-6.904 3.749,-14.04 4.56,-21.361 h 27.063 z M 378.641,321.162 c -16.314,-12.656 -73.102,-60.741 -73.102,-116.639 0,-55.8 56.808,-103.968 73.111,-116.639 9.02,6.998 30.413,24.832 47.74,48.826 -7.484,-2.596 -15.427,-3.959 -23.582,-3.959 -19.171,0 -37.195,7.466 -50.751,21.022 -13.557,13.556 -21.022,31.579 -21.022,50.751 0,19.172 7.465,37.195 21.022,50.751 13.556,13.557 31.58,21.022 50.751,21.022 8.136,0 16.06,-1.357 23.529,-3.941 -17.321,23.966 -38.686,41.803 -47.696,48.806 z m 63.683,-76.009 c -10.641,10.357 -24.638,16.062 -39.518,16.062 -15.143,0 -29.379,-5.897 -40.087,-16.604 -10.707,-10.707 -16.605,-24.944 -16.605,-40.087 0,-15.142 5.897,-29.379 16.605,-40.087 10.708,-10.707 24.944,-16.604 40.087,-16.604 14.899,0 28.912,5.719 39.559,16.101 5.724,12.725 9.385,26.404 9.385,40.588 10e-4,14.191 -3.678,27.885 -9.426,40.631 z"
             inkscape:connector-curvature="0"
             style="fill:#ff4f4f;fill-opacity:1" />
        </g>
      </g>
      <g
         id="g1109"
         style="fill:#ff4f4f;fill-opacity:1">
        <g
           id="g1107"
           style="fill:#ff4f4f;fill-opacity:1">
          <path
             id="path1105"
             d="m 175.046,291.533 c -2.267,-3.494 -6.938,-4.487 -10.431,-2.221 -53.064,34.432 -79.207,106.788 -80.294,109.852 -1.393,3.924 0.66,8.236 4.585,9.628 0.834,0.296 1.684,0.436 2.522,0.436 3.103,0 6.011,-1.929 7.107,-5.021 0.249,-0.702 25.472,-70.566 74.29,-102.243 3.494,-2.266 4.488,-6.937 2.221,-10.431 z"
             inkscape:connector-curvature="0"
             style="fill:#ff4f4f;fill-opacity:1" />
        </g>
      </g>
      <g
         id="g1115"
         style="fill:#ff4f4f;fill-opacity:1">
        <g
           id="g1113"
           style="fill:#ff4f4f;fill-opacity:1">
          <path
             id="path1111"
             d="M 478.042,42.119 C 451.03,15.106 415.061,0.23 376.761,0.23 c -38.301,0 -74.268,14.876 -101.281,41.888 -4.429,4.429 -6.868,10.317 -6.868,16.581 0,6.264 2.439,12.152 6.868,16.581 9.145,9.143 24.02,9.141 33.161,-0.001 37.561,-37.56 98.679,-37.56 136.239,0 4.429,4.429 10.318,6.868 16.581,6.868 6.263,0 12.152,-2.439 16.581,-6.868 9.143,-9.142 9.143,-24.018 0,-33.16 z m -10.664,22.497 c -1.581,1.58 -3.682,2.451 -5.916,2.451 -2.234,0 -4.337,-0.871 -5.916,-2.451 -21.721,-21.721 -50.252,-32.58 -78.784,-32.58 -28.532,0 -57.064,10.86 -78.785,32.58 -3.262,3.262 -8.569,3.262 -11.832,0 -1.581,-1.581 -2.451,-3.682 -2.451,-5.916 0,-2.234 0.87,-4.337 2.45,-5.916 24.163,-24.164 56.345,-37.471 90.617,-37.471 34.272,0 66.453,13.307 90.617,37.471 1.581,1.581 2.451,3.682 2.451,5.916 10e-4,2.235 -0.87,4.336 -2.451,5.916 z"
             inkscape:connector-curvature="0"
             style="fill:#ff4f4f;fill-opacity:1" />
        </g>
      </g>
      <g
         id="g1121"
         style="fill:#ff4f4f;fill-opacity:1">
        <g
           id="g1119"
           style="fill:#ff4f4f;fill-opacity:1">
          <path
             id="path1117"
             d="m 261.235,247.73 c -1.418,-1.959 -3.69,-3.119 -6.108,-3.119 -2.418,0 -4.69,1.16 -6.108,3.119 -5.269,7.279 -22.46,32.041 -22.46,45.083 0,15.752 12.816,28.568 28.568,28.568 15.752,0 28.568,-12.816 28.568,-28.568 -10e-4,-13.042 -17.192,-37.805 -22.46,-45.083 z m -6.109,58.568 c -7.436,0 -13.486,-6.05 -13.486,-13.486 0,-4.429 6.245,-16.17 13.482,-27.311 7.255,11.201 13.49,23.009 13.49,27.311 10e-4,7.437 -6.049,13.486 -13.486,13.486 z"
             inkscape:connector-curvature="0"
             style="fill:#ff4f4f;fill-opacity:1" />
        </g>
      </g>
      <g
         id="g1123"
         style="fill:#ff4f4f;fill-opacity:1" />
      <g
         id="g1125"
         style="fill:#ff4f4f;fill-opacity:1" />
      <g
         id="g1127"
         style="fill:#ff4f4f;fill-opacity:1" />
      <g
         id="g1129"
         style="fill:#ff4f4f;fill-opacity:1" />
      <g
         id="g1131"
         style="fill:#ff4f4f;fill-opacity:1" />
      <g
         id="g1133"
         style="fill:#ff4f4f;fill-opacity:1" />
      <g
         id="g1135"
         style="fill:#ff4f4f;fill-opacity:1" />
      <g
         id="g1137"
         style="fill:#ff4f4f;fill-opacity:1" />
      <g
         id="g1139"
         style="fill:#ff4f4f;fill-opacity:1" />
      <g
         id="g1141"
         style="fill:#ff4f4f;fill-opacity:1" />
      <g
         id="g1143"
         style="fill:#ff4f4f;fill-opacity:1" />
      <g
         id="g1145"
         style="fill:#ff4f4f;fill-opacity:1" />
      <g
         id="g1147"
         style="fill:#ff4f4f;fill-opacity:1" />
      <g
         id="g1149"
         style="fill:#ff4f4f;fill-opacity:1" />
      <g
         id="g1151"
         style="fill:#ff4f4f;fill-opacity:1" />
    </g>
  </g>
</svg>
