<?xml version="1.0" encoding="UTF-8" standalone="no"?>
<!-- Created with Inkscape (http://www.inkscape.org/) -->

<svg
   xmlns:dc="http://purl.org/dc/elements/1.1/"
   xmlns:cc="http://creativecommons.org/ns#"
   xmlns:rdf="http://www.w3.org/1999/02/22-rdf-syntax-ns#"
   xmlns:svg="http://www.w3.org/2000/svg"
   xmlns="http://www.w3.org/2000/svg"
   xmlns:sodipodi="http://sodipodi.sourceforge.net/DTD/sodipodi-0.dtd"
   xmlns:inkscape="http://www.inkscape.org/namespaces/inkscape"
   width="59mm"
   height="84.286003mm"
   viewBox="0 0 59 84.286003"
   version="1.1"
   id="svg8"
   inkscape:version="0.92.2 (5c3e80d, 2017-08-06)"
   sodipodi:docname="c03_disassemble_el.svg"
   inkscape:export-filename="C:\Users\ioarvanit\Desktop\New Design Cards\Προτάσεις\Transfer.png"
   inkscape:export-xdpi="90"
   inkscape:export-ydpi="90">
  <defs
     id="defs2" />
  <sodipodi:namedview
     id="base"
     pagecolor="#ffffff"
     bordercolor="#666666"
     borderopacity="1.0"
     inkscape:pageopacity="0.0"
     inkscape:pageshadow="2"
     inkscape:zoom="1.4"
     inkscape:cx="-67.90501"
     inkscape:cy="175.11647"
     inkscape:document-units="mm"
     inkscape:current-layer="layer1"
     showgrid="false"
     inkscape:window-width="1920"
     inkscape:window-height="1017"
     inkscape:window-x="-8"
     inkscape:window-y="-8"
     inkscape:window-maximized="1" />
  <metadata
     id="metadata5">
    <rdf:RDF>
      <cc:Work
         rdf:about="">
        <dc:format>image/svg+xml</dc:format>
        <dc:type
           rdf:resource="http://purl.org/dc/dcmitype/StillImage" />
        <dc:title />
      </cc:Work>
    </rdf:RDF>
  </metadata>
  <g
     inkscape:label="Layer 1"
     inkscape:groupmode="layer"
     id="layer1"
     transform="translate(0,-212.714)">
    <rect
       style="opacity:1;fill:#ff4f4f;fill-opacity:1;stroke:none;stroke-width:1.72474813;stroke-linecap:round;stroke-miterlimit:4;stroke-dasharray:none;stroke-dashoffset:0;stroke-opacity:1"
       id="rect826"
       width="59"
       height="84.285713"
       x="0"
       y="212.71428" />
    <rect
       style="opacity:1;fill:#ffffff;fill-opacity:1;stroke:none;stroke-width:1.7365911;stroke-linecap:round;stroke-miterlimit:4;stroke-dasharray:none;stroke-dashoffset:0;stroke-opacity:1"
       id="rect828"
       width="50.57143"
       height="75.85714"
       x="4.2142859"
       y="216.92857"
       ry="4.2515807" />
    <text
       xml:space="preserve"
       style="font-style:normal;font-weight:normal;font-size:4.04556561px;line-height:1.25;font-family:sans-serif;letter-spacing:0px;word-spacing:0px;fill:#ff4f4f;fill-opacity:1;stroke:none;stroke-width:0.10113914"
       x="6.7377672"
       y="258.6387"
       id="text832"><tspan
         sodipodi:role="line"
         id="tspan830"
         x="6.7377672"
         y="258.6387"
         style="font-style:normal;font-variant:normal;font-weight:bold;font-stretch:normal;font-family:'DejaVu Serif';-inkscape-font-specification:'DejaVu Serif Bold';fill:#ff4f4f;fill-opacity:1;stroke-width:0.10113914">Αποσυναρμολόγηση</tspan></text>
    <text
       xml:space="preserve"
       style="font-style:normal;font-weight:normal;font-size:2.97341251px;line-height:1.25;font-family:sans-serif;letter-spacing:0px;word-spacing:0px;fill:#ff7a69;fill-opacity:1;stroke:none;stroke-width:0.22300594"
       x="29.634298"
       y="265.77545"
       id="text890"><tspan
         sodipodi:role="line"
         x="30.107605"
         y="265.77545"
         style="text-align:center;text-anchor:middle;fill:#ff7a69;fill-opacity:1;stroke-width:0.22300594"
         id="tspan994">Δημιουργία προϊόντων που </tspan><tspan
         sodipodi:role="line"
         x="29.634298"
         y="269.49222"
         style="text-align:center;text-anchor:middle;fill:#ff7a69;fill-opacity:1;stroke-width:0.22300594"
         id="tspan970">αποτελούνται από ξεχωριστά</tspan><tspan
         sodipodi:role="line"
         x="29.634298"
         y="273.20898"
         style="text-align:center;text-anchor:middle;fill:#ff7a69;fill-opacity:1;stroke-width:0.22300594"
         id="tspan973">μέρη που μπορούν να</tspan><tspan
         sodipodi:role="line"
         x="29.634298"
         y="276.92575"
         style="text-align:center;text-anchor:middle;fill:#ff7a69;fill-opacity:1;stroke-width:0.22300594"
         id="tspan975">επαναχρησιμοποιηθούν και</tspan><tspan
         sodipodi:role="line"
         x="29.634298"
         y="280.64252"
         style="text-align:center;text-anchor:middle;fill:#ff7a69;fill-opacity:1;stroke-width:0.22300594"
         id="tspan977">να διορθωθούν</tspan></text>
    <text
       xml:space="preserve"
       style="font-style:normal;font-weight:normal;font-size:4.00764322px;line-height:1.25;font-family:sans-serif;letter-spacing:0px;word-spacing:0px;fill:#ff4f4f;fill-opacity:1;stroke:none;stroke-width:0.30057323"
       x="15.943277"
       y="288.31839"
       id="text844"><tspan
         id="tspan842"
         sodipodi:role="line"
         x="15.943277"
         y="288.31839"
         style="fill:#ff4f4f;fill-opacity:1;stroke-width:0.30057323">Αειφορία</tspan></text>
    <text
       id="text974"
       y="288.31839"
       x="45.380066"
       style="font-style:normal;font-weight:normal;font-size:4.00764322px;line-height:1.25;font-family:sans-serif;letter-spacing:0px;word-spacing:0px;fill:#ff4f4f;fill-opacity:1;stroke:none;stroke-width:0.30057323"
       xml:space="preserve"><tspan
         style="fill:#ff4f4f;fill-opacity:1;stroke-width:0.30057323"
         y="288.31839"
         x="45.380066"
         sodipodi:role="line"
         id="tspan972">Γ-3</tspan></text>
    <g
       data-name="35-bulb"
       id="_35-bulb"
       transform="matrix(0.01077781,0,0,0.01077781,7.413814,284.11211)"
       style="fill:#ff4f4f;fill-opacity:1">
      <g
         data-name="linear color"
         id="linear_color"
         style="fill:#ff4f4f;fill-opacity:1">
        <path
           id="path903"
           d="m 356.757,392.438 c -3.906,-1.23 -38.856,-11.7 -62.392,-0.552 -26.913,12.742 -25.573,45.451 -25.5,46.838 a 12,12 0 0 0 3.916,8.276 c 0.8,0.724 15.649,13.95 34.816,13.95 a 40.658,40.658 0 0 0 17.577,-3.99 c 23.539,-11.144 37.592,-44.808 39.117,-48.61 a 12,12 0 0 0 -7.534,-15.913 z M 314.9,435.27 c -8.088,3.827 -16.712,0.068 -21.713,-2.994 0.8,-5.831 3.364,-14.873 11.444,-18.7 8.028,-3.8 20.761,-3.055 30.982,-1.391 -5.188,8.963 -12.68,19.284 -20.713,23.085 z"
           inkscape:connector-curvature="0"
           style="fill:#ff4f4f;fill-opacity:1" />
        <path
           id="path905"
           d="m 217.635,391.886 c -23.539,-11.145 -58.485,-0.679 -62.392,0.552 a 12,12 0 0 0 -7.534,15.913 c 1.525,3.8 15.578,37.466 39.117,48.61 a 40.661,40.661 0 0 0 17.577,3.99 c 19.165,0 34.02,-13.227 34.816,-13.95 a 12,12 0 0 0 3.919,-8.277 c 0.07,-1.387 1.41,-34.096 -25.503,-46.838 z M 197.1,435.27 c -8.035,-3.805 -15.535,-14.141 -20.726,-23.1 10.2,-1.67 22.914,-2.413 31,1.412 8.086,3.825 10.646,12.884 11.447,18.693 -5.029,3.07 -13.643,6.825 -21.721,2.995 z"
           inkscape:connector-curvature="0"
           style="fill:#ff4f4f;fill-opacity:1" />
        <path
           id="path907"
           d="m 288,364 a 76.087,76.087 0 0 0 76,-76 V 232 A 12,12 0 0 0 352,220 H 340 V 88 a 36,36 0 0 0 -72,0 V 220 H 244 V 88 a 36,36 0 0 0 -72,0 v 132 h -12 a 12,12 0 0 0 -12,12 v 56 a 76.087,76.087 0 0 0 76,76 h 20 v 132 a 12,12 0 0 0 24,0 V 364 Z m 4,-276 a 12,12 0 0 1 24,0 v 132 h -24 z m -96,0 a 12,12 0 0 1 24,0 v 132 h -24 z m -24,200 v -44 h 168 v 44 a 52.059,52.059 0 0 1 -52,52 h -64 a 52.059,52.059 0 0 1 -52,-52 z"
           inkscape:connector-curvature="0"
           style="fill:#ff4f4f;fill-opacity:1" />
        <path
           id="path909"
           d="m 480,196 h -16 a 12,12 0 0 0 0,24 h 16 a 12,12 0 0 0 0,-24 z"
           inkscape:connector-curvature="0"
           style="fill:#ff4f4f;fill-opacity:1" />
        <path
           id="path911"
           d="m 436.144,116 a 11.956,11.956 0 0 0 5.989,-1.609 l 13.856,-8 a 12.000602,12.000602 0 1 0 -12,-20.786 l -13.856,8 A 12,12 0 0 0 436.144,116 Z"
           inkscape:connector-curvature="0"
           style="fill:#ff4f4f;fill-opacity:1" />
        <path
           id="path913"
           d="m 374,3.618 a 12,12 0 0 0 -16.393,4.393 l -8,13.856 a 12.000602,12.000602 0 1 0 20.786,12 l 8,-13.856 A 12,12 0 0 0 374,3.618 Z"
           inkscape:connector-curvature="0"
           style="fill:#ff4f4f;fill-opacity:1" />
        <path
           id="path915"
           d="m 455.989,309.607 -13.856,-8 a 12.000602,12.000602 0 1 0 -12,20.786 l 13.856,8 a 12.000602,12.000602 0 0 0 12,-20.786 z"
           inkscape:connector-curvature="0"
           style="fill:#ff4f4f;fill-opacity:1" />
        <path
           id="path917"
           d="M 60,208 A 12,12 0 0 0 48,196 H 32 a 12,12 0 0 0 0,24 h 16 a 12,12 0 0 0 12,-12 z"
           inkscape:connector-curvature="0"
           style="fill:#ff4f4f;fill-opacity:1" />
        <path
           id="path919"
           d="m 81.867,93.607 -13.856,-8 a 12.000602,12.000602 0 0 0 -12,20.786 l 13.856,8 a 12.000602,12.000602 0 1 0 12,-20.786 z"
           inkscape:connector-curvature="0"
           style="fill:#ff4f4f;fill-opacity:1" />
        <path
           id="path921"
           d="m 158,38.26 a 12,12 0 0 0 4.393,-16.393 l -8,-13.856 a 12.000602,12.000602 0 0 0 -20.786,12 l 8,13.856 A 12,12 0 0 0 158,38.26 Z"
           inkscape:connector-curvature="0"
           style="fill:#ff4f4f;fill-opacity:1" />
        <path
           id="path923"
           d="m 69.867,301.607 -13.856,8 a 12.000602,12.000602 0 1 0 12,20.786 l 13.856,-8 a 12.000602,12.000602 0 0 0 -12,-20.786 z"
           inkscape:connector-curvature="0"
           style="fill:#ff4f4f;fill-opacity:1" />
      </g>
    </g>
    <g
       id="g962"
       transform="matrix(0.06949885,0,0,0.06949885,12.264285,220.04405)"
       style="fill:#ff4f4f;fill-opacity:1">
      <g
         id="g905"
         style="fill:#ff4f4f;fill-opacity:1">
        <g
           id="g903"
           style="fill:#ff4f4f;fill-opacity:1">
          <path
             id="path901"
             d="m 445.904,184 c -3.416,-10.6 -7.672,-20.88 -12.696,-30.704 L 468.616,117.888 378.112,27.384 342.704,62.792 C 332.88,57.768 322.6,53.512 312,50.096 V 0 H 184 v 50.096 c -10.6,3.416 -20.88,7.672 -30.704,12.696 L 117.888,27.384 27.384,117.888 62.792,153.296 C 57.768,163.12 53.512,173.4 50.096,184 H 0 v 128 h 50.096 c 3.416,10.6 7.672,20.88 12.696,30.704 l -35.408,35.408 90.504,90.504 35.408,-35.408 c 9.824,5.024 20.104,9.28 30.704,12.696 V 496 h 128 v -50.096 c 10.6,-3.416 20.88,-7.672 30.704,-12.696 l 35.408,35.408 90.504,-90.504 -35.408,-35.408 C 438.232,332.88 442.488,322.6 445.904,312 H 496 V 184 Z M 16,200 h 46.008 l 1.672,-5.76 c 3.92,-13.464 9.288,-26.44 15.952,-38.568 l 2.888,-5.264 -32.52,-32.52 67.88,-67.88 32.52,32.52 5.264,-2.888 c 12.128,-6.664 25.104,-12.032 38.568,-15.952 L 200,62.008 V 16 h 40 l -0.016,103.56 11.216,-4.896 c 4.04,-1.768 8.344,-2.664 12.8,-2.664 17.648,0 32,14.352 32,32 0,17.648 -14.352,32 -32,32 -4.456,0 -8.768,-0.896 -12.808,-2.664 l -11.264,-4.928 0.04,71.568 -48.632,0.024 c 0.44,-2.624 0.664,-5.296 0.664,-8 0,-26.472 -21.528,-48 -48,-48 -26.472,0 -48,21.528 -48,48 0,2.704 0.224,5.376 0.664,8 H 16 Z m 224,280 h -40 v -46.008 l -5.76,-1.672 C 180.776,428.4 167.8,423.032 155.672,416.368 L 150.408,413.48 117.888,446 50.008,378.12 82.528,345.6 79.64,340.336 C 72.976,328.208 67.608,315.232 63.688,301.768 L 62.008,296 H 16 v -40 l 103.56,0.016 -4.896,-11.216 C 112.896,240.76 112,236.456 112,232 c 0,-17.648 14.352,-32 32,-32 17.648,0 32,14.352 32,32 0,4.456 -0.896,8.768 -2.664,12.808 l -4.928,11.264 71.568,-0.04 0.024,48.632 c -2.624,-0.44 -5.296,-0.664 -8,-0.664 -26.472,0 -48,21.528 -48,48 0,26.472 21.528,48 48,48 2.704,0 5.376,-0.224 8,-0.664 z M 480,296 h -46.008 l -1.672,5.76 c -3.92,13.464 -9.288,26.44 -15.952,38.568 l -2.888,5.264 32.52,32.52 -67.88,67.88 -32.52,-32.52 -5.264,2.888 c -12.128,6.664 -25.104,12.032 -38.568,15.952 L 296,433.992 V 480 h -40 l 0.016,-103.56 -11.216,4.896 c -4.04,1.768 -8.344,2.664 -12.8,2.664 -17.648,0 -32,-14.352 -32,-32 0,-17.648 14.352,-32 32,-32 4.456,0 8.768,0.896 12.808,2.664 l 11.264,4.928 -0.04,-71.568 48.632,-0.024 c -0.44,2.624 -0.664,5.296 -0.664,8 0,26.472 21.528,48 48,48 26.472,0 48,-21.528 48,-48 0,-2.704 -0.224,-5.376 -0.664,-8 H 480 Z m 0,-56 -103.56,-0.016 4.896,11.216 c 1.768,4.04 2.664,8.344 2.664,12.8 0,17.648 -14.352,32 -32,32 -17.648,0 -32,-14.352 -32,-32 0,-4.456 0.896,-8.768 2.664,-12.808 l 4.928,-11.264 -71.568,0.04 L 256,191.336 c 2.624,0.44 5.296,0.664 8,0.664 26.472,0 48,-21.528 48,-48 0,-26.472 -21.528,-48 -48,-48 -2.704,0 -5.376,0.224 -8,0.664 V 16 h 40 v 46.008 l 5.76,1.672 c 13.464,3.92 26.44,9.288 38.568,15.952 l 5.264,2.888 32.52,-32.52 67.88,67.88 -32.52,32.52 2.888,5.264 c 6.664,12.128 12.032,25.104 15.952,38.568 l 1.68,5.768 H 480 Z"
             inkscape:connector-curvature="0"
             style="fill:#ff4f4f;fill-opacity:1" />
        </g>
      </g>
      <g
         id="g907"
         style="fill:#ff4f4f;fill-opacity:1" />
      <g
         id="g909"
         style="fill:#ff4f4f;fill-opacity:1" />
      <g
         id="g911"
         style="fill:#ff4f4f;fill-opacity:1" />
      <g
         id="g913"
         style="fill:#ff4f4f;fill-opacity:1" />
      <g
         id="g915"
         style="fill:#ff4f4f;fill-opacity:1" />
      <g
         id="g917"
         style="fill:#ff4f4f;fill-opacity:1" />
      <g
         id="g919"
         style="fill:#ff4f4f;fill-opacity:1" />
      <g
         id="g921"
         style="fill:#ff4f4f;fill-opacity:1" />
      <g
         id="g923"
         style="fill:#ff4f4f;fill-opacity:1" />
      <g
         id="g925"
         style="fill:#ff4f4f;fill-opacity:1" />
      <g
         id="g927"
         style="fill:#ff4f4f;fill-opacity:1" />
      <g
         id="g929"
         style="fill:#ff4f4f;fill-opacity:1" />
      <g
         id="g931"
         style="fill:#ff4f4f;fill-opacity:1" />
      <g
         id="g933"
         style="fill:#ff4f4f;fill-opacity:1" />
      <g
         id="g935"
         style="fill:#ff4f4f;fill-opacity:1" />
    </g>
  </g>
</svg>
