<?xml version="1.0" encoding="UTF-8" standalone="no"?>
<!-- Created with Inkscape (http://www.inkscape.org/) -->

<svg
   xmlns:dc="http://purl.org/dc/elements/1.1/"
   xmlns:cc="http://creativecommons.org/ns#"
   xmlns:rdf="http://www.w3.org/1999/02/22-rdf-syntax-ns#"
   xmlns:svg="http://www.w3.org/2000/svg"
   xmlns="http://www.w3.org/2000/svg"
   xmlns:sodipodi="http://sodipodi.sourceforge.net/DTD/sodipodi-0.dtd"
   xmlns:inkscape="http://www.inkscape.org/namespaces/inkscape"
   width="59mm"
   height="84.286003mm"
   viewBox="0 0 59 84.286003"
   version="1.1"
   id="svg8"
   inkscape:version="0.92.2 (5c3e80d, 2017-08-06)"
   sodipodi:docname="c04_share_el.svg"
   inkscape:export-filename="C:\Users\ioarvanit\Desktop\New Design Cards\Προτάσεις\Transfer.png"
   inkscape:export-xdpi="90"
   inkscape:export-ydpi="90">
  <defs
     id="defs2" />
  <sodipodi:namedview
     id="base"
     pagecolor="#ffffff"
     bordercolor="#666666"
     borderopacity="1.0"
     inkscape:pageopacity="0.0"
     inkscape:pageshadow="2"
     inkscape:zoom="1.4"
     inkscape:cx="-81.119296"
     inkscape:cy="175.11647"
     inkscape:document-units="mm"
     inkscape:current-layer="layer1"
     showgrid="false"
     inkscape:window-width="1920"
     inkscape:window-height="1017"
     inkscape:window-x="-8"
     inkscape:window-y="-8"
     inkscape:window-maximized="1" />
  <metadata
     id="metadata5">
    <rdf:RDF>
      <cc:Work
         rdf:about="">
        <dc:format>image/svg+xml</dc:format>
        <dc:type
           rdf:resource="http://purl.org/dc/dcmitype/StillImage" />
        <dc:title />
      </cc:Work>
    </rdf:RDF>
  </metadata>
  <g
     inkscape:label="Layer 1"
     inkscape:groupmode="layer"
     id="layer1"
     transform="translate(0,-212.714)">
    <rect
       style="opacity:1;fill:#ff4f4f;fill-opacity:1;stroke:none;stroke-width:1.72474813;stroke-linecap:round;stroke-miterlimit:4;stroke-dasharray:none;stroke-dashoffset:0;stroke-opacity:1"
       id="rect826"
       width="59"
       height="84.285713"
       x="0"
       y="212.71428" />
    <rect
       style="opacity:1;fill:#ffffff;fill-opacity:1;stroke:none;stroke-width:1.7365911;stroke-linecap:round;stroke-miterlimit:4;stroke-dasharray:none;stroke-dashoffset:0;stroke-opacity:1"
       id="rect828"
       width="50.57143"
       height="75.85714"
       x="4.2142859"
       y="216.92857"
       ry="4.2515807" />
    <text
       xml:space="preserve"
       style="font-style:normal;font-weight:normal;font-size:5.08423948px;line-height:1.25;font-family:sans-serif;letter-spacing:0px;word-spacing:0px;fill:#ff4f4f;fill-opacity:1;stroke:none;stroke-width:0.12710598"
       x="8.9991941"
       y="259.46945"
       id="text832"><tspan
         sodipodi:role="line"
         id="tspan830"
         x="8.9991941"
         y="259.46945"
         style="font-style:normal;font-variant:normal;font-weight:bold;font-stretch:normal;font-family:'DejaVu Serif';-inkscape-font-specification:'DejaVu Serif Bold';fill:#ff4f4f;fill-opacity:1;stroke-width:0.12710598">Διαμοιρασμός</tspan></text>
    <text
       xml:space="preserve"
       style="font-style:normal;font-weight:normal;font-size:2.97341251px;line-height:1.25;font-family:sans-serif;letter-spacing:0px;word-spacing:0px;fill:#ff7a69;fill-opacity:1;stroke:none;stroke-width:0.22300594"
       x="29.634298"
       y="265.77545"
       id="text890"><tspan
         sodipodi:role="line"
         x="30.107605"
         y="265.77545"
         style="text-align:center;text-anchor:middle;fill:#ff7a69;fill-opacity:1;stroke-width:0.22300594"
         id="tspan977">Δημιουργία συστημάτων που </tspan><tspan
         sodipodi:role="line"
         x="29.634298"
         y="269.49222"
         style="text-align:center;text-anchor:middle;fill:#ff7a69;fill-opacity:1;stroke-width:0.22300594"
         id="tspan930">επιστρέπουν το διαμοιρασμό</tspan><tspan
         sodipodi:role="line"
         x="29.634298"
         y="273.20898"
         style="text-align:center;text-anchor:middle;fill:#ff7a69;fill-opacity:1;stroke-width:0.22300594"
         id="tspan932">της δυναμικής τους</tspan><tspan
         sodipodi:role="line"
         x="29.634298"
         y="276.92575"
         style="text-align:center;text-anchor:middle;fill:#ff7a69;fill-opacity:1;stroke-width:0.22300594"
         id="tspan934">(π.χ. περίσσειας ενέργειας)</tspan></text>
    <text
       xml:space="preserve"
       style="font-style:normal;font-weight:normal;font-size:4.00764322px;line-height:1.25;font-family:sans-serif;letter-spacing:0px;word-spacing:0px;fill:#ff4f4f;fill-opacity:1;stroke:none;stroke-width:0.30057323"
       x="15.943277"
       y="288.31839"
       id="text844"><tspan
         id="tspan842"
         sodipodi:role="line"
         x="15.943277"
         y="288.31839"
         style="fill:#ff4f4f;fill-opacity:1;stroke-width:0.30057323">Αειφορία</tspan></text>
    <text
       id="text974"
       y="288.31839"
       x="45.380066"
       style="font-style:normal;font-weight:normal;font-size:4.00764322px;line-height:1.25;font-family:sans-serif;letter-spacing:0px;word-spacing:0px;fill:#ff4f4f;fill-opacity:1;stroke:none;stroke-width:0.30057323"
       xml:space="preserve"><tspan
         style="fill:#ff4f4f;fill-opacity:1;stroke-width:0.30057323"
         y="288.31839"
         x="45.380066"
         sodipodi:role="line"
         id="tspan972">Γ-4</tspan></text>
    <g
       data-name="35-bulb"
       id="_35-bulb"
       transform="matrix(0.01077781,0,0,0.01077781,7.413814,284.11211)"
       style="fill:#ff4f4f;fill-opacity:1">
      <g
         data-name="linear color"
         id="linear_color"
         style="fill:#ff4f4f;fill-opacity:1">
        <path
           id="path903"
           d="m 356.757,392.438 c -3.906,-1.23 -38.856,-11.7 -62.392,-0.552 -26.913,12.742 -25.573,45.451 -25.5,46.838 a 12,12 0 0 0 3.916,8.276 c 0.8,0.724 15.649,13.95 34.816,13.95 a 40.658,40.658 0 0 0 17.577,-3.99 c 23.539,-11.144 37.592,-44.808 39.117,-48.61 a 12,12 0 0 0 -7.534,-15.913 z M 314.9,435.27 c -8.088,3.827 -16.712,0.068 -21.713,-2.994 0.8,-5.831 3.364,-14.873 11.444,-18.7 8.028,-3.8 20.761,-3.055 30.982,-1.391 -5.188,8.963 -12.68,19.284 -20.713,23.085 z"
           inkscape:connector-curvature="0"
           style="fill:#ff4f4f;fill-opacity:1" />
        <path
           id="path905"
           d="m 217.635,391.886 c -23.539,-11.145 -58.485,-0.679 -62.392,0.552 a 12,12 0 0 0 -7.534,15.913 c 1.525,3.8 15.578,37.466 39.117,48.61 a 40.661,40.661 0 0 0 17.577,3.99 c 19.165,0 34.02,-13.227 34.816,-13.95 a 12,12 0 0 0 3.919,-8.277 c 0.07,-1.387 1.41,-34.096 -25.503,-46.838 z M 197.1,435.27 c -8.035,-3.805 -15.535,-14.141 -20.726,-23.1 10.2,-1.67 22.914,-2.413 31,1.412 8.086,3.825 10.646,12.884 11.447,18.693 -5.029,3.07 -13.643,6.825 -21.721,2.995 z"
           inkscape:connector-curvature="0"
           style="fill:#ff4f4f;fill-opacity:1" />
        <path
           id="path907"
           d="m 288,364 a 76.087,76.087 0 0 0 76,-76 V 232 A 12,12 0 0 0 352,220 H 340 V 88 a 36,36 0 0 0 -72,0 V 220 H 244 V 88 a 36,36 0 0 0 -72,0 v 132 h -12 a 12,12 0 0 0 -12,12 v 56 a 76.087,76.087 0 0 0 76,76 h 20 v 132 a 12,12 0 0 0 24,0 V 364 Z m 4,-276 a 12,12 0 0 1 24,0 v 132 h -24 z m -96,0 a 12,12 0 0 1 24,0 v 132 h -24 z m -24,200 v -44 h 168 v 44 a 52.059,52.059 0 0 1 -52,52 h -64 a 52.059,52.059 0 0 1 -52,-52 z"
           inkscape:connector-curvature="0"
           style="fill:#ff4f4f;fill-opacity:1" />
        <path
           id="path909"
           d="m 480,196 h -16 a 12,12 0 0 0 0,24 h 16 a 12,12 0 0 0 0,-24 z"
           inkscape:connector-curvature="0"
           style="fill:#ff4f4f;fill-opacity:1" />
        <path
           id="path911"
           d="m 436.144,116 a 11.956,11.956 0 0 0 5.989,-1.609 l 13.856,-8 a 12.000602,12.000602 0 1 0 -12,-20.786 l -13.856,8 A 12,12 0 0 0 436.144,116 Z"
           inkscape:connector-curvature="0"
           style="fill:#ff4f4f;fill-opacity:1" />
        <path
           id="path913"
           d="m 374,3.618 a 12,12 0 0 0 -16.393,4.393 l -8,13.856 a 12.000602,12.000602 0 1 0 20.786,12 l 8,-13.856 A 12,12 0 0 0 374,3.618 Z"
           inkscape:connector-curvature="0"
           style="fill:#ff4f4f;fill-opacity:1" />
        <path
           id="path915"
           d="m 455.989,309.607 -13.856,-8 a 12.000602,12.000602 0 1 0 -12,20.786 l 13.856,8 a 12.000602,12.000602 0 0 0 12,-20.786 z"
           inkscape:connector-curvature="0"
           style="fill:#ff4f4f;fill-opacity:1" />
        <path
           id="path917"
           d="M 60,208 A 12,12 0 0 0 48,196 H 32 a 12,12 0 0 0 0,24 h 16 a 12,12 0 0 0 12,-12 z"
           inkscape:connector-curvature="0"
           style="fill:#ff4f4f;fill-opacity:1" />
        <path
           id="path919"
           d="m 81.867,93.607 -13.856,-8 a 12.000602,12.000602 0 0 0 -12,20.786 l 13.856,8 a 12.000602,12.000602 0 1 0 12,-20.786 z"
           inkscape:connector-curvature="0"
           style="fill:#ff4f4f;fill-opacity:1" />
        <path
           id="path921"
           d="m 158,38.26 a 12,12 0 0 0 4.393,-16.393 l -8,-13.856 a 12.000602,12.000602 0 0 0 -20.786,12 l 8,13.856 A 12,12 0 0 0 158,38.26 Z"
           inkscape:connector-curvature="0"
           style="fill:#ff4f4f;fill-opacity:1" />
        <path
           id="path923"
           d="m 69.867,301.607 -13.856,8 a 12.000602,12.000602 0 1 0 12,20.786 l 13.856,-8 a 12.000602,12.000602 0 0 0 -12,-20.786 z"
           inkscape:connector-curvature="0"
           style="fill:#ff4f4f;fill-opacity:1" />
      </g>
    </g>
    <g
       id="g914"
       transform="matrix(0.05916143,0,0,0.05916143,14.893896,221.14099)"
       style="fill:#ff4f4f;fill-opacity:1">
      <path
         id="path882"
         d="m 453.33203,85.332031 c 0,38.292969 -31.03906,69.335939 -69.33203,69.335939 -38.29297,0 -69.33203,-31.04297 -69.33203,-69.335939 C 314.66797,47.042969 345.70703,16 384,16 c 38.29297,0 69.33203,31.042969 69.33203,69.332031 z m 0,0"
         inkscape:connector-curvature="0"
         style="fill:#ff4f4f;fill-opacity:1" />
      <path
         id="path884"
         d="m 384,170.66797 c -47.0625,0 -85.33203,-38.27344 -85.33203,-85.335939 C 298.66797,38.273438 336.9375,0 384,0 c 47.0625,0 85.33203,38.273438 85.33203,85.332031 0,47.062499 -38.26953,85.335939 -85.33203,85.335939 z M 384,32 c -29.41797,0 -53.33203,23.9375 -53.33203,53.332031 0,29.398439 23.91406,53.335939 53.33203,53.335939 29.41797,0 53.33203,-23.9375 53.33203,-53.335939 C 437.33203,55.9375 413.41797,32 384,32 Z m 0,0"
         inkscape:connector-curvature="0"
         style="fill:#ff4f4f;fill-opacity:1" />
      <path
         id="path886"
         d="M 453.33203,426.66797 C 453.33203,464.95703 422.29297,496 384,496 c -38.29297,0 -69.33203,-31.04297 -69.33203,-69.33203 0,-38.29297 31.03906,-69.33594 69.33203,-69.33594 38.29297,0 69.33203,31.04297 69.33203,69.33594 z m 0,0"
         inkscape:connector-curvature="0"
         style="fill:#ff4f4f;fill-opacity:1" />
      <path
         id="path888"
         d="m 384,512 c -47.0625,0 -85.33203,-38.27344 -85.33203,-85.33203 0,-47.0625 38.26953,-85.33594 85.33203,-85.33594 47.0625,0 85.33203,38.27344 85.33203,85.33594 C 469.33203,473.72656 431.0625,512 384,512 Z m 0,-138.66797 c -29.41797,0 -53.33203,23.9375 -53.33203,53.33594 C 330.66797,456.0625 354.58203,480 384,480 c 29.41797,0 53.33203,-23.9375 53.33203,-53.33203 0,-29.39844 -23.91406,-53.33594 -53.33203,-53.33594 z m 0,0"
         inkscape:connector-curvature="0"
         style="fill:#ff4f4f;fill-opacity:1" />
      <path
         id="path890"
         d="m 154.66797,256 c 0,38.29297 -31.04297,69.33203 -69.335939,69.33203 C 47.042969,325.33203 16,294.29297 16,256 c 0,-38.29297 31.042969,-69.33203 69.332031,-69.33203 38.292969,0 69.335939,31.03906 69.335939,69.33203 z m 0,0"
         inkscape:connector-curvature="0"
         style="fill:#ff4f4f;fill-opacity:1" />
      <path
         id="path892"
         d="M 85.332031,341.33203 C 38.273438,341.33203 0,303.0625 0,256 c 0,-47.0625 38.273438,-85.33203 85.332031,-85.33203 47.062499,0 85.335939,38.26953 85.335939,85.33203 0,47.0625 -38.27344,85.33203 -85.335939,85.33203 z m 0,-138.66406 C 55.914062,202.66797 32,226.60156 32,256 c 0,29.39844 23.914062,53.33203 53.332031,53.33203 29.421879,0 53.335939,-23.93359 53.335939,-53.33203 0,-29.39844 -23.91406,-53.33203 -53.335939,-53.33203 z m 0,0"
         inkscape:connector-curvature="0"
         style="fill:#ff4f4f;fill-opacity:1" />
      <path
         id="path894"
         d="m 135.70312,245.76172 c -7.42578,0 -14.63671,-3.86328 -18.56249,-10.77344 -5.82422,-10.21875 -2.23829,-23.25391 7.98046,-29.10156 L 323.07031,93.035156 c 10.21875,-5.867187 23.25391,-2.28125 29.10156,7.976564 5.82422,10.21875 2.23829,23.25391 -7.98046,29.10156 L 146.23828,242.96484 c -3.32812,1.89844 -6.95312,2.79688 -10.53516,2.79688 z m 0,0"
         inkscape:connector-curvature="0"
         style="fill:#ff4f4f;fill-opacity:1" />
      <path
         id="path896"
         d="m 333.63281,421.76172 c -3.58594,0 -7.21094,-0.89844 -10.53906,-2.79688 L 125.14063,306.11328 c -10.21875,-5.82422 -13.80079,-18.85937 -7.97657,-29.10156 5.80078,-10.23828 18.85547,-13.84375 29.09766,-7.97656 l 197.95312,112.85156 c 10.21875,5.82422 13.80078,18.85937 7.97657,29.10156 -3.94532,6.91016 -11.15625,10.77344 -18.5586,10.77344 z m 0,0"
         inkscape:connector-curvature="0"
         style="fill:#ff4f4f;fill-opacity:1" />
    </g>
  </g>
</svg>
