<?xml version="1.0" encoding="UTF-8" standalone="no"?>
<!-- Created with Inkscape (http://www.inkscape.org/) -->

<svg
   xmlns:dc="http://purl.org/dc/elements/1.1/"
   xmlns:cc="http://creativecommons.org/ns#"
   xmlns:rdf="http://www.w3.org/1999/02/22-rdf-syntax-ns#"
   xmlns:svg="http://www.w3.org/2000/svg"
   xmlns="http://www.w3.org/2000/svg"
   xmlns:sodipodi="http://sodipodi.sourceforge.net/DTD/sodipodi-0.dtd"
   xmlns:inkscape="http://www.inkscape.org/namespaces/inkscape"
   width="59mm"
   height="84.286003mm"
   viewBox="0 0 59 84.286003"
   version="1.1"
   id="svg8"
   inkscape:version="0.92.2 (5c3e80d, 2017-08-06)"
   sodipodi:docname="c05_visible info_en.svg"
   inkscape:export-filename="C:\Users\ioarvanit\Desktop\New Design Cards\Προτάσεις\Transfer.png"
   inkscape:export-xdpi="90"
   inkscape:export-ydpi="90">
  <defs
     id="defs2" />
  <sodipodi:namedview
     id="base"
     pagecolor="#ffffff"
     bordercolor="#666666"
     borderopacity="1.0"
     inkscape:pageopacity="0.0"
     inkscape:pageshadow="2"
     inkscape:zoom="1.4"
     inkscape:cx="77.09499"
     inkscape:cy="175.11647"
     inkscape:document-units="mm"
     inkscape:current-layer="layer1"
     showgrid="false"
     inkscape:window-width="1920"
     inkscape:window-height="1017"
     inkscape:window-x="-8"
     inkscape:window-y="-8"
     inkscape:window-maximized="1" />
  <metadata
     id="metadata5">
    <rdf:RDF>
      <cc:Work
         rdf:about="">
        <dc:format>image/svg+xml</dc:format>
        <dc:type
           rdf:resource="http://purl.org/dc/dcmitype/StillImage" />
        <dc:title></dc:title>
      </cc:Work>
    </rdf:RDF>
  </metadata>
  <g
     inkscape:label="Layer 1"
     inkscape:groupmode="layer"
     id="layer1"
     transform="translate(0,-212.714)">
    <rect
       style="opacity:1;fill:#ff4f4f;fill-opacity:1;stroke:none;stroke-width:1.72474813;stroke-linecap:round;stroke-miterlimit:4;stroke-dasharray:none;stroke-dashoffset:0;stroke-opacity:1"
       id="rect826"
       width="59"
       height="84.285713"
       x="0"
       y="212.71428" />
    <rect
       style="opacity:1;fill:#ffffff;fill-opacity:1;stroke:none;stroke-width:1.7365911;stroke-linecap:round;stroke-miterlimit:4;stroke-dasharray:none;stroke-dashoffset:0;stroke-opacity:1"
       id="rect828"
       width="50.57143"
       height="75.85714"
       x="4.2142859"
       y="216.92857"
       ry="4.2515807" />
    <text
       xml:space="preserve"
       style="font-style:normal;font-weight:normal;font-size:4.15718317px;line-height:1.25;font-family:sans-serif;letter-spacing:0px;word-spacing:0px;fill:#ff4f4f;fill-opacity:1;stroke:none;stroke-width:0.10392957"
       x="6.8770471"
       y="258.26205"
       id="text832"><tspan
         sodipodi:role="line"
         id="tspan830"
         x="6.8770471"
         y="258.26205"
         style="font-style:normal;font-variant:normal;font-weight:bold;font-stretch:normal;font-family:'DejaVu Serif';-inkscape-font-specification:'DejaVu Serif Bold';fill:#ff4f4f;fill-opacity:1;stroke-width:0.10392957">Visible Information</tspan></text>
    <text
       xml:space="preserve"
       style="font-style:normal;font-weight:normal;font-size:2.97341251px;line-height:1.25;font-family:sans-serif;letter-spacing:0px;word-spacing:0px;fill:#ff7a69;fill-opacity:1;stroke:none;stroke-width:0.22300594"
       x="29.634298"
       y="262.07123"
       id="text890"><tspan
         sodipodi:role="line"
         x="29.634298"
         y="262.07123"
         style="text-align:center;text-anchor:middle;fill:#ff7a69;fill-opacity:1;stroke-width:0.22300594"
         id="tspan934">We present all the information</tspan><tspan
         sodipodi:role="line"
         x="29.634298"
         y="265.78799"
         style="text-align:center;text-anchor:middle;fill:#ff7a69;fill-opacity:1;stroke-width:0.22300594"
         id="tspan995">of the system in a friendly way.</tspan><tspan
         sodipodi:role="line"
         x="29.634298"
         y="269.50476"
         style="text-align:center;text-anchor:middle;fill:#ff7a69;fill-opacity:1;stroke-width:0.22300594"
         id="tspan1023">We visualize the state of the</tspan><tspan
         sodipodi:role="line"
         x="29.634298"
         y="273.22153"
         style="text-align:center;text-anchor:middle;fill:#ff7a69;fill-opacity:1;stroke-width:0.22300594"
         id="tspan997">system.</tspan></text>
    <text
       xml:space="preserve"
       style="font-style:normal;font-weight:normal;font-size:4.00764322px;line-height:1.25;font-family:sans-serif;letter-spacing:0px;word-spacing:0px;fill:#ff4f4f;fill-opacity:1;stroke:none;stroke-width:0.30057323"
       x="15.943277"
       y="288.31839"
       id="text844"><tspan
         id="tspan842"
         sodipodi:role="line"
         x="15.943277"
         y="288.31839"
         style="fill:#ff4f4f;fill-opacity:1;stroke-width:0.30057323">Sustainability</tspan></text>
    <text
       id="text974"
       y="288.31839"
       x="45.380066"
       style="font-style:normal;font-weight:normal;font-size:4.00764322px;line-height:1.25;font-family:sans-serif;letter-spacing:0px;word-spacing:0px;fill:#ff4f4f;fill-opacity:1;stroke:none;stroke-width:0.30057323"
       xml:space="preserve"><tspan
         style="fill:#ff4f4f;fill-opacity:1;stroke-width:0.30057323"
         y="288.31839"
         x="45.380066"
         sodipodi:role="line"
         id="tspan972">C-5</tspan></text>
    <g
       data-name="35-bulb"
       id="_35-bulb"
       transform="matrix(0.01077781,0,0,0.01077781,7.413814,284.11211)"
       style="fill:#ff4f4f;fill-opacity:1">
      <g
         data-name="linear color"
         id="linear_color"
         style="fill:#ff4f4f;fill-opacity:1">
        <path
           id="path903"
           d="m 356.757,392.438 c -3.906,-1.23 -38.856,-11.7 -62.392,-0.552 -26.913,12.742 -25.573,45.451 -25.5,46.838 a 12,12 0 0 0 3.916,8.276 c 0.8,0.724 15.649,13.95 34.816,13.95 a 40.658,40.658 0 0 0 17.577,-3.99 c 23.539,-11.144 37.592,-44.808 39.117,-48.61 a 12,12 0 0 0 -7.534,-15.913 z M 314.9,435.27 c -8.088,3.827 -16.712,0.068 -21.713,-2.994 0.8,-5.831 3.364,-14.873 11.444,-18.7 8.028,-3.8 20.761,-3.055 30.982,-1.391 -5.188,8.963 -12.68,19.284 -20.713,23.085 z"
           inkscape:connector-curvature="0"
           style="fill:#ff4f4f;fill-opacity:1" />
        <path
           id="path905"
           d="m 217.635,391.886 c -23.539,-11.145 -58.485,-0.679 -62.392,0.552 a 12,12 0 0 0 -7.534,15.913 c 1.525,3.8 15.578,37.466 39.117,48.61 a 40.661,40.661 0 0 0 17.577,3.99 c 19.165,0 34.02,-13.227 34.816,-13.95 a 12,12 0 0 0 3.919,-8.277 c 0.07,-1.387 1.41,-34.096 -25.503,-46.838 z M 197.1,435.27 c -8.035,-3.805 -15.535,-14.141 -20.726,-23.1 10.2,-1.67 22.914,-2.413 31,1.412 8.086,3.825 10.646,12.884 11.447,18.693 -5.029,3.07 -13.643,6.825 -21.721,2.995 z"
           inkscape:connector-curvature="0"
           style="fill:#ff4f4f;fill-opacity:1" />
        <path
           id="path907"
           d="m 288,364 a 76.087,76.087 0 0 0 76,-76 V 232 A 12,12 0 0 0 352,220 H 340 V 88 a 36,36 0 0 0 -72,0 V 220 H 244 V 88 a 36,36 0 0 0 -72,0 v 132 h -12 a 12,12 0 0 0 -12,12 v 56 a 76.087,76.087 0 0 0 76,76 h 20 v 132 a 12,12 0 0 0 24,0 V 364 Z m 4,-276 a 12,12 0 0 1 24,0 v 132 h -24 z m -96,0 a 12,12 0 0 1 24,0 v 132 h -24 z m -24,200 v -44 h 168 v 44 a 52.059,52.059 0 0 1 -52,52 h -64 a 52.059,52.059 0 0 1 -52,-52 z"
           inkscape:connector-curvature="0"
           style="fill:#ff4f4f;fill-opacity:1" />
        <path
           id="path909"
           d="m 480,196 h -16 a 12,12 0 0 0 0,24 h 16 a 12,12 0 0 0 0,-24 z"
           inkscape:connector-curvature="0"
           style="fill:#ff4f4f;fill-opacity:1" />
        <path
           id="path911"
           d="m 436.144,116 a 11.956,11.956 0 0 0 5.989,-1.609 l 13.856,-8 a 12.000602,12.000602 0 1 0 -12,-20.786 l -13.856,8 A 12,12 0 0 0 436.144,116 Z"
           inkscape:connector-curvature="0"
           style="fill:#ff4f4f;fill-opacity:1" />
        <path
           id="path913"
           d="m 374,3.618 a 12,12 0 0 0 -16.393,4.393 l -8,13.856 a 12.000602,12.000602 0 1 0 20.786,12 l 8,-13.856 A 12,12 0 0 0 374,3.618 Z"
           inkscape:connector-curvature="0"
           style="fill:#ff4f4f;fill-opacity:1" />
        <path
           id="path915"
           d="m 455.989,309.607 -13.856,-8 a 12.000602,12.000602 0 1 0 -12,20.786 l 13.856,8 a 12.000602,12.000602 0 0 0 12,-20.786 z"
           inkscape:connector-curvature="0"
           style="fill:#ff4f4f;fill-opacity:1" />
        <path
           id="path917"
           d="M 60,208 A 12,12 0 0 0 48,196 H 32 a 12,12 0 0 0 0,24 h 16 a 12,12 0 0 0 12,-12 z"
           inkscape:connector-curvature="0"
           style="fill:#ff4f4f;fill-opacity:1" />
        <path
           id="path919"
           d="m 81.867,93.607 -13.856,-8 a 12.000602,12.000602 0 0 0 -12,20.786 l 13.856,8 a 12.000602,12.000602 0 1 0 12,-20.786 z"
           inkscape:connector-curvature="0"
           style="fill:#ff4f4f;fill-opacity:1" />
        <path
           id="path921"
           d="m 158,38.26 a 12,12 0 0 0 4.393,-16.393 l -8,-13.856 a 12.000602,12.000602 0 0 0 -20.786,12 l 8,13.856 A 12,12 0 0 0 158,38.26 Z"
           inkscape:connector-curvature="0"
           style="fill:#ff4f4f;fill-opacity:1" />
        <path
           id="path923"
           d="m 69.867,301.607 -13.856,8 a 12.000602,12.000602 0 1 0 12,20.786 l 13.856,-8 a 12.000602,12.000602 0 0 0 -12,-20.786 z"
           inkscape:connector-curvature="0"
           style="fill:#ff4f4f;fill-opacity:1" />
      </g>
    </g>
    <g
       id="g978"
       transform="matrix(0.26458333,0,0,0.26458333,15.578856,223.18749)"
       style="fill:#ff4f4f;fill-opacity:1">
      <g
         id="g922"
         style="fill:#ff4f4f;fill-opacity:1">
        <path
           id="path920"
           d="M 50.405,0 C 22.609,0 0.004,22.614 0.004,50.409 c 0,27.787 22.608,50.401 50.401,50.401 27.795,0 50.401,-22.614 50.401,-50.401 C 100.807,22.614 78.2,0 50.405,0 Z m 0,3.357 c 22.121,0 40.669,15.371 45.672,35.979 H 69.686 C 65.846,32.658 58.66,28.158 50.406,28.158 c -8.256,0 -15.439,4.5 -19.28,11.178 H 4.735 C 9.731,18.728 28.283,3.357 50.405,3.357 Z m 8.35,51.969 c 2.995,2.995 4.668,6.171 3.737,7.095 -0.938,0.938 -4.113,-0.739 -7.104,-3.727 -1.259,-1.27 -2.266,-2.557 -2.964,-3.7 0.309,1.287 0.5,2.889 0.5,4.641 0,4.237 -1.067,7.666 -2.382,7.666 -1.313,0 -2.383,-3.429 -2.383,-7.666 0,-1.813 0.207,-3.449 0.531,-4.764 -0.699,1.16 -1.711,2.464 -2.993,3.751 -2.993,2.987 -6.179,4.661 -7.104,3.724 -0.924,-0.931 0.743,-4.106 3.741,-7.098 1.261,-1.263 2.554,-2.27 3.696,-2.978 -1.289,0.312 -2.894,0.514 -4.665,0.514 -4.233,0 -7.664,-1.068 -7.664,-2.382 0,-1.314 3.431,-2.379 7.664,-2.379 1.679,0 3.213,0.175 4.473,0.455 -1.097,-0.686 -2.313,-1.656 -3.504,-2.849 -2.993,-2.989 -4.668,-6.174 -3.737,-7.1 0.926,-0.932 4.108,0.736 7.101,3.732 1.295,1.297 2.322,2.618 3.021,3.785 -0.348,-1.328 -0.558,-3.01 -0.558,-4.882 0,-4.233 1.07,-7.664 2.383,-7.664 1.314,0 2.382,3.431 2.382,7.664 0,1.812 -0.205,3.444 -0.528,4.758 0.699,-1.155 1.713,-2.455 2.992,-3.738 2.991,-2.993 6.174,-4.665 7.104,-3.732 0.924,0.933 -0.753,4.106 -3.737,7.099 -1.293,1.294 -2.614,2.32 -3.777,3.015 1.32,-0.337 2.997,-0.548 4.859,-0.548 4.229,0 7.669,1.068 7.669,2.382 0,1.313 -3.433,2.382 -7.669,2.382 -1.944,0 -3.703,-0.229 -5.048,-0.603 1.206,0.7 2.599,1.775 3.964,3.147 z M 50.405,97.45 C 28.282,97.45 9.731,82.074 4.731,61.466 h 26.39 c 3.842,6.677 11.028,11.174 19.284,11.174 8.254,0 15.44,-4.497 19.28,-11.174 H 96.077 C 91.081,82.083 72.526,97.45 50.405,97.45 Z m -1.301,-48.171 -6.524,-6.522 0.245,-0.245 6.511,6.511 c -0.091,0.078 -0.164,0.164 -0.232,0.256 z m 1.438,-0.731 c -0.066,0 -0.107,0.026 -0.171,0.033 v -9.269 h 0.342 v 9.269 c -0.051,-0.007 -0.101,-0.033 -0.171,-0.033 z m -0.88,0.254 c 0.027,-0.169 0.014,-0.365 -0.027,-0.579 0.136,0.185 0.283,0.322 0.436,0.416 -0.141,0.039 -0.278,0.089 -0.409,0.163 z m -1.229,2.503 c 0.144,-0.113 0.277,-0.232 0.364,-0.35 0.043,0.123 0.091,0.243 0.161,0.356 -0.154,-0.026 -0.332,-0.026 -0.525,-0.006 z m 3.64,0.099 c 0.12,-0.185 0.204,-0.38 0.248,-0.602 0.11,0.208 0.288,0.407 0.562,0.592 -0.319,-0.068 -0.582,-0.055 -0.81,0.01 z M 51.957,49.238 C 51.884,49.149 51.8,49.071 51.709,49.002 l 6.557,-6.56 0.243,0.244 z m -0.512,-0.419 c -0.128,-0.077 -0.271,-0.13 -0.422,-0.18 0.15,-0.087 0.287,-0.226 0.422,-0.409 -0.03,0.221 -0.03,0.421 0,0.589 z m 1.342,0.676 c -0.212,0.161 -0.366,0.332 -0.466,0.51 -0.041,-0.178 -0.101,-0.346 -0.191,-0.51 0.191,0.045 0.409,0.045 0.657,0 z m -3.892,0.095 c -0.038,0.079 -0.065,0.171 -0.098,0.257 -0.066,-0.086 -0.164,-0.171 -0.267,-0.257 0.13,0.011 0.256,0.018 0.365,0 z m 0.239,1.975 c 0.073,0.1 0.15,0.178 0.245,0.246 l -6.554,6.561 -0.245,-0.246 z m 12.557,-0.979 h -9.32 c 0.007,-0.065 0.031,-0.12 0.031,-0.178 0,-0.062 -0.024,-0.117 -0.031,-0.182 h 9.32 z m -9.768,1.027 6.586,6.585 -0.243,0.246 -6.6,-6.598 c 0.096,-0.072 0.187,-0.14 0.257,-0.233 z m 0.13,-1.204 c 0,0.831 -0.678,1.509 -1.511,1.509 -0.833,0 -1.515,-0.678 -1.515,-1.509 0,-0.835 0.678,-1.513 1.515,-1.513 0.833,0 1.511,0.678 1.511,1.513 z m -1.03,1.765 c 0.164,-0.059 0.314,-0.123 0.458,-0.198 -0.057,0.171 -0.07,0.369 -0.043,0.592 C 51.302,52.4 51.167,52.26 51.023,52.174 Z m -1.388,-0.181 c 0.136,0.079 0.276,0.13 0.436,0.182 -0.152,0.086 -0.291,0.226 -0.428,0.407 0.03,-0.223 0.03,-0.415 -0.008,-0.589 z m -0.911,-1.407 h -9.209 v -0.359 h 9.209 c -0.007,0.064 -0.034,0.12 -0.034,0.182 -10e-4,0.054 0.027,0.112 0.034,0.177 z m 1.818,1.674 c 0.07,0 0.116,-0.024 0.171,-0.031 v 9.268 h -0.342 v -9.268 c 0.064,0.007 0.108,0.031 0.171,0.031 z M 24.163,23.767 c -0.922,0.722 -1.129,1.93 -0.758,2.895 0.067,0.215 0.221,0.482 0.411,0.72 l 3.609,4.624 -1.398,1.093 -4.38,-5.611 c -0.616,-0.795 -1.145,-1.434 -1.686,-2.029 l 1.241,-0.967 1.073,1.211 0.031,-0.027 c -0.192,-1.026 0.144,-2.438 1.414,-3.431 1.064,-0.826 3.21,-1.485 5.267,1.153 l 3.584,4.587 -1.398,1.097 -3.46,-4.43 c -0.969,-1.243 -2.233,-1.915 -3.55,-0.885 z m 9.489,-5.797 c 1.839,-0.77 2.599,0.481 2.916,1.22 l 0.073,0.193 c -3.477,1.437 -4.907,3.431 -3.999,5.602 0.546,1.297 2.011,2.195 3.829,1.431 1.277,-0.536 1.98,-1.572 2.187,-2.495 l 0.056,-0.021 0.606,1.082 1.487,-0.623 c -0.368,-0.568 -0.726,-1.314 -1.052,-2.096 l -1.412,-3.36 c -0.753,-1.805 -2.207,-3.395 -4.955,-2.247 -1.131,0.478 -2.077,1.246 -2.615,2.04 l 0.825,0.918 c 0.456,-0.669 1.215,-1.301 2.054,-1.644 z m 4.16,4.082 c 0.07,0.169 0.108,0.365 0.122,0.562 0.063,0.869 -0.371,1.923 -1.538,2.411 -0.833,0.354 -1.752,0.144 -2.197,-0.91 -0.729,-1.749 1.164,-2.913 2.958,-3.621 z m 1.954,-7.427 1.487,-0.28 -0.435,-2.296 1.612,-0.777 0.522,2.746 2.492,-0.472 0.253,1.321 -2.491,0.476 0.977,5.166 c 0.231,1.186 0.693,1.795 1.665,1.605 0.452,-0.087 0.773,-0.21 0.984,-0.312 l 0.327,1.293 c -0.313,0.199 -0.828,0.399 -1.498,0.529 -0.809,0.151 -1.511,0.021 -2.017,-0.375 -0.594,-0.417 -0.929,-1.234 -1.143,-2.363 l -0.999,-5.217 -1.479,0.284 z m 8.897,4.197 0.228,-5.705 1.778,0.077 -0.221,5.397 c -0.074,1.85 0.438,3.123 2.053,3.189 1.183,0.048 2.045,-0.744 2.401,-1.518 0.116,-0.257 0.185,-0.575 0.198,-0.897 l 0.246,-5.985 1.772,0.077 -0.294,7.089 c -0.041,1.01 -0.062,1.896 -0.021,2.663 l -1.574,-0.067 -0.034,-1.593 -0.048,-0.005 c -0.496,0.768 -1.561,1.757 -3.292,1.682 -1.534,-0.061 -3.332,-0.98 -3.192,-4.404 z m 11.92,5.446 -1.688,-0.464 1.776,-6.471 c 0.308,-1.109 0.544,-2.064 0.732,-2.955 l 1.492,0.41 -0.445,1.857 0.072,0.022 c 0.776,-1.143 2.025,-1.658 3.169,-1.347 0.198,0.06 0.328,0.117 0.472,0.197 l -0.444,1.612 c -0.165,-0.087 -0.339,-0.157 -0.568,-0.221 -1.205,-0.33 -2.304,0.348 -2.892,1.566 -0.103,0.228 -0.216,0.484 -0.298,0.775 z m 11.19,-2.096 c -3.34,-1.732 -5.791,-1.542 -6.865,0.554 -0.644,1.25 -0.38,2.95 1.379,3.85 1.242,0.635 2.484,0.504 3.31,0.073 l 0.059,0.026 -0.432,1.157 1.427,0.732 c 0.202,-0.646 0.534,-1.396 0.928,-2.149 l 1.66,-3.244 c 0.883,-1.742 1.163,-3.884 -1.485,-5.243 -1.096,-0.561 -2.293,-0.789 -3.251,-0.685 l -0.172,1.224 c 0.809,-0.081 1.78,0.09 2.588,0.508 1.772,0.915 1.307,2.306 0.944,3.018 z m -1.294,2.615 c -0.079,0.164 -0.212,0.322 -0.355,0.455 -0.623,0.609 -1.704,0.957 -2.841,0.378 -0.804,-0.409 -1.242,-1.244 -0.712,-2.267 0.855,-1.679 2.971,-0.984 4.675,-0.07 z m 1.784,5.106 8.757,-11.315 1.403,1.086 -8.761,11.315 z M 33.789,76.157 h 1.509 V 89.25 H 33.589 V 77.803 h -0.043 l -2.274,1.235 -0.344,-1.355 z M 44.43,75.934 c -2.656,0 -4.551,2.416 -4.551,6.807 0.042,4.326 1.772,6.729 4.331,6.729 2.898,0 4.553,-2.461 4.553,-6.913 0,-4.166 -1.575,-6.623 -4.333,-6.623 z m -0.118,12.159 c -1.612,0 -2.661,-1.934 -2.661,-5.328 0,-3.569 1.129,-5.466 2.678,-5.466 1.833,0 2.663,2.119 2.663,5.339 -0.004,3.344 -0.873,5.455 -2.68,5.455 z M 54.755,75.934 c -2.664,0 -4.557,2.416 -4.557,6.807 0.046,4.326 1.777,6.729 4.327,6.729 2.896,0 4.552,-2.461 4.552,-6.913 0.007,-4.166 -1.567,-6.623 -4.322,-6.623 z m -0.123,12.159 c -1.608,0 -2.656,-1.934 -2.656,-5.328 0,-3.569 1.126,-5.466 2.677,-5.466 1.831,0 2.659,2.119 2.659,5.339 0,3.344 -0.871,5.455 -2.68,5.455 z m 14.305,-2.628 c 0.021,2.614 1.431,3.922 3.065,3.922 1.674,0 3.125,-1.373 3.125,-4.131 0,-2.495 -1.194,-3.904 -3.025,-3.904 -1.735,0 -3.165,1.471 -3.165,4.113 z m 4.797,-0.131 c 0,1.739 -0.527,2.988 -1.688,2.988 -1.092,0 -1.731,-1.27 -1.718,-2.943 0,-1.652 0.609,-2.967 1.718,-2.967 1.22,10e-4 1.688,1.338 1.688,2.922 z m -10.4,4.135 7.7,-13.535 h 1.122 l -7.692,13.535 z m 3.269,-9.63 c 0,-2.495 -1.215,-3.905 -3.039,-3.905 -1.729,0 -3.159,1.469 -3.159,4.09 0.021,2.635 1.431,3.945 3.06,3.945 1.683,0 3.138,-1.369 3.138,-4.13 z m -4.795,0.123 c 0,-1.649 0.582,-2.964 1.684,-2.964 1.232,0 1.69,1.328 1.69,2.923 0,1.731 -0.52,2.98 -1.69,2.98 -1.102,0.001 -1.721,-1.269 -1.684,-2.939 z"
           inkscape:connector-curvature="0"
           style="fill:#ff4f4f;fill-opacity:1" />
      </g>
      <g
         id="g924"
         style="fill:#ff4f4f;fill-opacity:1" />
      <g
         id="g926"
         style="fill:#ff4f4f;fill-opacity:1" />
      <g
         id="g928"
         style="fill:#ff4f4f;fill-opacity:1" />
      <g
         id="g930"
         style="fill:#ff4f4f;fill-opacity:1" />
      <g
         id="g932"
         style="fill:#ff4f4f;fill-opacity:1" />
      <g
         id="g934"
         style="fill:#ff4f4f;fill-opacity:1" />
      <g
         id="g936"
         style="fill:#ff4f4f;fill-opacity:1" />
      <g
         id="g938"
         style="fill:#ff4f4f;fill-opacity:1" />
      <g
         id="g940"
         style="fill:#ff4f4f;fill-opacity:1" />
      <g
         id="g942"
         style="fill:#ff4f4f;fill-opacity:1" />
      <g
         id="g944"
         style="fill:#ff4f4f;fill-opacity:1" />
      <g
         id="g946"
         style="fill:#ff4f4f;fill-opacity:1" />
      <g
         id="g948"
         style="fill:#ff4f4f;fill-opacity:1" />
      <g
         id="g950"
         style="fill:#ff4f4f;fill-opacity:1" />
      <g
         id="g952"
         style="fill:#ff4f4f;fill-opacity:1" />
    </g>
  </g>
</svg>
