<?xml version="1.0" encoding="UTF-8" standalone="no"?>
<!-- Created with Inkscape (http://www.inkscape.org/) -->

<svg
   xmlns:dc="http://purl.org/dc/elements/1.1/"
   xmlns:cc="http://creativecommons.org/ns#"
   xmlns:rdf="http://www.w3.org/1999/02/22-rdf-syntax-ns#"
   xmlns:svg="http://www.w3.org/2000/svg"
   xmlns="http://www.w3.org/2000/svg"
   xmlns:sodipodi="http://sodipodi.sourceforge.net/DTD/sodipodi-0.dtd"
   xmlns:inkscape="http://www.inkscape.org/namespaces/inkscape"
   width="59mm"
   height="84.286003mm"
   viewBox="0 0 59 84.286003"
   version="1.1"
   id="svg8"
   inkscape:version="0.92.2 (5c3e80d, 2017-08-06)"
   sodipodi:docname="c06_local production_en.svg"
   inkscape:export-filename="C:\Users\ioarvanit\Desktop\New Design Cards\Προτάσεις\Transfer.png"
   inkscape:export-xdpi="90"
   inkscape:export-ydpi="90">
  <defs
     id="defs2" />
  <sodipodi:namedview
     id="base"
     pagecolor="#ffffff"
     bordercolor="#666666"
     borderopacity="1.0"
     inkscape:pageopacity="0.0"
     inkscape:pageshadow="2"
     inkscape:zoom="1.4"
     inkscape:cx="-235.04787"
     inkscape:cy="175.11647"
     inkscape:document-units="mm"
     inkscape:current-layer="layer1"
     showgrid="false"
     inkscape:window-width="1920"
     inkscape:window-height="1017"
     inkscape:window-x="-8"
     inkscape:window-y="-8"
     inkscape:window-maximized="1" />
  <metadata
     id="metadata5">
    <rdf:RDF>
      <cc:Work
         rdf:about="">
        <dc:format>image/svg+xml</dc:format>
        <dc:type
           rdf:resource="http://purl.org/dc/dcmitype/StillImage" />
        <dc:title></dc:title>
      </cc:Work>
    </rdf:RDF>
  </metadata>
  <g
     inkscape:label="Layer 1"
     inkscape:groupmode="layer"
     id="layer1"
     transform="translate(0,-212.714)">
    <rect
       style="opacity:1;fill:#ff4f4f;fill-opacity:1;stroke:none;stroke-width:1.72474813;stroke-linecap:round;stroke-miterlimit:4;stroke-dasharray:none;stroke-dashoffset:0;stroke-opacity:1"
       id="rect826"
       width="59"
       height="84.285713"
       x="0"
       y="212.71428" />
    <rect
       style="opacity:1;fill:#ffffff;fill-opacity:1;stroke:none;stroke-width:1.7365911;stroke-linecap:round;stroke-miterlimit:4;stroke-dasharray:none;stroke-dashoffset:0;stroke-opacity:1"
       id="rect828"
       width="50.57143"
       height="75.85714"
       x="4.2142859"
       y="216.92857"
       ry="4.2515807" />
    <text
       xml:space="preserve"
       style="font-style:normal;font-weight:normal;font-size:4.14678288px;line-height:1.25;font-family:sans-serif;letter-spacing:0px;word-spacing:0px;fill:#ff4f4f;fill-opacity:1;stroke:none;stroke-width:0.10366957"
       x="9.6995173"
       y="258.15271"
       id="text832"><tspan
         sodipodi:role="line"
         id="tspan830"
         x="9.6995173"
         y="258.15271"
         style="font-style:normal;font-variant:normal;font-weight:bold;font-stretch:normal;font-family:'DejaVu Serif';-inkscape-font-specification:'DejaVu Serif Bold';fill:#ff4f4f;fill-opacity:1;stroke-width:0.10366957">Local production</tspan></text>
    <text
       xml:space="preserve"
       style="font-style:normal;font-weight:normal;font-size:2.97341251px;line-height:1.25;font-family:sans-serif;letter-spacing:0px;word-spacing:0px;fill:#ff7a69;fill-opacity:1;stroke:none;stroke-width:0.22300594"
       x="29.634298"
       y="262.07123"
       id="text890"><tspan
         sodipodi:role="line"
         x="30.107605"
         y="262.07123"
         style="text-align:center;text-anchor:middle;fill:#ff7a69;fill-opacity:1;stroke-width:0.22300594"
         id="tspan997">The product should be built </tspan><tspan
         sodipodi:role="line"
         x="29.634298"
         y="265.78799"
         style="text-align:center;text-anchor:middle;fill:#ff7a69;fill-opacity:1;stroke-width:0.22300594"
         id="tspan910">from materials and resources</tspan><tspan
         sodipodi:role="line"
         x="29.634298"
         y="269.50476"
         style="text-align:center;text-anchor:middle;fill:#ff7a69;fill-opacity:1;stroke-width:0.22300594"
         id="tspan882">from the place it will be used.</tspan></text>
    <text
       xml:space="preserve"
       style="font-style:normal;font-weight:normal;font-size:4.00764322px;line-height:1.25;font-family:sans-serif;letter-spacing:0px;word-spacing:0px;fill:#ff4f4f;fill-opacity:1;stroke:none;stroke-width:0.30057323"
       x="15.943277"
       y="288.31839"
       id="text844"><tspan
         id="tspan842"
         sodipodi:role="line"
         x="15.943277"
         y="288.31839"
         style="fill:#ff4f4f;fill-opacity:1;stroke-width:0.30057323">Sustainability</tspan></text>
    <text
       id="text974"
       y="288.31839"
       x="45.380066"
       style="font-style:normal;font-weight:normal;font-size:4.00764322px;line-height:1.25;font-family:sans-serif;letter-spacing:0px;word-spacing:0px;fill:#ff4f4f;fill-opacity:1;stroke:none;stroke-width:0.30057323"
       xml:space="preserve"><tspan
         style="fill:#ff4f4f;fill-opacity:1;stroke-width:0.30057323"
         y="288.31839"
         x="45.380066"
         sodipodi:role="line"
         id="tspan972">C-6</tspan></text>
    <g
       data-name="35-bulb"
       id="_35-bulb"
       transform="matrix(0.01077781,0,0,0.01077781,7.413814,284.11211)"
       style="fill:#ff4f4f;fill-opacity:1">
      <g
         data-name="linear color"
         id="linear_color"
         style="fill:#ff4f4f;fill-opacity:1">
        <path
           id="path903"
           d="m 356.757,392.438 c -3.906,-1.23 -38.856,-11.7 -62.392,-0.552 -26.913,12.742 -25.573,45.451 -25.5,46.838 a 12,12 0 0 0 3.916,8.276 c 0.8,0.724 15.649,13.95 34.816,13.95 a 40.658,40.658 0 0 0 17.577,-3.99 c 23.539,-11.144 37.592,-44.808 39.117,-48.61 a 12,12 0 0 0 -7.534,-15.913 z M 314.9,435.27 c -8.088,3.827 -16.712,0.068 -21.713,-2.994 0.8,-5.831 3.364,-14.873 11.444,-18.7 8.028,-3.8 20.761,-3.055 30.982,-1.391 -5.188,8.963 -12.68,19.284 -20.713,23.085 z"
           inkscape:connector-curvature="0"
           style="fill:#ff4f4f;fill-opacity:1" />
        <path
           id="path905"
           d="m 217.635,391.886 c -23.539,-11.145 -58.485,-0.679 -62.392,0.552 a 12,12 0 0 0 -7.534,15.913 c 1.525,3.8 15.578,37.466 39.117,48.61 a 40.661,40.661 0 0 0 17.577,3.99 c 19.165,0 34.02,-13.227 34.816,-13.95 a 12,12 0 0 0 3.919,-8.277 c 0.07,-1.387 1.41,-34.096 -25.503,-46.838 z M 197.1,435.27 c -8.035,-3.805 -15.535,-14.141 -20.726,-23.1 10.2,-1.67 22.914,-2.413 31,1.412 8.086,3.825 10.646,12.884 11.447,18.693 -5.029,3.07 -13.643,6.825 -21.721,2.995 z"
           inkscape:connector-curvature="0"
           style="fill:#ff4f4f;fill-opacity:1" />
        <path
           id="path907"
           d="m 288,364 a 76.087,76.087 0 0 0 76,-76 V 232 A 12,12 0 0 0 352,220 H 340 V 88 a 36,36 0 0 0 -72,0 V 220 H 244 V 88 a 36,36 0 0 0 -72,0 v 132 h -12 a 12,12 0 0 0 -12,12 v 56 a 76.087,76.087 0 0 0 76,76 h 20 v 132 a 12,12 0 0 0 24,0 V 364 Z m 4,-276 a 12,12 0 0 1 24,0 v 132 h -24 z m -96,0 a 12,12 0 0 1 24,0 v 132 h -24 z m -24,200 v -44 h 168 v 44 a 52.059,52.059 0 0 1 -52,52 h -64 a 52.059,52.059 0 0 1 -52,-52 z"
           inkscape:connector-curvature="0"
           style="fill:#ff4f4f;fill-opacity:1" />
        <path
           id="path909"
           d="m 480,196 h -16 a 12,12 0 0 0 0,24 h 16 a 12,12 0 0 0 0,-24 z"
           inkscape:connector-curvature="0"
           style="fill:#ff4f4f;fill-opacity:1" />
        <path
           id="path911"
           d="m 436.144,116 a 11.956,11.956 0 0 0 5.989,-1.609 l 13.856,-8 a 12.000602,12.000602 0 1 0 -12,-20.786 l -13.856,8 A 12,12 0 0 0 436.144,116 Z"
           inkscape:connector-curvature="0"
           style="fill:#ff4f4f;fill-opacity:1" />
        <path
           id="path913"
           d="m 374,3.618 a 12,12 0 0 0 -16.393,4.393 l -8,13.856 a 12.000602,12.000602 0 1 0 20.786,12 l 8,-13.856 A 12,12 0 0 0 374,3.618 Z"
           inkscape:connector-curvature="0"
           style="fill:#ff4f4f;fill-opacity:1" />
        <path
           id="path915"
           d="m 455.989,309.607 -13.856,-8 a 12.000602,12.000602 0 1 0 -12,20.786 l 13.856,8 a 12.000602,12.000602 0 0 0 12,-20.786 z"
           inkscape:connector-curvature="0"
           style="fill:#ff4f4f;fill-opacity:1" />
        <path
           id="path917"
           d="M 60,208 A 12,12 0 0 0 48,196 H 32 a 12,12 0 0 0 0,24 h 16 a 12,12 0 0 0 12,-12 z"
           inkscape:connector-curvature="0"
           style="fill:#ff4f4f;fill-opacity:1" />
        <path
           id="path919"
           d="m 81.867,93.607 -13.856,-8 a 12.000602,12.000602 0 0 0 -12,20.786 l 13.856,8 a 12.000602,12.000602 0 1 0 12,-20.786 z"
           inkscape:connector-curvature="0"
           style="fill:#ff4f4f;fill-opacity:1" />
        <path
           id="path921"
           d="m 158,38.26 a 12,12 0 0 0 4.393,-16.393 l -8,-13.856 a 12.000602,12.000602 0 0 0 -20.786,12 l 8,13.856 A 12,12 0 0 0 158,38.26 Z"
           inkscape:connector-curvature="0"
           style="fill:#ff4f4f;fill-opacity:1" />
        <path
           id="path923"
           d="m 69.867,301.607 -13.856,8 a 12.000602,12.000602 0 1 0 12,20.786 l 13.856,-8 a 12.000602,12.000602 0 0 0 -12,-20.786 z"
           inkscape:connector-curvature="0"
           style="fill:#ff4f4f;fill-opacity:1" />
      </g>
    </g>
    <g
       id="g897"
       transform="matrix(0.0630136,0,0,0.0630136,13.256186,220.57322)"
       style="fill:#ff4f4f;fill-opacity:1">
      <path
         id="path895"
         d="m 312.732,363.973 c 2.296,-3.43 6.945,-4.337 10.375,-2.041 3.43,2.296 4.337,6.945 2.041,10.375 -4.337,6.491 -8.815,12.784 -13.21,18.652 -2.522,3.401 -5.017,6.69 -7.455,9.78 h 34.781 c 4.139,0 7.512,3.374 7.512,7.512 0,4.139 -3.373,7.512 -7.512,7.512 h -107.32 c -4.139,0 -7.512,-3.373 -7.512,-7.512 0,-4.139 3.373,-7.512 7.512,-7.512 h 34.81 c -12.359,-15.789 -26.532,-35.745 -37.02,-55.475 -9.383,-17.631 -15.903,-35.292 -15.903,-50.258 0,-19.843 8.022,-37.787 21.034,-50.769 12.982,-13.012 30.926,-21.034 50.769,-21.034 19.814,0 37.758,8.022 50.741,21.034 13.011,12.983 21.032,30.926 21.032,50.769 0,6.831 -1.36,14.229 -3.741,21.968 -2.552,8.221 -6.236,16.81 -10.658,25.427 -1.899,3.657 -6.406,5.102 -10.092,3.231 -3.656,-1.899 -5.103,-6.406 -3.231,-10.091 4.054,-7.88 7.427,-15.647 9.694,-22.961 1.928,-6.293 3.033,-12.217 3.033,-17.575 0,-15.704 -6.35,-29.906 -16.639,-40.167 -10.262,-10.29 -24.464,-16.64 -40.14,-16.64 -15.704,0 -29.906,6.35 -40.167,16.64 -10.29,10.261 -16.64,24.463 -16.64,40.167 0,12.217 5.811,27.525 14.145,43.228 12.133,22.819 29.452,46.007 42.662,62.193 4.422,-5.443 9.297,-11.65 14.287,-18.369 4.28,-5.725 8.617,-11.819 12.812,-18.084 z M 289.771,107.605 v -70.98 c 0,-5.925 -2.439,-11.339 -6.35,-15.25 -3.94,-3.941 -9.326,-6.378 -15.279,-6.378 h -24.265 c -5.925,0 -11.339,2.438 -15.25,6.378 -3.94,3.912 -6.378,9.326 -6.378,15.25 v 70.98 z M 214.369,14.996 h -29.708 c -5.924,0 -11.338,2.438 -15.25,6.378 -3.94,3.912 -6.378,9.326 -6.378,15.25 v 70.98 h 44.22 v -70.98 c 0,-8.079 2.636,-15.562 7.116,-21.628 z m -66.331,92.609 v -70.98 c 0,-10.092 4.139,-19.248 10.771,-25.881 C 165.442,4.11 174.598,0 184.661,0 h 142.698 c 10.091,0 19.247,4.11 25.88,10.744 6.634,6.633 10.744,15.789 10.744,25.881 v 70.98 h 60.464 c 4.139,0 7.483,3.345 7.483,7.483 v 29.14 c 0,4.138 -3.345,7.484 -7.483,7.484 -4.167,0 -7.512,-3.346 -7.512,-7.484 V 122.6 h -52.952 v 17.518 c 5.102,1.333 9.638,4.025 13.237,7.626 5.329,5.301 8.618,12.643 8.618,20.749 0,8.107 -3.289,15.421 -8.618,20.75 -5.301,5.301 -12.643,8.589 -20.749,8.589 -8.079,0 -15.421,-3.288 -20.722,-8.589 -5.329,-5.329 -8.617,-12.643 -8.617,-20.75 0,-8.106 3.288,-15.448 8.617,-20.749 3.6,-3.6 8.136,-6.293 13.237,-7.626 V 122.6 H 222.25 v 17.518 c 5.102,1.333 9.638,4.025 13.266,7.626 5.301,5.301 8.589,12.643 8.589,20.749 0,8.107 -3.288,15.421 -8.589,20.75 -5.329,5.301 -12.643,8.589 -20.749,8.589 -8.108,0 -15.45,-3.288 -20.751,-8.589 -5.301,-5.329 -8.589,-12.643 -8.589,-20.75 0,-8.106 3.288,-15.448 8.589,-20.749 3.6,-3.6 8.164,-6.293 13.237,-7.626 V 122.6 h -52.951 v 325.875 l 21.629,48.53 H 437.175 L 417.87,453.606 c -0.595,-1.077 -0.935,-2.296 -0.935,-3.6 V 178.188 c 0,-4.139 3.345,-7.483 7.512,-7.483 4.139,0 7.483,3.345 7.483,7.483 v 270.287 l 23.583,52.98 c 1.701,3.77 0,8.192 -3.77,9.893 -0.936,0.425 -2.125,0.652 -3.146,0.652 H 63.338 c -4.139,0 -7.512,-3.345 -7.512,-7.483 0,-1.304 0.34,-2.552 0.935,-3.601 L 80.09,448.475 v -27.609 c 0,-4.139 3.374,-7.484 7.512,-7.484 4.139,0 7.484,3.345 7.484,7.484 v 28.772 c 0,1.162 -0.199,2.324 -0.652,3.401 l -19.588,43.966 h 84.7 l -19.304,-43.399 c -0.595,-1.077 -0.936,-2.296 -0.936,-3.6 V 122.6 h -44.22 v 264.305 c 0,4.139 -3.346,7.484 -7.484,7.484 -4.138,0 -7.512,-3.345 -7.512,-7.484 V 115.088 c 0,-4.139 3.374,-7.483 7.512,-7.483 z M 297.68,14.996 c 4.451,6.066 7.088,13.55 7.088,21.629 v 70.98 h 44.22 v -70.98 c 0,-5.925 -2.438,-11.339 -6.35,-15.25 -3.939,-3.941 -9.326,-6.378 -15.278,-6.378 h -29.68 z m 66.303,143.774 c 0,4.139 -3.346,7.512 -7.512,7.512 -4.139,0 -7.484,-3.373 -7.484,-7.512 v -2.494 c -0.963,0.566 -1.842,1.275 -2.636,2.069 -2.608,2.607 -4.195,6.179 -4.195,10.147 0,3.969 1.587,7.541 4.195,10.148 2.579,2.58 6.18,4.195 10.12,4.195 3.968,0 7.568,-1.616 10.147,-4.195 2.608,-2.608 4.195,-6.18 4.195,-10.148 0,-3.968 -1.587,-7.54 -4.195,-10.147 -0.794,-0.794 -1.673,-1.503 -2.636,-2.069 v 2.494 z M 222.25,156.276 v 2.494 c 0,4.139 -3.346,7.512 -7.483,7.512 -4.14,0 -7.514,-3.373 -7.514,-7.512 v -2.494 c -0.963,0.566 -1.842,1.275 -2.636,2.069 -2.579,2.607 -4.195,6.179 -4.195,10.147 0,3.969 1.616,7.541 4.195,10.148 2.608,2.58 6.18,4.195 10.149,4.195 3.968,0 7.54,-1.616 10.148,-4.195 2.58,-2.608 4.195,-6.18 4.195,-10.148 0,-3.968 -1.615,-7.54 -4.195,-10.147 -0.793,-0.793 -1.7,-1.502 -2.664,-2.069 z m 63.383,100.603 c 10.516,0 20.042,4.28 26.93,11.168 6.917,6.888 11.169,16.413 11.169,26.958 0,10.517 -4.252,20.041 -11.169,26.929 -6.888,6.917 -16.414,11.169 -26.93,11.169 -10.545,0 -20.069,-4.252 -26.958,-11.169 -6.888,-6.888 -11.169,-16.413 -11.169,-26.929 0,-10.545 4.281,-20.07 11.169,-26.958 6.888,-6.888 16.413,-11.168 26.958,-11.168 z m 16.328,21.77 c -4.168,-4.196 -9.951,-6.775 -16.328,-6.775 -6.406,0 -12.161,2.58 -16.356,6.775 -4.167,4.166 -6.774,9.95 -6.774,16.356 0,6.378 2.607,12.16 6.774,16.327 4.195,4.195 9.95,6.775 16.356,6.775 6.377,0 12.16,-2.58 16.328,-6.775 4.195,-4.167 6.775,-9.949 6.775,-16.327 -10e-4,-6.406 -2.58,-12.189 -6.775,-16.356 z"
         inkscape:connector-curvature="0"
         style="fill:#ff4f4f;fill-opacity:1" />
    </g>
  </g>
</svg>
