<?xml version="1.0" encoding="UTF-8" standalone="no"?>
<!-- Created with Inkscape (http://www.inkscape.org/) -->

<svg
   xmlns:dc="http://purl.org/dc/elements/1.1/"
   xmlns:cc="http://creativecommons.org/ns#"
   xmlns:rdf="http://www.w3.org/1999/02/22-rdf-syntax-ns#"
   xmlns:svg="http://www.w3.org/2000/svg"
   xmlns="http://www.w3.org/2000/svg"
   xmlns:sodipodi="http://sodipodi.sourceforge.net/DTD/sodipodi-0.dtd"
   xmlns:inkscape="http://www.inkscape.org/namespaces/inkscape"
   width="59mm"
   height="84.286003mm"
   viewBox="0 0 59 84.286003"
   version="1.1"
   id="svg8"
   inkscape:version="0.92.2 (5c3e80d, 2017-08-06)"
   sodipodi:docname="c07_low consumption_en.svg"
   inkscape:export-filename="C:\Users\ioarvanit\Desktop\New Design Cards\Προτάσεις\Transfer.png"
   inkscape:export-xdpi="90"
   inkscape:export-ydpi="90">
  <defs
     id="defs2" />
  <sodipodi:namedview
     id="base"
     pagecolor="#ffffff"
     bordercolor="#666666"
     borderopacity="1.0"
     inkscape:pageopacity="0.0"
     inkscape:pageshadow="2"
     inkscape:zoom="1.4"
     inkscape:cx="-19.690727"
     inkscape:cy="175.11647"
     inkscape:document-units="mm"
     inkscape:current-layer="layer1"
     showgrid="false"
     inkscape:window-width="1920"
     inkscape:window-height="1017"
     inkscape:window-x="-8"
     inkscape:window-y="-8"
     inkscape:window-maximized="1" />
  <metadata
     id="metadata5">
    <rdf:RDF>
      <cc:Work
         rdf:about="">
        <dc:format>image/svg+xml</dc:format>
        <dc:type
           rdf:resource="http://purl.org/dc/dcmitype/StillImage" />
        <dc:title></dc:title>
      </cc:Work>
    </rdf:RDF>
  </metadata>
  <g
     inkscape:label="Layer 1"
     inkscape:groupmode="layer"
     id="layer1"
     transform="translate(0,-212.714)">
    <rect
       style="opacity:1;fill:#ff4f4f;fill-opacity:1;stroke:none;stroke-width:1.72474813;stroke-linecap:round;stroke-miterlimit:4;stroke-dasharray:none;stroke-dashoffset:0;stroke-opacity:1"
       id="rect826"
       width="59"
       height="84.285713"
       x="0"
       y="212.71428" />
    <rect
       style="opacity:1;fill:#ffffff;fill-opacity:1;stroke:none;stroke-width:1.7365911;stroke-linecap:round;stroke-miterlimit:4;stroke-dasharray:none;stroke-dashoffset:0;stroke-opacity:1"
       id="rect828"
       width="50.57143"
       height="75.85714"
       x="4.2142859"
       y="216.92857"
       ry="4.2515807" />
    <text
       xml:space="preserve"
       style="font-style:normal;font-weight:normal;font-size:4.58170176px;line-height:1.25;font-family:sans-serif;letter-spacing:0px;word-spacing:0px;fill:#ff4f4f;fill-opacity:1;stroke:none;stroke-width:0.11454255"
       x="6.8353419"
       y="257.68427"
       id="text832"><tspan
         sodipodi:role="line"
         id="tspan830"
         x="6.8353419"
         y="257.68427"
         style="font-style:normal;font-variant:normal;font-weight:bold;font-stretch:normal;font-family:'DejaVu Serif';-inkscape-font-specification:'DejaVu Serif Bold';fill:#ff4f4f;fill-opacity:1;stroke-width:0.11454255">Low consumption</tspan></text>
    <text
       xml:space="preserve"
       style="font-style:normal;font-weight:normal;font-size:2.97341251px;line-height:1.25;font-family:sans-serif;letter-spacing:0px;word-spacing:0px;fill:#ff7a69;fill-opacity:1;stroke:none;stroke-width:0.22300594"
       x="29.634298"
       y="262.07123"
       id="text890"><tspan
         sodipodi:role="line"
         x="29.634298"
         y="262.07123"
         style="text-align:center;text-anchor:middle;fill:#ff7a69;fill-opacity:1;stroke-width:0.22300594"
         id="tspan882">Low consumption product</tspan><tspan
         sodipodi:role="line"
         x="29.634298"
         y="265.78799"
         style="text-align:center;text-anchor:middle;fill:#ff7a69;fill-opacity:1;stroke-width:0.22300594"
         id="tspan891">that promotes energy and</tspan><tspan
         sodipodi:role="line"
         x="29.634298"
         y="269.50476"
         style="text-align:center;text-anchor:middle;fill:#ff7a69;fill-opacity:1;stroke-width:0.22300594"
         id="tspan868">resource saving.</tspan></text>
    <text
       xml:space="preserve"
       style="font-style:normal;font-weight:normal;font-size:4.00764322px;line-height:1.25;font-family:sans-serif;letter-spacing:0px;word-spacing:0px;fill:#ff4f4f;fill-opacity:1;stroke:none;stroke-width:0.30057323"
       x="15.943277"
       y="288.31839"
       id="text844"><tspan
         id="tspan842"
         sodipodi:role="line"
         x="15.943277"
         y="288.31839"
         style="fill:#ff4f4f;fill-opacity:1;stroke-width:0.30057323">Sustainability</tspan></text>
    <text
       id="text974"
       y="288.31839"
       x="45.380066"
       style="font-style:normal;font-weight:normal;font-size:4.00764322px;line-height:1.25;font-family:sans-serif;letter-spacing:0px;word-spacing:0px;fill:#ff4f4f;fill-opacity:1;stroke:none;stroke-width:0.30057323"
       xml:space="preserve"><tspan
         style="fill:#ff4f4f;fill-opacity:1;stroke-width:0.30057323"
         y="288.31839"
         x="45.380066"
         sodipodi:role="line"
         id="tspan972">C-7</tspan></text>
    <g
       data-name="35-bulb"
       id="_35-bulb"
       transform="matrix(0.01077781,0,0,0.01077781,7.413814,284.11211)"
       style="fill:#ff4f4f;fill-opacity:1">
      <g
         data-name="linear color"
         id="linear_color"
         style="fill:#ff4f4f;fill-opacity:1">
        <path
           id="path903"
           d="m 356.757,392.438 c -3.906,-1.23 -38.856,-11.7 -62.392,-0.552 -26.913,12.742 -25.573,45.451 -25.5,46.838 a 12,12 0 0 0 3.916,8.276 c 0.8,0.724 15.649,13.95 34.816,13.95 a 40.658,40.658 0 0 0 17.577,-3.99 c 23.539,-11.144 37.592,-44.808 39.117,-48.61 a 12,12 0 0 0 -7.534,-15.913 z M 314.9,435.27 c -8.088,3.827 -16.712,0.068 -21.713,-2.994 0.8,-5.831 3.364,-14.873 11.444,-18.7 8.028,-3.8 20.761,-3.055 30.982,-1.391 -5.188,8.963 -12.68,19.284 -20.713,23.085 z"
           inkscape:connector-curvature="0"
           style="fill:#ff4f4f;fill-opacity:1" />
        <path
           id="path905"
           d="m 217.635,391.886 c -23.539,-11.145 -58.485,-0.679 -62.392,0.552 a 12,12 0 0 0 -7.534,15.913 c 1.525,3.8 15.578,37.466 39.117,48.61 a 40.661,40.661 0 0 0 17.577,3.99 c 19.165,0 34.02,-13.227 34.816,-13.95 a 12,12 0 0 0 3.919,-8.277 c 0.07,-1.387 1.41,-34.096 -25.503,-46.838 z M 197.1,435.27 c -8.035,-3.805 -15.535,-14.141 -20.726,-23.1 10.2,-1.67 22.914,-2.413 31,1.412 8.086,3.825 10.646,12.884 11.447,18.693 -5.029,3.07 -13.643,6.825 -21.721,2.995 z"
           inkscape:connector-curvature="0"
           style="fill:#ff4f4f;fill-opacity:1" />
        <path
           id="path907"
           d="m 288,364 a 76.087,76.087 0 0 0 76,-76 V 232 A 12,12 0 0 0 352,220 H 340 V 88 a 36,36 0 0 0 -72,0 V 220 H 244 V 88 a 36,36 0 0 0 -72,0 v 132 h -12 a 12,12 0 0 0 -12,12 v 56 a 76.087,76.087 0 0 0 76,76 h 20 v 132 a 12,12 0 0 0 24,0 V 364 Z m 4,-276 a 12,12 0 0 1 24,0 v 132 h -24 z m -96,0 a 12,12 0 0 1 24,0 v 132 h -24 z m -24,200 v -44 h 168 v 44 a 52.059,52.059 0 0 1 -52,52 h -64 a 52.059,52.059 0 0 1 -52,-52 z"
           inkscape:connector-curvature="0"
           style="fill:#ff4f4f;fill-opacity:1" />
        <path
           id="path909"
           d="m 480,196 h -16 a 12,12 0 0 0 0,24 h 16 a 12,12 0 0 0 0,-24 z"
           inkscape:connector-curvature="0"
           style="fill:#ff4f4f;fill-opacity:1" />
        <path
           id="path911"
           d="m 436.144,116 a 11.956,11.956 0 0 0 5.989,-1.609 l 13.856,-8 a 12.000602,12.000602 0 1 0 -12,-20.786 l -13.856,8 A 12,12 0 0 0 436.144,116 Z"
           inkscape:connector-curvature="0"
           style="fill:#ff4f4f;fill-opacity:1" />
        <path
           id="path913"
           d="m 374,3.618 a 12,12 0 0 0 -16.393,4.393 l -8,13.856 a 12.000602,12.000602 0 1 0 20.786,12 l 8,-13.856 A 12,12 0 0 0 374,3.618 Z"
           inkscape:connector-curvature="0"
           style="fill:#ff4f4f;fill-opacity:1" />
        <path
           id="path915"
           d="m 455.989,309.607 -13.856,-8 a 12.000602,12.000602 0 1 0 -12,20.786 l 13.856,8 a 12.000602,12.000602 0 0 0 12,-20.786 z"
           inkscape:connector-curvature="0"
           style="fill:#ff4f4f;fill-opacity:1" />
        <path
           id="path917"
           d="M 60,208 A 12,12 0 0 0 48,196 H 32 a 12,12 0 0 0 0,24 h 16 a 12,12 0 0 0 12,-12 z"
           inkscape:connector-curvature="0"
           style="fill:#ff4f4f;fill-opacity:1" />
        <path
           id="path919"
           d="m 81.867,93.607 -13.856,-8 a 12.000602,12.000602 0 0 0 -12,20.786 l 13.856,8 a 12.000602,12.000602 0 1 0 12,-20.786 z"
           inkscape:connector-curvature="0"
           style="fill:#ff4f4f;fill-opacity:1" />
        <path
           id="path921"
           d="m 158,38.26 a 12,12 0 0 0 4.393,-16.393 l -8,-13.856 a 12.000602,12.000602 0 0 0 -20.786,12 l 8,13.856 A 12,12 0 0 0 158,38.26 Z"
           inkscape:connector-curvature="0"
           style="fill:#ff4f4f;fill-opacity:1" />
        <path
           id="path923"
           d="m 69.867,301.607 -13.856,8 a 12.000602,12.000602 0 1 0 12,20.786 l 13.856,-8 a 12.000602,12.000602 0 0 0 -12,-20.786 z"
           inkscape:connector-curvature="0"
           style="fill:#ff4f4f;fill-opacity:1" />
      </g>
    </g>
    <path
       id="path879"
       d="m 31.683083,233.27983 c 0.114652,-0.29595 0.07533,-0.62849 -0.105075,-0.88956 -0.366275,-0.53001 -1.069653,-0.56121 -1.543667,-0.11027 -1.246068,1.18544 -2.479073,2.3466 -3.719371,3.52177 -0.239385,0.22683 -0.357524,0.53489 -0.323978,0.84511 0.03316,0.3073 0.211673,0.57978 0.489803,0.74777 0.592532,0.35784 1.189758,0.69462 1.781783,1.033 -0.334822,0.79856 -0.642502,1.49858 -0.946061,2.28299 -0.183137,0.47319 0.02657,0.99839 0.487774,1.2216 0.362089,0.1752 0.780109,0.14122 1.160397,-0.22074 1.231357,-1.1722 2.488523,-2.35383 3.720513,-3.52248 0.242112,-0.22968 0.359743,-0.53977 0.32271,-0.85075 -0.03748,-0.31453 -0.227907,-0.59209 -0.522398,-0.76146 -0.583274,-0.33546 -1.165089,-0.67364 -1.74754,-1.01062 0.31732,-0.74548 0.646815,-1.51621 0.94511,-2.28636 z m -1.958769,2.24 c -0.113762,0.26882 -0.01852,0.54859 0.237166,0.69622 0.683593,0.39462 1.365539,0.79197 2.04983,1.18538 0.07013,0.0403 0.0721,0.0473 0.01921,0.0975 -1.001674,0.95025 -3.715757,3.54892 -3.800603,3.58201 -0.0093,-0.004 -0.03215,-0.012 -0.02631,-0.027 0.337294,-0.87174 0.694056,-1.6866 1.073013,-2.58332 0.09436,-0.22328 0.05701,-0.52474 -0.239131,-0.69526 -0.687272,-0.39564 -1.382343,-0.78265 -2.065049,-1.19496 -0.05079,-0.0307 -0.04864,-0.0451 -0.0033,-0.088 1.323559,-1.25406 3.6753,-3.50681 3.792297,-3.5803 0.02517,0.005 0.0345,0.0189 0.03462,0.0244 -0.336724,0.86813 -0.711052,1.73112 -1.071809,2.58345 z m 16.000851,-3.4399 c -0.04959,-0.25791 -0.299057,-0.42671 -0.556831,-0.37719 l -3.151507,0.60623 c -1.466937,0.28168 -3.016182,-0.0386 -4.250964,-0.87858 l -1.863522,-1.26795 c -0.217253,-0.14775 -0.513013,-0.0914 -0.660765,0.12562 -0.147753,0.21719 -0.09151,0.51301 0.125621,0.66077 l 1.863586,1.26801 c 1.44303,0.98189 3.256584,1.35456 4.965567,1.02627 l 3.151633,-0.60629 c 0.257966,-0.0496 0.426836,-0.29899 0.377182,-0.55689 z m -22.845159,-3.24892 7.06505,-1.71177 c 0.121182,0.18498 0.281174,0.34351 0.473569,0.4626 l 3.577263,2.43392 c 0.214907,0.14649 0.511681,0.0933 0.660702,-0.12568 0.147752,-0.21713 0.0915,-0.51295 -0.125685,-0.6607 l -3.586585,-2.44027 c -0.134943,-0.0892 -0.233107,-0.19214 -0.27794,-0.35289 -0.02809,-0.10089 -0.03792,-0.27515 0.0792,-0.45505 0.003,-0.004 0.0065,-0.009 0.01395,-0.0181 0.245853,-0.30324 0.595576,-0.28637 0.95145,-0.16735 l 4.983514,1.49275 c 0.251686,0.0755 0.51669,-0.0674 0.592089,-0.31903 0.0754,-0.25163 -0.06741,-0.51669 -0.319032,-0.59209 l -4.956436,-1.48464 c -0.713081,-0.30336 -1.529842,-0.10907 -1.992695,0.47408 -0.19024,0.23963 -0.304763,0.53426 -0.322075,0.83395 l -7.043743,1.70663 c -0.414215,0.10495 -0.825766,-0.21256 -0.825766,-0.64326 0,-0.25175 0.139826,-0.47889 0.364562,-0.59254 l 9.523578,-4.80487 c 0.370015,-0.18694 0.802049,-0.20343 1.185509,-0.0456 l 8.042942,3.30814 c 0.231903,0.0956 0.475471,0.17172 0.723164,0.22448 0.395381,0.0841 0.835786,0.14268 1.233323,0.0824 l 2.438236,-0.41726 c 0.258914,-0.0443 0.432857,-0.29011 0.388532,-0.54903 -0.04433,-0.25891 -0.290369,-0.43279 -0.549032,-0.38853 l -2.412742,0.41289 c -0.292335,0.0168 -0.585558,-0.005 -0.871741,-0.0652 -0.204571,-0.043 -0.395445,-0.0995 -0.587651,-0.1792 l -8.042816,-3.3082 c -0.639204,-0.26329 -1.359514,-0.23552 -1.976271,0.076 l -9.523767,4.805 c -0.547066,0.27661 -0.886897,0.829 -0.886897,1.44151 0,1.03148 0.994889,1.82509 2.004236,1.56693 z m 2.611607,13.57391 c -0.141348,0.22138 -0.07635,0.51548 0.14509,0.65671 1.153358,0.73591 2.489219,1.12494 3.863255,1.12494 3.964844,0 7.190545,-3.22563 7.190545,-7.19054 0,-3.96491 -3.225637,-7.19054 -7.190545,-7.19054 -3.964907,0 -7.190544,3.22563 -7.190544,7.19054 0,1.74469 0.632674,3.42729 1.781466,4.73779 0.173182,0.19746 0.473697,0.21731 0.671165,0.0441 0.197532,-0.17312 0.217253,-0.47364 0.04413,-0.67111 -0.996665,-1.13706 -1.545569,-2.59696 -1.545569,-4.11082 0,-3.44035 2.798929,-6.23934 6.239347,-6.23934 3.440417,0 6.239347,2.79893 6.239347,6.23934 0,3.44035 -2.79893,6.23935 -6.239347,6.23935 -1.192421,0 -2.351423,-0.33736 -3.351575,-0.97561 -0.221566,-0.14135 -0.515486,-0.0763 -0.656771,0.14515 z m 10.628298,2.75631 -7.065049,1.71184 c -0.121182,-0.18497 -0.281174,-0.34357 -0.473569,-0.46266 l -6.812032,-4.63487 c -1.442395,-0.98132 -3.252207,-1.35545 -4.965567,-1.02633 l -3.151634,0.60629 c -0.257964,0.0496 -0.426833,0.29899 -0.377245,0.55689 0.04965,0.25784 0.298739,0.42658 0.556894,0.37718 l 3.151508,-0.60629 c 1.466746,-0.28175 3.01612,0.0385 4.251028,0.87865 0.0123,0.008 6.829089,4.6466 6.842025,4.65446 0.252384,0.15346 0.394176,0.48663 0.186879,0.78157 -0.228098,0.32448 -0.62519,0.31757 -0.974217,0.19842 l -2.945604,-0.88202 c -0.679726,-0.20355 -1.358817,-0.40711 -2.037908,-0.61066 -0.25156,-0.0755 -0.516691,0.0673 -0.592152,0.3189 -0.0754,0.25162 0.06741,0.51669 0.318968,0.59216 0.679218,0.20368 1.358373,0.40723 2.038352,0.61085 l 2.918146,0.87377 c 0.692662,0.29633 1.512658,0.11636 1.992949,-0.47426 0.193537,-0.23799 0.304637,-0.53249 0.321822,-0.83364 l 7.04387,-1.70663 c 0.409585,-0.10507 0.825702,0.2092 0.825702,0.64326 0,0.25182 -0.139826,0.4789 -0.364562,0.59254 l -9.523577,4.80493 c -0.36989,0.18689 -0.80205,0.20362 -1.185573,0.0456 l -8.043007,-3.30807 c -0.2326,-0.0959 -0.478135,-0.15771 -0.723164,-0.22455 -0.374835,-0.10222 -0.844283,-0.14084 -1.233322,-0.0823 l -2.438235,0.41719 c -0.258917,0.0443 -0.43286,0.29005 -0.388532,0.54897 0.04426,0.25891 0.289923,0.43286 0.54903,0.38859 l 2.412743,-0.41288 c 0.304828,-0.0174 0.605025,0.007 0.903955,0.0715 0.190493,0.0414 0.377244,0.0995 0.555372,0.173 l 8.043135,3.30813 c 0.638253,0.26292 1.358816,0.2359 1.97627,-0.076 l 9.523768,-4.80504 c 0.547065,-0.27667 0.886895,-0.82901 0.886895,-1.44157 -1.24e-4,-1.04943 -1.001863,-1.82262 -2.004362,-1.56695 z"
       inkscape:connector-curvature="0"
       style="fill:#ff4f4f;fill-opacity:1;stroke-width:0.06341316" />
  </g>
</svg>
