<?xml version="1.0" encoding="UTF-8" standalone="no"?>
<!-- Created with Inkscape (http://www.inkscape.org/) -->

<svg
   xmlns:dc="http://purl.org/dc/elements/1.1/"
   xmlns:cc="http://creativecommons.org/ns#"
   xmlns:rdf="http://www.w3.org/1999/02/22-rdf-syntax-ns#"
   xmlns:svg="http://www.w3.org/2000/svg"
   xmlns="http://www.w3.org/2000/svg"
   xmlns:sodipodi="http://sodipodi.sourceforge.net/DTD/sodipodi-0.dtd"
   xmlns:inkscape="http://www.inkscape.org/namespaces/inkscape"
   width="59mm"
   height="84.286003mm"
   viewBox="0 0 59 84.286003"
   version="1.1"
   id="svg8"
   inkscape:version="0.92.2 (5c3e80d, 2017-08-06)"
   sodipodi:docname="c08_multi usability_en.svg"
   inkscape:export-filename="C:\Users\ioarvanit\Desktop\New Design Cards\Προτάσεις\Transfer.png"
   inkscape:export-xdpi="90"
   inkscape:export-ydpi="90">
  <defs
     id="defs2" />
  <sodipodi:namedview
     id="base"
     pagecolor="#ffffff"
     bordercolor="#666666"
     borderopacity="1.0"
     inkscape:pageopacity="0.0"
     inkscape:pageshadow="2"
     inkscape:zoom="1.4"
     inkscape:cx="224.23784"
     inkscape:cy="175.11647"
     inkscape:document-units="mm"
     inkscape:current-layer="layer1"
     showgrid="false"
     inkscape:window-width="1920"
     inkscape:window-height="1017"
     inkscape:window-x="-8"
     inkscape:window-y="-8"
     inkscape:window-maximized="1" />
  <metadata
     id="metadata5">
    <rdf:RDF>
      <cc:Work
         rdf:about="">
        <dc:format>image/svg+xml</dc:format>
        <dc:type
           rdf:resource="http://purl.org/dc/dcmitype/StillImage" />
        <dc:title></dc:title>
      </cc:Work>
    </rdf:RDF>
  </metadata>
  <g
     inkscape:label="Layer 1"
     inkscape:groupmode="layer"
     id="layer1"
     transform="translate(0,-212.714)">
    <rect
       style="opacity:1;fill:#ff4f4f;fill-opacity:1;stroke:none;stroke-width:1.72474813;stroke-linecap:round;stroke-miterlimit:4;stroke-dasharray:none;stroke-dashoffset:0;stroke-opacity:1"
       id="rect826"
       width="59"
       height="84.285713"
       x="0"
       y="212.71428" />
    <rect
       style="opacity:1;fill:#ffffff;fill-opacity:1;stroke:none;stroke-width:1.7365911;stroke-linecap:round;stroke-miterlimit:4;stroke-dasharray:none;stroke-dashoffset:0;stroke-opacity:1"
       id="rect828"
       width="50.57143"
       height="75.85714"
       x="4.2142859"
       y="216.92857"
       ry="4.2515807" />
    <text
       xml:space="preserve"
       style="font-style:normal;font-weight:normal;font-size:5.43015099px;line-height:1.25;font-family:sans-serif;letter-spacing:0px;word-spacing:0px;fill:#ff4f4f;fill-opacity:1;stroke:none;stroke-width:0.13575378"
       x="7.0041804"
       y="257.48428"
       id="text832"><tspan
         sodipodi:role="line"
         id="tspan830"
         x="7.0041804"
         y="257.48428"
         style="font-style:normal;font-variant:normal;font-weight:bold;font-stretch:normal;font-family:'DejaVu Serif';-inkscape-font-specification:'DejaVu Serif Bold';fill:#ff4f4f;fill-opacity:1;stroke-width:0.13575378">Multi-usability</tspan></text>
    <text
       xml:space="preserve"
       style="font-style:normal;font-weight:normal;font-size:2.97341251px;line-height:1.25;font-family:sans-serif;letter-spacing:0px;word-spacing:0px;fill:#ff7a69;fill-opacity:1;stroke:none;stroke-width:0.22300594"
       x="29.634298"
       y="262.07123"
       id="text890"><tspan
         sodipodi:role="line"
         x="29.634298"
         y="262.07123"
         style="text-align:center;text-anchor:middle;fill:#ff7a69;fill-opacity:1;stroke-width:0.22300594"
         id="tspan868">Create products that have</tspan><tspan
         sodipodi:role="line"
         x="30.107605"
         y="265.78799"
         style="text-align:center;text-anchor:middle;fill:#ff7a69;fill-opacity:1;stroke-width:0.22300594"
         id="tspan890">multiple functions and serve </tspan><tspan
         sodipodi:role="line"
         x="29.634298"
         y="269.50476"
         style="text-align:center;text-anchor:middle;fill:#ff7a69;fill-opacity:1;stroke-width:0.22300594"
         id="tspan912">multiple users and purposes</tspan></text>
    <text
       xml:space="preserve"
       style="font-style:normal;font-weight:normal;font-size:4.00764322px;line-height:1.25;font-family:sans-serif;letter-spacing:0px;word-spacing:0px;fill:#ff4f4f;fill-opacity:1;stroke:none;stroke-width:0.30057323"
       x="15.943277"
       y="288.31839"
       id="text844"><tspan
         id="tspan842"
         sodipodi:role="line"
         x="15.943277"
         y="288.31839"
         style="fill:#ff4f4f;fill-opacity:1;stroke-width:0.30057323">Sustainability</tspan></text>
    <text
       id="text974"
       y="288.31839"
       x="45.380066"
       style="font-style:normal;font-weight:normal;font-size:4.00764322px;line-height:1.25;font-family:sans-serif;letter-spacing:0px;word-spacing:0px;fill:#ff4f4f;fill-opacity:1;stroke:none;stroke-width:0.30057323"
       xml:space="preserve"><tspan
         style="fill:#ff4f4f;fill-opacity:1;stroke-width:0.30057323"
         y="288.31839"
         x="45.380066"
         sodipodi:role="line"
         id="tspan972">C-8</tspan></text>
    <g
       data-name="35-bulb"
       id="_35-bulb"
       transform="matrix(0.01077781,0,0,0.01077781,7.413814,284.11211)"
       style="fill:#ff4f4f;fill-opacity:1">
      <g
         data-name="linear color"
         id="linear_color"
         style="fill:#ff4f4f;fill-opacity:1">
        <path
           id="path903"
           d="m 356.757,392.438 c -3.906,-1.23 -38.856,-11.7 -62.392,-0.552 -26.913,12.742 -25.573,45.451 -25.5,46.838 a 12,12 0 0 0 3.916,8.276 c 0.8,0.724 15.649,13.95 34.816,13.95 a 40.658,40.658 0 0 0 17.577,-3.99 c 23.539,-11.144 37.592,-44.808 39.117,-48.61 a 12,12 0 0 0 -7.534,-15.913 z M 314.9,435.27 c -8.088,3.827 -16.712,0.068 -21.713,-2.994 0.8,-5.831 3.364,-14.873 11.444,-18.7 8.028,-3.8 20.761,-3.055 30.982,-1.391 -5.188,8.963 -12.68,19.284 -20.713,23.085 z"
           inkscape:connector-curvature="0"
           style="fill:#ff4f4f;fill-opacity:1" />
        <path
           id="path905"
           d="m 217.635,391.886 c -23.539,-11.145 -58.485,-0.679 -62.392,0.552 a 12,12 0 0 0 -7.534,15.913 c 1.525,3.8 15.578,37.466 39.117,48.61 a 40.661,40.661 0 0 0 17.577,3.99 c 19.165,0 34.02,-13.227 34.816,-13.95 a 12,12 0 0 0 3.919,-8.277 c 0.07,-1.387 1.41,-34.096 -25.503,-46.838 z M 197.1,435.27 c -8.035,-3.805 -15.535,-14.141 -20.726,-23.1 10.2,-1.67 22.914,-2.413 31,1.412 8.086,3.825 10.646,12.884 11.447,18.693 -5.029,3.07 -13.643,6.825 -21.721,2.995 z"
           inkscape:connector-curvature="0"
           style="fill:#ff4f4f;fill-opacity:1" />
        <path
           id="path907"
           d="m 288,364 a 76.087,76.087 0 0 0 76,-76 V 232 A 12,12 0 0 0 352,220 H 340 V 88 a 36,36 0 0 0 -72,0 V 220 H 244 V 88 a 36,36 0 0 0 -72,0 v 132 h -12 a 12,12 0 0 0 -12,12 v 56 a 76.087,76.087 0 0 0 76,76 h 20 v 132 a 12,12 0 0 0 24,0 V 364 Z m 4,-276 a 12,12 0 0 1 24,0 v 132 h -24 z m -96,0 a 12,12 0 0 1 24,0 v 132 h -24 z m -24,200 v -44 h 168 v 44 a 52.059,52.059 0 0 1 -52,52 h -64 a 52.059,52.059 0 0 1 -52,-52 z"
           inkscape:connector-curvature="0"
           style="fill:#ff4f4f;fill-opacity:1" />
        <path
           id="path909"
           d="m 480,196 h -16 a 12,12 0 0 0 0,24 h 16 a 12,12 0 0 0 0,-24 z"
           inkscape:connector-curvature="0"
           style="fill:#ff4f4f;fill-opacity:1" />
        <path
           id="path911"
           d="m 436.144,116 a 11.956,11.956 0 0 0 5.989,-1.609 l 13.856,-8 a 12.000602,12.000602 0 1 0 -12,-20.786 l -13.856,8 A 12,12 0 0 0 436.144,116 Z"
           inkscape:connector-curvature="0"
           style="fill:#ff4f4f;fill-opacity:1" />
        <path
           id="path913"
           d="m 374,3.618 a 12,12 0 0 0 -16.393,4.393 l -8,13.856 a 12.000602,12.000602 0 1 0 20.786,12 l 8,-13.856 A 12,12 0 0 0 374,3.618 Z"
           inkscape:connector-curvature="0"
           style="fill:#ff4f4f;fill-opacity:1" />
        <path
           id="path915"
           d="m 455.989,309.607 -13.856,-8 a 12.000602,12.000602 0 1 0 -12,20.786 l 13.856,8 a 12.000602,12.000602 0 0 0 12,-20.786 z"
           inkscape:connector-curvature="0"
           style="fill:#ff4f4f;fill-opacity:1" />
        <path
           id="path917"
           d="M 60,208 A 12,12 0 0 0 48,196 H 32 a 12,12 0 0 0 0,24 h 16 a 12,12 0 0 0 12,-12 z"
           inkscape:connector-curvature="0"
           style="fill:#ff4f4f;fill-opacity:1" />
        <path
           id="path919"
           d="m 81.867,93.607 -13.856,-8 a 12.000602,12.000602 0 0 0 -12,20.786 l 13.856,8 a 12.000602,12.000602 0 1 0 12,-20.786 z"
           inkscape:connector-curvature="0"
           style="fill:#ff4f4f;fill-opacity:1" />
        <path
           id="path921"
           d="m 158,38.26 a 12,12 0 0 0 4.393,-16.393 l -8,-13.856 a 12.000602,12.000602 0 0 0 -20.786,12 l 8,13.856 A 12,12 0 0 0 158,38.26 Z"
           inkscape:connector-curvature="0"
           style="fill:#ff4f4f;fill-opacity:1" />
        <path
           id="path923"
           d="m 69.867,301.607 -13.856,8 a 12.000602,12.000602 0 1 0 12,20.786 l 13.856,-8 a 12.000602,12.000602 0 0 0 -12,-20.786 z"
           inkscape:connector-curvature="0"
           style="fill:#ff4f4f;fill-opacity:1" />
      </g>
    </g>
    <g
       transform="matrix(0.50960012,0,0,0.50960012,13.405007,220.61685)"
       id="013---Pocket-Knife"
       style="fill:#ff4f4f;fill-opacity:1">
      <path
         d="m 31,5 c -3.313709,0 -6,2.6862915 -6,6 0,3.313709 2.686291,6 6,6 3.313709,0 6,-2.686291 6,-6 0,-3.3137085 -2.686292,-6 -6,-6 z m 0,10 c -2.209139,0 -4,-1.790861 -4,-4 0,-2.209139 1.790861,-4 4,-4 2.209139,0 4,1.790861 4,4 0,1.060866 -0.421427,2.078282 -1.171573,2.828427 C 33.078282,14.578573 32.060866,15 31,15 Z"
         id="Shape"
         inkscape:connector-curvature="0"
         style="fill:#ff4f4f;fill-opacity:1" />
      <path
         d="m 35,46 h -1 v -1 c 0,-1.104569 -0.895431,-2 -2,-2 h -2 c -1.10457,0 -2,0.895431 -2,2 v 1 h -1 c -1.10457,0 -2,0.895431 -2,2 v 2 c 0,1.104569 0.89543,2 2,2 h 1 v 1 c 0,1.104569 0.89543,2 2,2 h 2 c 1.104569,0 2,-0.895431 2,-2 v -1 h 1 c 1.104569,0 2,-0.895431 2,-2 v -2 c 0,-1.104569 -0.895431,-2 -2,-2 z m 0,4 h -2 c -0.552285,0 -1,0.447715 -1,1 v 2 h -2 v -2 c 0,-0.552285 -0.447715,-1 -1,-1 h -2 v -2 h 2 c 0.552285,0 1,-0.447715 1,-1 v -2 h 2 v 2 c 0,0.552285 0.447715,1 1,1 h 2 z"
         id="path858"
         inkscape:connector-curvature="0"
         style="fill:#ff4f4f;fill-opacity:1" />
      <path
         d="m 58,14 c 1,0 1.45,-0.63 2.4,-1.58 0.378625,-0.375533 0.591597,-0.886725 0.591597,-1.42 0,-0.533275 -0.212972,-1.0444668 -0.591597,-1.42 l -1,-1 C 59.027479,8.2105117 58.52468,8.0022092 58,8 H 40.54 C 39.059672,3.2895198 34.362894,0.36458352 29.482469,1.1138811 24.602044,1.8631787 20.999045,6.0623899 21,11 v 19.28 l -0.95,-1 -0.22,-1.92 C 19.724329,26.435275 18.994725,25.705671 18.07,25.6 L 16.6,25.43 16.43,24 C 16.324329,23.075275 15.594725,22.345671 14.67,22.24 L 13.2,22.07 13,20.62 C 12.896894,19.684745 12.155821,18.947835 11.22,18.85 L 9.77,18.69 9.61,17.24 C 9.5086755,16.311381 8.7780299,15.576584 7.85,15.47 L 6.42,15.3 6.32,14.3 C 6.1860887,13.325642 5.5273573,12.503795 4.6055198,12.16098 3.6836822,11.818165 2.6480194,12.009897 1.91,12.66 1.3506515,13.139667 1.0201192,13.833422 1,14.57 0.90358723,18.30987 1.789735,22.009623 3.57,25.3 6.23,30.18 5.64,29.05 21,44.41 V 45 h -7 c -1.104569,0 -2,0.895431 -2,2 H 8 C 8,45.895431 7.1045695,45 6,45 H 3 c -1.1045695,0 -2,0.895431 -2,2 0,3.313708 2.6862915,6 6,6 h 14.2 c 1.022343,5.034785 5.693469,8.475737 10.804992,7.959422 C 37.116515,60.443106 41.005163,56.137531 41,51 V 31.07 l 6.36,6.37 c 2.714849,2.710307 5.940455,4.855045 9.49,6.31 1.114385,0.446062 2.387384,0.184927 3.236156,-0.663844 C 60.934927,42.237384 61.196062,40.964385 60.75,39.85 59.295045,36.300455 57.150307,33.074849 54.44,30.36 L 41,16.93 V 14 Z m 0,-4 1,1 -1,1 H 41 c 0.03414,-0.66623 0.03414,-1.33377 0,-2 z M 5.33,24.35 C 3.712439,21.367523 2.9088253,18.01166 3,14.62 c 0.041269,-0.33591 0.3265648,-0.588299 0.665,-0.588299 0.3384352,0 0.6237308,0.252389 0.665,0.588299 l 0.1,0.94 c 0.123727,0.912419 0.8544115,1.622462 1.77,1.72 l 1.47,0.18 0.16,1.45 c 0.1031058,0.935255 0.844179,1.672165 1.78,1.77 l 1.45,0.16 0.16,1.46 c 0.103106,0.935255 0.844179,1.672165 1.78,1.77 l 1.47,0.16 0.17,1.49 c 0.114276,0.916931 0.841823,1.636211 1.76,1.74 l 1.47,0.17 0.26,2.27 c 0.05,0.48 0.07,0.38 2.89,3.2 v 8.49 C 7.08,27.66 7.73,28.77 5.33,24.35 Z M 7,51 C 4.790861,51 3,49.209139 3,47 h 3 c 0,1.104569 0.8954305,2 2,2 h 4 c 1.104569,0 2,-0.895431 2,-2 h 7 v 4 z m 32,0 c 0,4.418278 -3.581722,8 -8,8 -4.418278,0 -8,-3.581722 -8,-8 V 11 c 0,-4.418278 3.581722,-8 8,-8 4.418278,0 8,3.581722 8,8 z M 53,31.78 c 2.466786,2.462115 4.42707,5.383856 5.77,8.6 l -15,-15 C 43.52561,25.094624 43.141882,24.970318 42.776581,25.05819 42.41128,25.14606 42.126062,25.431281 42.03819,25.796581 41.95032,26.161882 42.07462,26.54561 42.36,26.79 l 15,15 C 54.149942,40.437702 51.235263,38.470804 48.78,36 L 41,28.25 v -8.5 z"
         id="path860"
         inkscape:connector-curvature="0"
         style="fill:#ff4f4f;fill-opacity:1" />
      <path
         d="m 26,22 c 0.552285,0 1,-0.447715 1,-1 v -2 c 0,-0.552285 -0.447715,-1 -1,-1 -0.552285,0 -1,0.447715 -1,1 v 2 c 0,0.552285 0.447715,1 1,1 z"
         id="path862"
         inkscape:connector-curvature="0"
         style="fill:#ff4f4f;fill-opacity:1" />
      <path
         d="m 26,42 c 0.552285,0 1,-0.447715 1,-1 V 25 c 0,-0.552285 -0.447715,-1 -1,-1 -0.552285,0 -1,0.447715 -1,1 v 16 c 0,0.552285 0.447715,1 1,1 z"
         id="path864"
         inkscape:connector-curvature="0"
         style="fill:#ff4f4f;fill-opacity:1" />
    </g>
  </g>
</svg>
