<?xml version="1.0" encoding="UTF-8" standalone="no"?>
<!-- Created with Inkscape (http://www.inkscape.org/) -->

<svg
   xmlns:dc="http://purl.org/dc/elements/1.1/"
   xmlns:cc="http://creativecommons.org/ns#"
   xmlns:rdf="http://www.w3.org/1999/02/22-rdf-syntax-ns#"
   xmlns:svg="http://www.w3.org/2000/svg"
   xmlns="http://www.w3.org/2000/svg"
   xmlns:sodipodi="http://sodipodi.sourceforge.net/DTD/sodipodi-0.dtd"
   xmlns:inkscape="http://www.inkscape.org/namespaces/inkscape"
   width="59mm"
   height="84.286003mm"
   viewBox="0 0 59 84.286003"
   version="1.1"
   id="svg8"
   inkscape:version="0.92.2 (5c3e80d, 2017-08-06)"
   sodipodi:docname="c09_eco footprint_el.svg"
   inkscape:export-filename="C:\Users\ioarvanit\Desktop\New Design Cards\Προτάσεις\Transfer.png"
   inkscape:export-xdpi="90"
   inkscape:export-ydpi="90">
  <defs
     id="defs2" />
  <sodipodi:namedview
     id="base"
     pagecolor="#ffffff"
     bordercolor="#666666"
     borderopacity="1.0"
     inkscape:pageopacity="0.0"
     inkscape:pageshadow="2"
     inkscape:zoom="1.4"
     inkscape:cx="68.166411"
     inkscape:cy="175.11647"
     inkscape:document-units="mm"
     inkscape:current-layer="layer1"
     showgrid="false"
     inkscape:window-width="1920"
     inkscape:window-height="1017"
     inkscape:window-x="-8"
     inkscape:window-y="-8"
     inkscape:window-maximized="1" />
  <metadata
     id="metadata5">
    <rdf:RDF>
      <cc:Work
         rdf:about="">
        <dc:format>image/svg+xml</dc:format>
        <dc:type
           rdf:resource="http://purl.org/dc/dcmitype/StillImage" />
        <dc:title />
      </cc:Work>
    </rdf:RDF>
  </metadata>
  <g
     inkscape:label="Layer 1"
     inkscape:groupmode="layer"
     id="layer1"
     transform="translate(0,-212.714)">
    <rect
       style="opacity:1;fill:#ff4f4f;fill-opacity:1;stroke:none;stroke-width:1.72474813;stroke-linecap:round;stroke-miterlimit:4;stroke-dasharray:none;stroke-dashoffset:0;stroke-opacity:1"
       id="rect826"
       width="59"
       height="84.285713"
       x="0"
       y="212.71428" />
    <rect
       style="opacity:1;fill:#ffffff;fill-opacity:1;stroke:none;stroke-width:1.7365911;stroke-linecap:round;stroke-miterlimit:4;stroke-dasharray:none;stroke-dashoffset:0;stroke-opacity:1"
       id="rect828"
       width="50.57143"
       height="75.85714"
       x="4.2142859"
       y="216.92857"
       ry="4.2515807" />
    <text
       xml:space="preserve"
       style="font-style:normal;font-weight:normal;font-size:3.24282527px;line-height:1.25;font-family:sans-serif;letter-spacing:0px;word-spacing:0px;fill:#ff4f4f;fill-opacity:1;stroke:none;stroke-width:0.08107064"
       x="7.131947"
       y="257.20444"
       id="text832"><tspan
         sodipodi:role="line"
         id="tspan830"
         x="7.131947"
         y="257.20444"
         style="font-style:normal;font-variant:normal;font-weight:bold;font-stretch:normal;font-family:'DejaVu Serif';-inkscape-font-specification:'DejaVu Serif Bold';fill:#ff4f4f;fill-opacity:1;stroke-width:0.08107064">Οικολογικό αποτύπωμα</tspan></text>
    <text
       xml:space="preserve"
       style="font-style:normal;font-weight:normal;font-size:2.97341251px;line-height:1.25;font-family:sans-serif;letter-spacing:0px;word-spacing:0px;fill:#ff7a69;fill-opacity:1;stroke:none;stroke-width:0.22300594"
       x="29.634298"
       y="262.07123"
       id="text890"><tspan
         sodipodi:role="line"
         x="30.107605"
         y="262.07123"
         style="text-align:center;text-anchor:middle;fill:#ff7a69;fill-opacity:1;stroke-width:0.22300594"
         id="tspan912">Να έχει μικρές επιδράσεις πάνω </tspan><tspan
         sodipodi:role="line"
         x="29.634298"
         y="265.78799"
         style="text-align:center;text-anchor:middle;fill:#ff7a69;fill-opacity:1;stroke-width:0.22300594"
         id="tspan1100">στη γη (κατανάλωση πόρων,</tspan><tspan
         sodipodi:role="line"
         x="30.107605"
         y="269.50476"
         style="text-align:center;text-anchor:middle;fill:#ff7a69;fill-opacity:1;stroke-width:0.22300594"
         id="tspan1102">καταστροφή φυσικού </tspan><tspan
         sodipodi:role="line"
         x="29.634298"
         y="273.22153"
         style="text-align:center;text-anchor:middle;fill:#ff7a69;fill-opacity:1;stroke-width:0.22300594"
         id="tspan1110">περιβάλλοντος</tspan><tspan
         sodipodi:role="line"
         x="29.634298"
         y="276.93829"
         style="text-align:center;text-anchor:middle;fill:#ff7a69;fill-opacity:1;stroke-width:0.22300594"
         id="tspan1104">κτλ.)</tspan></text>
    <text
       xml:space="preserve"
       style="font-style:normal;font-weight:normal;font-size:4.00764322px;line-height:1.25;font-family:sans-serif;letter-spacing:0px;word-spacing:0px;fill:#ff4f4f;fill-opacity:1;stroke:none;stroke-width:0.30057323"
       x="15.943277"
       y="288.31839"
       id="text844"><tspan
         id="tspan842"
         sodipodi:role="line"
         x="15.943277"
         y="288.31839"
         style="fill:#ff4f4f;fill-opacity:1;stroke-width:0.30057323">Αειφορία</tspan></text>
    <text
       id="text974"
       y="288.31839"
       x="45.380066"
       style="font-style:normal;font-weight:normal;font-size:4.00764322px;line-height:1.25;font-family:sans-serif;letter-spacing:0px;word-spacing:0px;fill:#ff4f4f;fill-opacity:1;stroke:none;stroke-width:0.30057323"
       xml:space="preserve"><tspan
         style="fill:#ff4f4f;fill-opacity:1;stroke-width:0.30057323"
         y="288.31839"
         x="45.380066"
         sodipodi:role="line"
         id="tspan972">Γ-9</tspan></text>
    <g
       data-name="35-bulb"
       id="_35-bulb"
       transform="matrix(0.01077781,0,0,0.01077781,7.413814,284.11211)"
       style="fill:#ff4f4f;fill-opacity:1">
      <g
         data-name="linear color"
         id="linear_color"
         style="fill:#ff4f4f;fill-opacity:1">
        <path
           id="path903"
           d="m 356.757,392.438 c -3.906,-1.23 -38.856,-11.7 -62.392,-0.552 -26.913,12.742 -25.573,45.451 -25.5,46.838 a 12,12 0 0 0 3.916,8.276 c 0.8,0.724 15.649,13.95 34.816,13.95 a 40.658,40.658 0 0 0 17.577,-3.99 c 23.539,-11.144 37.592,-44.808 39.117,-48.61 a 12,12 0 0 0 -7.534,-15.913 z M 314.9,435.27 c -8.088,3.827 -16.712,0.068 -21.713,-2.994 0.8,-5.831 3.364,-14.873 11.444,-18.7 8.028,-3.8 20.761,-3.055 30.982,-1.391 -5.188,8.963 -12.68,19.284 -20.713,23.085 z"
           inkscape:connector-curvature="0"
           style="fill:#ff4f4f;fill-opacity:1" />
        <path
           id="path905"
           d="m 217.635,391.886 c -23.539,-11.145 -58.485,-0.679 -62.392,0.552 a 12,12 0 0 0 -7.534,15.913 c 1.525,3.8 15.578,37.466 39.117,48.61 a 40.661,40.661 0 0 0 17.577,3.99 c 19.165,0 34.02,-13.227 34.816,-13.95 a 12,12 0 0 0 3.919,-8.277 c 0.07,-1.387 1.41,-34.096 -25.503,-46.838 z M 197.1,435.27 c -8.035,-3.805 -15.535,-14.141 -20.726,-23.1 10.2,-1.67 22.914,-2.413 31,1.412 8.086,3.825 10.646,12.884 11.447,18.693 -5.029,3.07 -13.643,6.825 -21.721,2.995 z"
           inkscape:connector-curvature="0"
           style="fill:#ff4f4f;fill-opacity:1" />
        <path
           id="path907"
           d="m 288,364 a 76.087,76.087 0 0 0 76,-76 V 232 A 12,12 0 0 0 352,220 H 340 V 88 a 36,36 0 0 0 -72,0 V 220 H 244 V 88 a 36,36 0 0 0 -72,0 v 132 h -12 a 12,12 0 0 0 -12,12 v 56 a 76.087,76.087 0 0 0 76,76 h 20 v 132 a 12,12 0 0 0 24,0 V 364 Z m 4,-276 a 12,12 0 0 1 24,0 v 132 h -24 z m -96,0 a 12,12 0 0 1 24,0 v 132 h -24 z m -24,200 v -44 h 168 v 44 a 52.059,52.059 0 0 1 -52,52 h -64 a 52.059,52.059 0 0 1 -52,-52 z"
           inkscape:connector-curvature="0"
           style="fill:#ff4f4f;fill-opacity:1" />
        <path
           id="path909"
           d="m 480,196 h -16 a 12,12 0 0 0 0,24 h 16 a 12,12 0 0 0 0,-24 z"
           inkscape:connector-curvature="0"
           style="fill:#ff4f4f;fill-opacity:1" />
        <path
           id="path911"
           d="m 436.144,116 a 11.956,11.956 0 0 0 5.989,-1.609 l 13.856,-8 a 12.000602,12.000602 0 1 0 -12,-20.786 l -13.856,8 A 12,12 0 0 0 436.144,116 Z"
           inkscape:connector-curvature="0"
           style="fill:#ff4f4f;fill-opacity:1" />
        <path
           id="path913"
           d="m 374,3.618 a 12,12 0 0 0 -16.393,4.393 l -8,13.856 a 12.000602,12.000602 0 1 0 20.786,12 l 8,-13.856 A 12,12 0 0 0 374,3.618 Z"
           inkscape:connector-curvature="0"
           style="fill:#ff4f4f;fill-opacity:1" />
        <path
           id="path915"
           d="m 455.989,309.607 -13.856,-8 a 12.000602,12.000602 0 1 0 -12,20.786 l 13.856,8 a 12.000602,12.000602 0 0 0 12,-20.786 z"
           inkscape:connector-curvature="0"
           style="fill:#ff4f4f;fill-opacity:1" />
        <path
           id="path917"
           d="M 60,208 A 12,12 0 0 0 48,196 H 32 a 12,12 0 0 0 0,24 h 16 a 12,12 0 0 0 12,-12 z"
           inkscape:connector-curvature="0"
           style="fill:#ff4f4f;fill-opacity:1" />
        <path
           id="path919"
           d="m 81.867,93.607 -13.856,-8 a 12.000602,12.000602 0 0 0 -12,20.786 l 13.856,8 a 12.000602,12.000602 0 1 0 12,-20.786 z"
           inkscape:connector-curvature="0"
           style="fill:#ff4f4f;fill-opacity:1" />
        <path
           id="path921"
           d="m 158,38.26 a 12,12 0 0 0 4.393,-16.393 l -8,-13.856 a 12.000602,12.000602 0 0 0 -20.786,12 l 8,13.856 A 12,12 0 0 0 158,38.26 Z"
           inkscape:connector-curvature="0"
           style="fill:#ff4f4f;fill-opacity:1" />
        <path
           id="path923"
           d="m 69.867,301.607 -13.856,8 a 12.000602,12.000602 0 1 0 12,20.786 l 13.856,-8 a 12.000602,12.000602 0 0 0 -12,-20.786 z"
           inkscape:connector-curvature="0"
           style="fill:#ff4f4f;fill-opacity:1" />
      </g>
    </g>
    <g
       id="g1084"
       transform="matrix(0.05566371,0,0,0.05566371,15.250061,222.27389)"
       style="fill:#ff4f4f;fill-opacity:1">
      <g
         id="g946"
         style="fill:#ff4f4f;fill-opacity:1">
        <g
           id="g944"
           style="fill:#ff4f4f;fill-opacity:1">
          <path
             id="path942"
             d="m 504.694,222.444 -0.078,-0.273 c -0.802,-3.318 -3.262,-6.042 -6.57,-7.139 -1.228,-0.408 -30.559,-9.95 -72.438,-7.011 -38.553,2.704 -95.542,16.96 -148.108,69.525 -52.565,52.566 -66.82,109.554 -69.522,148.105 -2.936,41.88 6.606,71.208 7.014,72.436 0.994,2.996 3.345,5.346 6.34,6.34 1.065,0.354 23.253,7.574 56.434,7.574 5.087,0 10.435,-0.17 16.002,-0.56 38.551,-2.703 95.539,-16.958 148.105,-69.522 93.008,-93.01 68.649,-199.144 62.821,-219.475 z m -102.697,8.8 c 7.905,-1.526 15.956,-2.602 24.153,-3.211 20.256,-1.504 37.415,0.252 49.1,2.242 -0.499,0.343 -0.977,0.729 -1.42,1.172 l -71.833,71.833 z m -20,4.938 v 87.098 l -67.029,67.029 V 272.108 c 0,-0.327 -0.018,-0.649 -0.049,-0.968 20.743,-16.059 43.157,-27.736 67.078,-34.958 z M 227.928,427.049 c 3.584,-51.126 25.02,-96.668 63.714,-135.361 1.103,-1.102 2.212,-2.187 3.326,-3.262 v 121.438 c 0,0.143 0.015,0.281 0.021,0.422 L 230.175,475.1 c -1.945,-11.471 -3.639,-28.186 -2.247,-48.051 z m 65.297,64.379 c -20.131,1.494 -37.205,-0.232 -48.886,-2.208 l 31.238,-31.238 c 0.034,0 0.066,0.005 0.1,0.005 h 115.294 c -29.608,19.589 -62.329,30.811 -97.746,33.441 z m 134.506,-63.653 c -3.55,3.55 -7.16,6.953 -10.825,10.213 H 295.572 l 58.04,-58.04 h 111.123 c -9.192,15.95 -21.258,32.081 -37.004,47.827 z m 47.146,-67.827 H 373.611 l 114.36,-114.36 c 0.427,-0.427 0.798,-0.887 1.131,-1.365 4.148,24.127 6.768,67.988 -14.225,115.725 z"
             inkscape:connector-curvature="0"
             style="fill:#ff4f4f;fill-opacity:1" />
        </g>
      </g>
      <g
         id="g952"
         style="fill:#ff4f4f;fill-opacity:1">
        <g
           id="g950"
           style="fill:#ff4f4f;fill-opacity:1">
          <path
             id="path948"
             d="M 234.501,277.544 C 181.935,224.979 124.946,210.723 86.393,208.019 c -41.877,-2.937 -71.21,6.604 -72.438,7.011 -3.308,1.098 -5.768,3.822 -6.57,7.14 l -0.078,0.273 c -5.828,20.332 -30.187,126.466 62.822,219.475 29.508,29.508 63.305,50.019 100.45,60.961 0.943,0.278 1.895,0.41 2.831,0.41 4.32,0 8.305,-2.822 9.588,-7.176 1.561,-5.298 -1.469,-10.858 -6.766,-12.418 C 142.33,473.707 111.39,454.893 84.272,427.776 60.635,404.139 45.268,379.636 35.513,356.177 h 99.106 l 48.266,48.266 c 1.953,1.953 4.512,2.929 7.071,2.929 2.559,0 5.119,-0.976 7.071,-2.929 3.905,-3.905 3.905,-10.237 0,-14.143 L 186.002,379.277 V 263.074 c 11.978,8.156 23.44,17.698 34.356,28.613 3.905,3.905 10.237,3.905 14.143,0 3.906,-3.905 3.905,-10.237 0,-14.143 z M 84.994,227.971 c 4.379,0.307 8.715,0.755 13.011,1.324 V 291.28 L 37.599,230.874 c -0.23,-0.23 -0.471,-0.445 -0.717,-0.648 11.474,-1.949 28.215,-3.652 48.112,-2.255 z M 28.412,336.178 v -10e-4 C 17.095,298.055 19.44,264.44 22.873,244.371 c 0.185,0.22 0.376,0.438 0.583,0.646 l 91.161,91.162 H 28.412 Z m 137.591,23.1 -47.999,-47.999 v -78.332 c 16.71,3.931 32.726,9.957 47.999,18.052 z"
             inkscape:connector-curvature="0"
             style="fill:#ff4f4f;fill-opacity:1" />
        </g>
      </g>
      <g
         id="g958"
         style="fill:#ff4f4f;fill-opacity:1">
        <g
           id="g956"
           style="fill:#ff4f4f;fill-opacity:1">
          <path
             id="path954"
             d="m 188.871,449.601 c -19.324,-5.693 -37.67,-14.818 -54.529,-27.12 -4.462,-3.256 -10.717,-2.278 -13.973,2.183 -3.256,4.461 -2.278,10.717 2.183,13.973 18.72,13.662 39.131,23.805 60.666,30.149 0.943,0.278 1.895,0.41 2.831,0.41 4.32,0 8.305,-2.822 9.588,-7.176 1.561,-5.299 -1.468,-10.859 -6.766,-12.419 z"
             inkscape:connector-curvature="0"
             style="fill:#ff4f4f;fill-opacity:1" />
        </g>
      </g>
      <g
         id="g964"
         style="fill:#ff4f4f;fill-opacity:1">
        <g
           id="g962"
           style="fill:#ff4f4f;fill-opacity:1">
          <path
             id="path960"
             d="m 110.292,401.822 -0.035,-0.035 c -3.905,-3.903 -10.218,-3.886 -14.125,0.018 -3.905,3.905 -3.887,10.255 0.018,14.16 1.953,1.953 4.512,2.929 7.071,2.929 2.559,0 5.119,-0.976 7.071,-2.929 3.905,-3.905 3.905,-10.237 0,-14.143 z"
             inkscape:connector-curvature="0"
             style="fill:#ff4f4f;fill-opacity:1" />
        </g>
      </g>
      <g
         id="g970"
         style="fill:#ff4f4f;fill-opacity:1">
        <g
           id="g968"
           style="fill:#ff4f4f;fill-opacity:1">
          <path
             id="path966"
             d="M 128.152,126.997 H 74.005 V 83.498 h 37.3 c 5.523,0 10,-4.477 10,-10 0,-5.523 -4.477,-10 -10,-10 h -37.3 V 19.999 h 54.146 c 5.523,0 10,-4.477 10,-10 0,-5.523 -4.477,-10 -10,-10 H 64.006 c -5.523,0 -10,4.477 -10,10 v 126.997 c 0,5.523 4.477,10 10,10 h 64.146 c 5.523,0 10,-4.477 10,-10 0,-5.523 -4.477,-9.999 -10,-9.999 z"
             inkscape:connector-curvature="0"
             style="fill:#ff4f4f;fill-opacity:1" />
        </g>
      </g>
      <g
         id="g976"
         style="fill:#ff4f4f;fill-opacity:1">
        <g
           id="g974"
           style="fill:#ff4f4f;fill-opacity:1">
          <path
             id="path972"
             d="m 383.997,0 c -40.527,0 -73.498,32.971 -73.498,73.498 0,40.527 32.971,73.498 73.498,73.498 40.527,0 73.498,-32.971 73.498,-73.498 C 457.495,32.971 424.524,0 383.997,0 Z m 0,126.997 c -29.499,0 -53.499,-23.999 -53.499,-53.499 0,-29.5 23.999,-53.499 53.499,-53.499 29.5,0 53.499,23.999 53.499,53.499 0,29.5 -24,53.499 -53.499,53.499 z"
             inkscape:connector-curvature="0"
             style="fill:#ff4f4f;fill-opacity:1" />
        </g>
      </g>
      <g
         id="g982"
         style="fill:#ff4f4f;fill-opacity:1">
        <g
           id="g980"
           style="fill:#ff4f4f;fill-opacity:1">
          <path
             id="path978"
             d="m 271.535,111.327 c -20.858,20.859 -54.8,20.859 -75.658,0 -20.859,-20.858 -20.859,-54.799 0,-75.658 20.858,-20.859 54.799,-20.859 75.658,0 3.905,3.905 10.237,3.905 14.143,0 3.905,-3.905 3.905,-10.237 0,-14.143 -28.657,-28.656 -75.285,-28.656 -103.942,0 -28.657,28.657 -28.657,75.286 0,103.942 14.328,14.329 33.149,21.493 51.971,21.493 18.822,0 37.643,-7.165 51.972,-21.492 3.905,-3.905 3.905,-10.237 0,-14.143 -3.906,-3.904 -10.238,-3.904 -14.144,0.001 z"
             inkscape:connector-curvature="0"
             style="fill:#ff4f4f;fill-opacity:1" />
        </g>
      </g>
      <g
         id="g988"
         style="fill:#ff4f4f;fill-opacity:1">
        <g
           id="g986"
           style="fill:#ff4f4f;fill-opacity:1">
          <path
             id="path984"
             d="m 256.068,170.358 c -5.523,0 -10,4.477 -10,10 v 28.279 c 0,5.523 4.477,10 10,10 5.523,0 10,-4.477 10,-10 v -28.279 c -10e-4,-5.523 -4.478,-10 -10,-10 z"
             inkscape:connector-curvature="0"
             style="fill:#ff4f4f;fill-opacity:1" />
        </g>
      </g>
      <g
         id="g994"
         style="fill:#ff4f4f;fill-opacity:1">
        <g
           id="g992"
           style="fill:#ff4f4f;fill-opacity:1">
          <path
             id="path990"
             d="m 314.425,197.907 c -3.906,-3.906 -10.237,-3.905 -14.142,0 l -20.391,20.39 c -3.905,3.905 -3.906,10.237 0,14.142 1.953,1.953 4.512,2.929 7.071,2.929 2.559,0 5.119,-0.977 7.071,-2.929 l 20.39,-20.39 c 3.906,-3.906 3.907,-10.238 0.001,-14.142 z"
             inkscape:connector-curvature="0"
             style="fill:#ff4f4f;fill-opacity:1" />
        </g>
      </g>
      <g
         id="g1000"
         style="fill:#ff4f4f;fill-opacity:1">
        <g
           id="g998"
           style="fill:#ff4f4f;fill-opacity:1">
          <path
             id="path996"
             d="m 232.142,218.001 -20.424,-20.425 c -3.906,-3.906 -10.237,-3.904 -14.142,0 -3.905,3.905 -3.906,10.237 0,14.142 L 218,232.143 c 1.953,1.953 4.512,2.929 7.071,2.929 2.559,0 5.119,-0.977 7.071,-2.929 3.905,-3.905 3.906,-10.237 0,-14.142 z"
             inkscape:connector-curvature="0"
             style="fill:#ff4f4f;fill-opacity:1" />
        </g>
      </g>
      <g
         id="g1002"
         style="fill:#ff4f4f;fill-opacity:1" />
      <g
         id="g1004"
         style="fill:#ff4f4f;fill-opacity:1" />
      <g
         id="g1006"
         style="fill:#ff4f4f;fill-opacity:1" />
      <g
         id="g1008"
         style="fill:#ff4f4f;fill-opacity:1" />
      <g
         id="g1010"
         style="fill:#ff4f4f;fill-opacity:1" />
      <g
         id="g1012"
         style="fill:#ff4f4f;fill-opacity:1" />
      <g
         id="g1014"
         style="fill:#ff4f4f;fill-opacity:1" />
      <g
         id="g1016"
         style="fill:#ff4f4f;fill-opacity:1" />
      <g
         id="g1018"
         style="fill:#ff4f4f;fill-opacity:1" />
      <g
         id="g1020"
         style="fill:#ff4f4f;fill-opacity:1" />
      <g
         id="g1022"
         style="fill:#ff4f4f;fill-opacity:1" />
      <g
         id="g1024"
         style="fill:#ff4f4f;fill-opacity:1" />
      <g
         id="g1026"
         style="fill:#ff4f4f;fill-opacity:1" />
      <g
         id="g1028"
         style="fill:#ff4f4f;fill-opacity:1" />
      <g
         id="g1030"
         style="fill:#ff4f4f;fill-opacity:1" />
    </g>
  </g>
</svg>
