<?xml version="1.0" encoding="UTF-8" standalone="no"?>
<!-- Created with Inkscape (http://www.inkscape.org/) -->

<svg
   xmlns:dc="http://purl.org/dc/elements/1.1/"
   xmlns:cc="http://creativecommons.org/ns#"
   xmlns:rdf="http://www.w3.org/1999/02/22-rdf-syntax-ns#"
   xmlns:svg="http://www.w3.org/2000/svg"
   xmlns="http://www.w3.org/2000/svg"
   xmlns:sodipodi="http://sodipodi.sourceforge.net/DTD/sodipodi-0.dtd"
   xmlns:inkscape="http://www.inkscape.org/namespaces/inkscape"
   width="59mm"
   height="84.286003mm"
   viewBox="0 0 59 84.286003"
   version="1.1"
   id="svg8"
   inkscape:version="0.92.2 (5c3e80d, 2017-08-06)"
   sodipodi:docname="sustainability_back_el.svg"
   inkscape:export-filename="C:\Users\ioarvanit\Desktop\New Design Cards\Προτάσεις\Back.png"
   inkscape:export-xdpi="90"
   inkscape:export-ydpi="90">
  <defs
     id="defs2" />
  <sodipodi:namedview
     id="base"
     pagecolor="#ffffff"
     bordercolor="#666666"
     borderopacity="1.0"
     inkscape:pageopacity="0.0"
     inkscape:pageshadow="2"
     inkscape:zoom="1.4"
     inkscape:cx="-19.864524"
     inkscape:cy="129.13077"
     inkscape:document-units="mm"
     inkscape:current-layer="layer1"
     showgrid="false"
     inkscape:window-width="1920"
     inkscape:window-height="1017"
     inkscape:window-x="-8"
     inkscape:window-y="-8"
     inkscape:window-maximized="1" />
  <metadata
     id="metadata5">
    <rdf:RDF>
      <cc:Work
         rdf:about="">
        <dc:format>image/svg+xml</dc:format>
        <dc:type
           rdf:resource="http://purl.org/dc/dcmitype/StillImage" />
        <dc:title />
      </cc:Work>
    </rdf:RDF>
  </metadata>
  <g
     inkscape:label="Layer 1"
     inkscape:groupmode="layer"
     id="layer1"
     transform="translate(0,-212.714)">
    <rect
       y="212.71429"
       x="7.3978532e-007"
       height="84.285713"
       width="59"
       id="rect989"
       style="opacity:1;fill:#f05052;fill-opacity:1;stroke:none;stroke-width:1.72474813;stroke-linecap:round;stroke-miterlimit:4;stroke-dasharray:none;stroke-dashoffset:0;stroke-opacity:1" />
    <path
       sodipodi:nodetypes="cccc"
       style="fill:#e95152;fill-opacity:1;stroke:none;stroke-width:0.22300594px;stroke-linecap:butt;stroke-linejoin:miter;stroke-opacity:1"
       d="M 0,212.71429 58.937286,253.35455 0,297 Z"
       id="path1043"
       inkscape:connector-curvature="0" />
    <path
       inkscape:connector-curvature="0"
       id="path1041"
       d="M 0,212.71429 42.371132,253.35455 0,297 Z"
       style="fill:#d85050;fill-opacity:1;stroke:none;stroke-width:0.22300594px;stroke-linecap:butt;stroke-linejoin:miter;stroke-opacity:1"
       sodipodi:nodetypes="cccc" />
    <path
       style="fill:#c64d4d;fill-opacity:1;stroke:none;stroke-width:0.22300594px;stroke-linecap:butt;stroke-linejoin:miter;stroke-opacity:1"
       d="M 0,212.71429 29.468641,253.35455 0,297 Z"
       id="path1039"
       inkscape:connector-curvature="0" />
    <text
       id="text1037"
       y="270.38629"
       x="4.7126465"
       style="font-style:normal;font-weight:normal;font-size:7.47801447px;line-height:1.25;font-family:sans-serif;letter-spacing:0px;word-spacing:0px;fill:#ffffff;fill-opacity:1;stroke:none;stroke-width:0.5608511"
       xml:space="preserve"><tspan
         style="fill:#ffffff;fill-opacity:1;stroke-width:0.5608511"
         y="270.38629"
         x="4.7126465"
         sodipodi:role="line"
         id="tspan1035">Βιωσιμότητα</tspan></text>
    <text
       xml:space="preserve"
       style="font-style:normal;font-weight:normal;font-size:3.15064335px;line-height:1.25;font-family:sans-serif;letter-spacing:0px;word-spacing:0px;fill:#000000;fill-opacity:1;stroke:none;stroke-width:0.23629825"
       x="29.498461"
       y="277.98856"
       id="text856"><tspan
         sodipodi:role="line"
         id="tspan854"
         x="29.498461"
         y="277.98856"
         style="text-align:center;text-anchor:middle;fill:#ffffff;stroke-width:0.23629825">Πετυχαίνοντας καλύτερα</tspan><tspan
         sodipodi:role="line"
         x="29.498461"
         y="281.92685"
         style="text-align:center;text-anchor:middle;fill:#ffffff;stroke-width:0.23629825"
         id="tspan858">αποτελέσματα για τον άνθρωπο</tspan><tspan
         sodipodi:role="line"
         x="29.498461"
         y="285.86517"
         style="text-align:center;text-anchor:middle;fill:#ffffff;stroke-width:0.23629825"
         id="tspan860">ΚΑΙ για το φυσικό περιβάλλον</tspan></text>
    <g
       data-name="35-bulb"
       id="_35-bulb"
       transform="matrix(0.04720529,0,0,0.04720529,17.415446,236.17182)"
       style="fill:#ffffff">
      <g
         data-name="linear color"
         id="linear_color"
         style="fill:#ffffff">
        <path
           id="path894"
           d="m 356.757,392.438 c -3.906,-1.23 -38.856,-11.7 -62.392,-0.552 -26.913,12.742 -25.573,45.451 -25.5,46.838 a 12,12 0 0 0 3.916,8.276 c 0.8,0.724 15.649,13.95 34.816,13.95 a 40.658,40.658 0 0 0 17.577,-3.99 c 23.539,-11.144 37.592,-44.808 39.117,-48.61 a 12,12 0 0 0 -7.534,-15.913 z M 314.9,435.27 c -8.088,3.827 -16.712,0.068 -21.713,-2.994 0.8,-5.831 3.364,-14.873 11.444,-18.7 8.028,-3.8 20.761,-3.055 30.982,-1.391 -5.188,8.963 -12.68,19.284 -20.713,23.085 z"
           inkscape:connector-curvature="0"
           style="fill:#ffffff" />
        <path
           id="path896"
           d="m 217.635,391.886 c -23.539,-11.145 -58.485,-0.679 -62.392,0.552 a 12,12 0 0 0 -7.534,15.913 c 1.525,3.8 15.578,37.466 39.117,48.61 a 40.661,40.661 0 0 0 17.577,3.99 c 19.165,0 34.02,-13.227 34.816,-13.95 a 12,12 0 0 0 3.919,-8.277 c 0.07,-1.387 1.41,-34.096 -25.503,-46.838 z M 197.1,435.27 c -8.035,-3.805 -15.535,-14.141 -20.726,-23.1 10.2,-1.67 22.914,-2.413 31,1.412 8.086,3.825 10.646,12.884 11.447,18.693 -5.029,3.07 -13.643,6.825 -21.721,2.995 z"
           inkscape:connector-curvature="0"
           style="fill:#ffffff" />
        <path
           id="path898"
           d="m 288,364 a 76.087,76.087 0 0 0 76,-76 V 232 A 12,12 0 0 0 352,220 H 340 V 88 a 36,36 0 0 0 -72,0 V 220 H 244 V 88 a 36,36 0 0 0 -72,0 v 132 h -12 a 12,12 0 0 0 -12,12 v 56 a 76.087,76.087 0 0 0 76,76 h 20 v 132 a 12,12 0 0 0 24,0 V 364 Z m 4,-276 a 12,12 0 0 1 24,0 v 132 h -24 z m -96,0 a 12,12 0 0 1 24,0 v 132 h -24 z m -24,200 v -44 h 168 v 44 a 52.059,52.059 0 0 1 -52,52 h -64 a 52.059,52.059 0 0 1 -52,-52 z"
           inkscape:connector-curvature="0"
           style="fill:#ffffff" />
        <path
           id="path900"
           d="m 480,196 h -16 a 12,12 0 0 0 0,24 h 16 a 12,12 0 0 0 0,-24 z"
           inkscape:connector-curvature="0"
           style="fill:#ffffff" />
        <path
           id="path902"
           d="m 436.144,116 a 11.956,11.956 0 0 0 5.989,-1.609 l 13.856,-8 a 12.000602,12.000602 0 1 0 -12,-20.786 l -13.856,8 A 12,12 0 0 0 436.144,116 Z"
           inkscape:connector-curvature="0"
           style="fill:#ffffff" />
        <path
           id="path904"
           d="m 374,3.618 a 12,12 0 0 0 -16.393,4.393 l -8,13.856 a 12.000602,12.000602 0 1 0 20.786,12 l 8,-13.856 A 12,12 0 0 0 374,3.618 Z"
           inkscape:connector-curvature="0"
           style="fill:#ffffff" />
        <path
           id="path906"
           d="m 455.989,309.607 -13.856,-8 a 12.000602,12.000602 0 1 0 -12,20.786 l 13.856,8 a 12.000602,12.000602 0 0 0 12,-20.786 z"
           inkscape:connector-curvature="0"
           style="fill:#ffffff" />
        <path
           id="path908"
           d="M 60,208 A 12,12 0 0 0 48,196 H 32 a 12,12 0 0 0 0,24 h 16 a 12,12 0 0 0 12,-12 z"
           inkscape:connector-curvature="0"
           style="fill:#ffffff" />
        <path
           id="path910"
           d="m 81.867,93.607 -13.856,-8 a 12.000602,12.000602 0 0 0 -12,20.786 l 13.856,8 a 12.000602,12.000602 0 1 0 12,-20.786 z"
           inkscape:connector-curvature="0"
           style="fill:#ffffff" />
        <path
           id="path912"
           d="m 158,38.26 a 12,12 0 0 0 4.393,-16.393 l -8,-13.856 a 12.000602,12.000602 0 0 0 -20.786,12 l 8,13.856 A 12,12 0 0 0 158,38.26 Z"
           inkscape:connector-curvature="0"
           style="fill:#ffffff" />
        <path
           id="path914"
           d="m 69.867,301.607 -13.856,8 a 12.000602,12.000602 0 1 0 12,20.786 l 13.856,-8 a 12.000602,12.000602 0 0 0 -12,-20.786 z"
           inkscape:connector-curvature="0"
           style="fill:#ffffff" />
      </g>
    </g>
  </g>
</svg>
