<?xml version="1.0" encoding="UTF-8" standalone="no"?>
<!-- Created with Inkscape (http://www.inkscape.org/) -->

<svg
   xmlns:dc="http://purl.org/dc/elements/1.1/"
   xmlns:cc="http://creativecommons.org/ns#"
   xmlns:rdf="http://www.w3.org/1999/02/22-rdf-syntax-ns#"
   xmlns:svg="http://www.w3.org/2000/svg"
   xmlns="http://www.w3.org/2000/svg"
   xmlns:sodipodi="http://sodipodi.sourceforge.net/DTD/sodipodi-0.dtd"
   xmlns:inkscape="http://www.inkscape.org/namespaces/inkscape"
   width="105mm"
   height="148mm"
   viewBox="0 0 105 148"
   version="1.1"
   id="svg8"
   inkscape:version="0.92.2 (5c3e80d, 2017-08-06)"
   sodipodi:docname="c01_aesthetics_el.svg"
   inkscape:export-filename="C:\Users\ioarvanit\Desktop\New Design Cards\Προτάσεις\Transfer.png"
   inkscape:export-xdpi="90"
   inkscape:export-ydpi="90">
  <defs
     id="defs2" />
  <sodipodi:namedview
     id="base"
     pagecolor="#ffffff"
     bordercolor="#666666"
     borderopacity="1.0"
     inkscape:pageopacity="1"
     inkscape:pageshadow="2"
     inkscape:zoom="0.98999998"
     inkscape:cx="-245.0704"
     inkscape:cy="221.95928"
     inkscape:document-units="mm"
     inkscape:current-layer="layer1"
     showgrid="false"
     inkscape:window-width="1920"
     inkscape:window-height="1017"
     inkscape:window-x="-8"
     inkscape:window-y="-8"
     inkscape:window-maximized="1" />
  <metadata
     id="metadata5">
    <rdf:RDF>
      <cc:Work
         rdf:about="">
        <dc:format>image/svg+xml</dc:format>
        <dc:type
           rdf:resource="http://purl.org/dc/dcmitype/StillImage" />
        <dc:title />
      </cc:Work>
    </rdf:RDF>
  </metadata>
  <g
     inkscape:label="Layer 1"
     inkscape:groupmode="layer"
     id="layer1"
     transform="translate(0,-149.00001)">
    <rect
       y="149"
       x="0.00035554456"
       height="148"
       width="104.99964"
       id="rect1538"
       style="opacity:1;fill:#ffffff;fill-opacity:1;stroke:none;stroke-width:3.04893064;stroke-linecap:round;stroke-miterlimit:4;stroke-dasharray:none;stroke-dashoffset:0;stroke-opacity:1" />
    <rect
       style="opacity:1;fill:#ff5200;fill-opacity:1;stroke:none;stroke-width:2.27810836;stroke-linecap:round;stroke-miterlimit:4;stroke-dasharray:none;stroke-dashoffset:0;stroke-opacity:1"
       id="rect826-8"
       width="104.99998"
       height="82.625496"
       x="0"
       y="149" />
    <text
       xml:space="preserve"
       style="font-style:normal;font-weight:normal;font-size:20.71850967px;line-height:1.25;font-family:sans-serif;letter-spacing:0px;word-spacing:0px;fill:#ffffff;fill-opacity:1;stroke:none;stroke-width:0.51796269"
       x="5.1614013"
       y="168.7086"
       id="text832-3"><tspan
         sodipodi:role="line"
         id="tspan830-9"
         x="5.1614013"
         y="168.7086"
         style="font-style:normal;font-variant:normal;font-weight:300;font-stretch:normal;font-family:Aka-Acid-Sunn;-inkscape-font-specification:'Aka-Acid-Sunn Light';fill:#ffffff;fill-opacity:1;stroke-width:0.51796269">ΑΙΣΘΗΤΙΚΗ ΔΙΑΡΚΕΙΑ</tspan></text>
    <text
       xml:space="preserve"
       style="font-style:normal;font-weight:normal;font-size:12.02059937px;line-height:1.25;font-family:sans-serif;letter-spacing:0px;word-spacing:0px;fill:#ff5200;fill-opacity:1;stroke:none;stroke-width:0.90154481"
       x="67.01091"
       y="293.47055"
       id="text844-7"><tspan
         id="tspan842-3"
         sodipodi:role="line"
         x="67.01091"
         y="293.47055"
         style="font-style:normal;font-variant:normal;font-weight:normal;font-stretch:normal;font-family:Aka-Acid-Sunn;-inkscape-font-specification:Aka-Acid-Sunn;fill:#ff5200;fill-opacity:1;stroke-width:0.90154481">ΑΕΙΦΟΡΙΑ-01</tspan></text>
    <text
       id="text887-4"
       y="249.74886"
       x="4.7970915"
       style="font-style:normal;font-weight:normal;font-size:5.2211113px;line-height:1.25;font-family:sans-serif;letter-spacing:0px;word-spacing:0px;fill:#ff5200;fill-opacity:1;stroke:none;stroke-width:0.39158335"
       xml:space="preserve"><tspan
         style="font-style:normal;font-variant:normal;font-weight:normal;font-stretch:normal;font-size:7.43344688px;font-family:Aka-Acid-GeosansLight;-inkscape-font-specification:Aka-Acid-GeosansLight;fill:#ff5200;fill-opacity:1;stroke-width:0.39158335"
         y="249.74886"
         x="4.7970915"
         sodipodi:role="line"
         id="tspan890">Διαχρονική μορφή, όμορφο,</tspan><tspan
         style="font-style:normal;font-variant:normal;font-weight:normal;font-stretch:normal;font-size:7.43344688px;font-family:Aka-Acid-GeosansLight;-inkscape-font-specification:Aka-Acid-GeosansLight;fill:#ff5200;fill-opacity:1;stroke-width:0.39158335"
         y="259.04065"
         x="4.7970915"
         sodipodi:role="line"
         id="tspan892">σεβασμός αισθητικής του</tspan><tspan
         style="font-style:normal;font-variant:normal;font-weight:normal;font-stretch:normal;font-size:7.43344688px;font-family:Aka-Acid-GeosansLight;-inkscape-font-specification:Aka-Acid-GeosansLight;fill:#ff5200;fill-opacity:1;stroke-width:0.39158335"
         y="268.33246"
         x="4.7970915"
         sodipodi:role="line"
         id="tspan900">περιβάλλοντος.</tspan></text>
    <g
       id="g957"
       transform="matrix(0.05216871,0,0,0.05216871,78.828034,202.23383)">
      <g
         id="g900">
        <g
           id="g898"
           transform="translate(-61.410507,160.20132)">
          <path
             style="fill:#ffffff;stroke-width:0.09458279"
             d="m 251.83594,179.66602 h 4.15234 c -0.42254,-0.8079 -0.88159,-1.59712 -1.11719,-2.50977 -0.0525,-0.22161 -1.49314,-6.48502 0.57813,-13.57617 0.29302,-1.00286 -0.2823,-2.05278 -1.28516,-2.3457 -1.00258,-0.2935 -2.05278,0.2822 -2.3457,1.28515 -1.3356,4.57261 -1.39764,8.78716 -1.17774,11.67383 -1.09489,-0.53591 -2.31938,-1.29814 -3.3125,-2.49414 -1.61916,-1.95011 -2.26819,-4.70974 -1.92968,-8.20117 0.7734,-7.97541 7.33944,-14.68634 10.28125,-17.32227 2.37771,3.16805 7.54271,11.07351 6.76562,19.08789 -0.29103,3.0013 -1.22973,5.26054 -2.86914,6.9043 -0.73774,0.73964 -0.73582,1.93599 0.004,2.67383 0.73954,0.73774 1.93784,0.73582 2.67578,-0.004 2.28276,-2.28881 3.57618,-5.30092 3.95508,-9.20898 0.48256,-4.97629 -0.9015,-10.60943 -4.00391,-16.29102 -2.04488,-3.74482 -4.18858,-6.34831 -4.7207,-6.97266 -0.01,-0.0139 -0.0208,-0.0292 -0.0312,-0.043 -0.63257,-0.8277 -1.81605,-0.98854 -2.64649,-0.35938 -0.12276,0.0931 -3.04201,2.32224 -6.11718,6 -4.13526,4.94555 -6.57585,10.19146 -7.0586,15.16992 -0.43943,4.5326 0.49767,8.22751 2.78516,10.98242 2.07306,2.49671 4.78127,3.61573 6.23633,4.2168 0.17365,0.0718 0.37226,0.15531 0.52539,0.22266 0.0653,0.0773 0.13785,0.14687 0.21484,0.21289 0.0998,0.32745 0.32206,0.5813 0.44141,0.89844 z"
             id="path964"
             transform="matrix(10.572748,0,0,10.572748,-2553.6012,-1496.8861)"
             inkscape:connector-curvature="0" />
          <path
             style="fill:#ff5200;fill-opacity:1;stroke-width:0.09458279"
             d="m 281.41992,179.66602 h -4.25195 c -2.03608,3.8442 -5.95112,6.55664 -10.5957,6.55664 -4.57044,0 -8.5348,-2.63856 -10.58399,-6.55664 h -4.15234 c 2.30509,6.12521 8.07383,10.33984 14.73633,10.33984 6.80607,0 12.57978,-4.31712 14.84765,-10.33984 z"
             id="path962"
             transform="matrix(10.572748,0,0,10.572748,-2553.6012,-1496.8861)"
             inkscape:connector-curvature="0" />
          <path
             style="fill:#ffffff;stroke-width:0.09458279"
             d="m 276.99609,141.58008 c -1.04476,0 -1.89257,0.84586 -1.89257,1.89062 v 4.82422 h -1.70313 c -1.04476,0 -1.89062,0.84782 -1.89062,1.89258 v 4.82227 c 0,4.38637 3.07768,8.06757 7.1875,8.99609 v 10.08984 c 0,2.04166 -0.63429,3.88049 -1.5293,5.57032 h 4.25195 c 0.65523,-1.74007 1.06055,-3.60198 1.06055,-5.56836 v -10.03321 c 4.25102,-0.81984 7.47265,-4.56787 7.47265,-9.05468 v -4.82227 c 0,-1.04467 -0.84781,-1.89258 -1.89257,-1.89258 h -1.60743 v -4.82422 c 0,-1.04476 -0.84586,-1.89062 -1.89062,-1.89062 -1.04476,0 -1.89258,0.84586 -1.89258,1.89062 v 4.82422 h -3.7832 v -4.82422 c 0,-1.04476 -0.84586,-1.89062 -1.89063,-1.89062 z m -1.70312,10.49804 h 10.87695 v 2.93165 c 0,2.99884 -2.44061,5.43945 -5.43945,5.43945 -2.99884,0 -5.4375,-2.44061 -5.4375,-5.43945 z"
             id="path896"
             transform="matrix(10.572748,0,0,10.572748,-2553.6012,-1496.8861)"
             inkscape:connector-curvature="0" />
        </g>
      </g>
      <g
         id="g902" />
      <g
         id="g904" />
      <g
         id="g906" />
      <g
         id="g908" />
      <g
         id="g910" />
      <g
         id="g912" />
      <g
         id="g914" />
      <g
         id="g916" />
      <g
         id="g918" />
      <g
         id="g920" />
      <g
         id="g922" />
      <g
         id="g924" />
      <g
         id="g926" />
      <g
         id="g928" />
      <g
         id="g930" />
    </g>
    <g
       id="g1205"
       transform="matrix(0.09437034,0,0,0.09437034,4.5711881,174.96479)"
       style="fill:#ffffff;fill-opacity:1">
      <g
         id="g1067"
         style="fill:#ffffff;fill-opacity:1">
        <g
           id="g1065"
           style="fill:#ffffff;fill-opacity:1">
          <path
             id="path1063"
             d="m 501.942,380.374 c -17.175,-17.175 -40.011,-26.635 -64.301,-26.635 -21.678,0 -42.197,7.534 -58.568,21.364 -35.69,-30.086 -89.263,-28.329 -122.863,5.271 -1.415,1.414 -2.209,3.332 -2.209,5.332 0,68.966 56.109,125.075 125.075,125.075 68.966,0 125.075,-56.109 125.075,-125.075 -0.001,-2 -0.795,-3.919 -2.209,-5.332 z m -130.156,8.401 c 1.21,2.714 3.905,4.471 6.888,4.471 h 0.805 c 2.984,0 5.68,-1.758 6.889,-4.473 14.025,-12.891 32.107,-19.952 51.274,-19.952 17.259,0 33.628,5.742 46.958,16.293 -59.729,54.786 -151.859,55.005 -211.839,0.641 28.928,-23.48 71.249,-22.484 99.025,3.02 z m 7.289,106.923 c -54.53,0 -99.911,-39.886 -108.517,-92.016 31.373,25.17 69.571,37.765 107.774,37.765 38.9,0 77.794,-13.056 109.484,-39.151 -8.021,52.807 -53.728,93.402 -108.741,93.402 z"
             inkscape:connector-curvature="0"
             style="fill:#ffffff;fill-opacity:1" />
        </g>
      </g>
      <g
         id="g1073"
         style="fill:#ffffff;fill-opacity:1">
        <g
           id="g1071"
           style="fill:#ffffff;fill-opacity:1">
          <path
             id="path1069"
             d="m 198.119,223.893 c -2.285,-1.359 -5.119,-1.414 -7.455,-0.145 -1.34,0.728 -33.218,18.251 -68.596,54.858 -32.658,33.792 -74.418,90.881 -87.905,170.963 -2.617,15.54 1.726,31.363 11.918,43.415 C 56.301,505.069 71.236,512 87.057,512 h 68.208 c 25.662,0 46.54,-20.877 46.54,-46.54 V 230.374 c 0.001,-2.659 -1.4,-5.121 -3.686,-6.481 z M 186.724,465.46 c 0,17.346 -14.112,31.458 -31.458,31.458 H 87.058 c -11.375,0 -22.113,-4.984 -29.461,-13.673 -7.32,-8.655 -10.44,-20.016 -8.56,-31.17 12.807,-76.046 52.477,-130.396 83.501,-162.598 21.567,-22.386 42.08,-37.499 54.186,-45.551 V 465.46 Z"
             inkscape:connector-curvature="0"
             style="fill:#ffffff;fill-opacity:1" />
        </g>
      </g>
      <g
         id="g1079"
         style="fill:#ffffff;fill-opacity:1">
        <g
           id="g1077"
           style="fill:#ffffff;fill-opacity:1">
          <path
             id="path1075"
             d="m 120.662,447.551 c -19.278,0 -38.73,5.732 -38.73,18.539 0,4.165 3.376,7.541 7.541,7.541 3.695,0 6.77,-2.658 7.415,-6.167 2.233,-1.818 10.823,-4.831 23.774,-4.831 12.951,0 21.54,3.013 23.774,4.831 0.646,3.508 3.72,6.167 7.415,6.167 4.165,0 7.541,-3.376 7.541,-7.541 0,-12.807 -19.453,-18.539 -38.73,-18.539 z"
             inkscape:connector-curvature="0"
             style="fill:#ffffff;fill-opacity:1" />
        </g>
      </g>
      <g
         id="g1085"
         style="fill:#ffffff;fill-opacity:1">
        <g
           id="g1083"
           style="fill:#ffffff;fill-opacity:1">
          <path
             id="path1081"
             d="M 273.69,117.838 C 271.837,115.19 237.246,66.492 188.034,44.547 L 201.101,16.48 c 1.758,-3.775 0.122,-8.261 -3.654,-10.018 -3.774,-1.758 -8.26,-0.122 -10.018,3.654 l -13.522,29.048 c -6.904,-2.176 -14.039,-3.749 -21.361,-4.56 V 7.541 C 152.546,3.376 149.17,0 145.005,0 c -4.165,0 -7.541,3.376 -7.541,7.541 v 26.522 c -7.594,0.306 -15.008,1.466 -22.196,3.307 L 102.58,10.115 C 100.822,6.339 96.337,4.704 92.562,6.461 88.786,8.219 87.151,12.704 88.908,16.479 l 11.908,25.579 c -52.353,20.482 -89.677,73.026 -91.604,75.78 -1.817,2.596 -1.817,6.052 0,8.648 2.396,3.425 59.527,83.863 132.24,83.863 72.712,0 129.843,-80.44 132.239,-83.864 1.816,-2.596 1.816,-6.051 -10e-4,-8.647 z M 100.862,58.44 c 12.726,-5.724 26.405,-9.384 40.589,-9.384 14.19,0 27.884,3.678 40.63,9.426 10.356,10.641 16.061,24.637 16.061,39.516 0,15.143 -5.897,29.379 -16.604,40.087 -10.707,10.707 -24.944,16.605 -40.088,16.605 -15.143,0 -29.38,-5.897 -40.087,-16.605 C 79.433,116.154 79.274,80.584 100.862,58.44 Z m 40.591,136.829 c -55.8,0 -103.968,-56.807 -116.639,-73.11 6.995,-9.021 24.829,-30.414 48.822,-47.741 -2.595,7.484 -3.958,15.427 -3.958,23.581 0,19.171 7.466,37.195 21.022,50.751 13.556,13.557 31.58,21.022 50.751,21.022 19.171,0 37.196,-7.466 50.751,-21.022 13.557,-13.556 21.022,-31.579 21.022,-50.751 0,-8.136 -1.358,-16.06 -3.941,-23.529 23.964,17.319 41.8,38.681 48.805,47.693 -12.68,16.314 -60.844,73.106 -116.635,73.106 z"
             inkscape:connector-curvature="0"
             style="fill:#ffffff;fill-opacity:1" />
        </g>
      </g>
      <g
         id="g1091"
         style="fill:#ffffff;fill-opacity:1">
        <g
           id="g1089"
           style="fill:#ffffff;fill-opacity:1">
          <path
             id="path1087"
             d="m 141.45,60.384 c -19.091,0 -34.622,15.531 -34.622,34.622 0,19.091 15.531,34.622 34.622,34.622 19.091,0 34.622,-15.531 34.622,-34.622 0,-19.091 -15.531,-34.622 -34.622,-34.622 z m 0,54.162 c -10.774,0 -19.54,-8.766 -19.54,-19.54 0,-10.774 8.766,-19.54 19.54,-19.54 10.774,0 19.54,8.766 19.54,19.54 0,10.774 -8.765,19.54 -19.54,19.54 z"
             inkscape:connector-curvature="0"
             style="fill:#ffffff;fill-opacity:1" />
        </g>
      </g>
      <g
         id="g1097"
         style="fill:#ffffff;fill-opacity:1">
        <g
           id="g1095"
           style="fill:#ffffff;fill-opacity:1">
          <path
             id="path1093"
             d="m 405.801,169.901 c -19.091,0 -34.622,15.531 -34.622,34.622 0,19.091 15.531,34.622 34.622,34.622 19.091,0 34.622,-15.531 34.622,-34.622 0,-19.091 -15.531,-34.622 -34.622,-34.622 z m 0,54.162 c -10.774,0 -19.54,-8.766 -19.54,-19.54 0,-10.775 8.766,-19.54 19.54,-19.54 10.774,0 19.54,8.766 19.54,19.54 0,10.775 -8.765,19.54 -19.54,19.54 z"
             inkscape:connector-curvature="0"
             style="fill:#ffffff;fill-opacity:1" />
        </g>
      </g>
      <g
         id="g1103"
         style="fill:#ffffff;fill-opacity:1">
        <g
           id="g1101"
           style="fill:#ffffff;fill-opacity:1">
          <path
             id="path1099"
             d="m 493.266,215.618 c 4.165,0 7.541,-3.376 7.541,-7.541 0,-4.165 -3.376,-7.541 -7.541,-7.541 h -26.522 c -0.306,-7.594 -1.466,-15.008 -3.307,-22.195 l 27.255,-12.688 c 3.776,-1.758 5.411,-6.243 3.654,-10.018 -1.758,-3.775 -6.243,-5.41 -10.018,-3.654 l -25.579,11.907 C 438.267,111.535 385.723,74.211 382.97,72.284 c -2.596,-1.818 -6.052,-1.818 -8.648,0 -3.425,2.396 -83.864,59.527 -83.864,132.24 0,72.713 80.44,129.844 83.864,132.24 1.298,0.909 2.811,1.362 4.323,1.362 1.512,0 3.025,-0.454 4.323,-1.362 2.648,-1.853 51.346,-36.444 73.29,-85.656 l 28.07,13.067 c 1.03,0.48 2.112,0.707 3.177,0.707 2.841,0 5.563,-1.614 6.841,-4.361 1.758,-3.776 0.122,-8.261 -3.654,-10.018 l -29.049,-13.522 c 2.176,-6.904 3.749,-14.04 4.56,-21.361 h 27.063 z M 378.641,321.162 c -16.314,-12.656 -73.102,-60.741 -73.102,-116.639 0,-55.8 56.808,-103.968 73.111,-116.639 9.02,6.998 30.413,24.832 47.74,48.826 -7.484,-2.596 -15.427,-3.959 -23.582,-3.959 -19.171,0 -37.195,7.466 -50.751,21.022 -13.557,13.556 -21.022,31.579 -21.022,50.751 0,19.172 7.465,37.195 21.022,50.751 13.556,13.557 31.58,21.022 50.751,21.022 8.136,0 16.06,-1.357 23.529,-3.941 -17.321,23.966 -38.686,41.803 -47.696,48.806 z m 63.683,-76.009 c -10.641,10.357 -24.638,16.062 -39.518,16.062 -15.143,0 -29.379,-5.897 -40.087,-16.604 -10.707,-10.707 -16.605,-24.944 -16.605,-40.087 0,-15.142 5.897,-29.379 16.605,-40.087 10.708,-10.707 24.944,-16.604 40.087,-16.604 14.899,0 28.912,5.719 39.559,16.101 5.724,12.725 9.385,26.404 9.385,40.588 10e-4,14.191 -3.678,27.885 -9.426,40.631 z"
             inkscape:connector-curvature="0"
             style="fill:#ffffff;fill-opacity:1" />
        </g>
      </g>
      <g
         id="g1109"
         style="fill:#ffffff;fill-opacity:1">
        <g
           id="g1107"
           style="fill:#ffffff;fill-opacity:1">
          <path
             id="path1105"
             d="m 175.046,291.533 c -2.267,-3.494 -6.938,-4.487 -10.431,-2.221 -53.064,34.432 -79.207,106.788 -80.294,109.852 -1.393,3.924 0.66,8.236 4.585,9.628 0.834,0.296 1.684,0.436 2.522,0.436 3.103,0 6.011,-1.929 7.107,-5.021 0.249,-0.702 25.472,-70.566 74.29,-102.243 3.494,-2.266 4.488,-6.937 2.221,-10.431 z"
             inkscape:connector-curvature="0"
             style="fill:#ffffff;fill-opacity:1" />
        </g>
      </g>
      <g
         id="g1115"
         style="fill:#ffffff;fill-opacity:1">
        <g
           id="g1113"
           style="fill:#ffffff;fill-opacity:1">
          <path
             id="path1111"
             d="M 478.042,42.119 C 451.03,15.106 415.061,0.23 376.761,0.23 c -38.301,0 -74.268,14.876 -101.281,41.888 -4.429,4.429 -6.868,10.317 -6.868,16.581 0,6.264 2.439,12.152 6.868,16.581 9.145,9.143 24.02,9.141 33.161,-0.001 37.561,-37.56 98.679,-37.56 136.239,0 4.429,4.429 10.318,6.868 16.581,6.868 6.263,0 12.152,-2.439 16.581,-6.868 9.143,-9.142 9.143,-24.018 0,-33.16 z m -10.664,22.497 c -1.581,1.58 -3.682,2.451 -5.916,2.451 -2.234,0 -4.337,-0.871 -5.916,-2.451 -21.721,-21.721 -50.252,-32.58 -78.784,-32.58 -28.532,0 -57.064,10.86 -78.785,32.58 -3.262,3.262 -8.569,3.262 -11.832,0 -1.581,-1.581 -2.451,-3.682 -2.451,-5.916 0,-2.234 0.87,-4.337 2.45,-5.916 24.163,-24.164 56.345,-37.471 90.617,-37.471 34.272,0 66.453,13.307 90.617,37.471 1.581,1.581 2.451,3.682 2.451,5.916 10e-4,2.235 -0.87,4.336 -2.451,5.916 z"
             inkscape:connector-curvature="0"
             style="fill:#ffffff;fill-opacity:1" />
        </g>
      </g>
      <g
         id="g1121"
         style="fill:#ffffff;fill-opacity:1">
        <g
           id="g1119"
           style="fill:#ffffff;fill-opacity:1">
          <path
             id="path1117"
             d="m 261.235,247.73 c -1.418,-1.959 -3.69,-3.119 -6.108,-3.119 -2.418,0 -4.69,1.16 -6.108,3.119 -5.269,7.279 -22.46,32.041 -22.46,45.083 0,15.752 12.816,28.568 28.568,28.568 15.752,0 28.568,-12.816 28.568,-28.568 -10e-4,-13.042 -17.192,-37.805 -22.46,-45.083 z m -6.109,58.568 c -7.436,0 -13.486,-6.05 -13.486,-13.486 0,-4.429 6.245,-16.17 13.482,-27.311 7.255,11.201 13.49,23.009 13.49,27.311 10e-4,7.437 -6.049,13.486 -13.486,13.486 z"
             inkscape:connector-curvature="0"
             style="fill:#ffffff;fill-opacity:1" />
        </g>
      </g>
      <g
         id="g1123"
         style="fill:#ffffff;fill-opacity:1" />
      <g
         id="g1125"
         style="fill:#ffffff;fill-opacity:1" />
      <g
         id="g1127"
         style="fill:#ffffff;fill-opacity:1" />
      <g
         id="g1129"
         style="fill:#ffffff;fill-opacity:1" />
      <g
         id="g1131"
         style="fill:#ffffff;fill-opacity:1" />
      <g
         id="g1133"
         style="fill:#ffffff;fill-opacity:1" />
      <g
         id="g1135"
         style="fill:#ffffff;fill-opacity:1" />
      <g
         id="g1137"
         style="fill:#ffffff;fill-opacity:1" />
      <g
         id="g1139"
         style="fill:#ffffff;fill-opacity:1" />
      <g
         id="g1141"
         style="fill:#ffffff;fill-opacity:1" />
      <g
         id="g1143"
         style="fill:#ffffff;fill-opacity:1" />
      <g
         id="g1145"
         style="fill:#ffffff;fill-opacity:1" />
      <g
         id="g1147"
         style="fill:#ffffff;fill-opacity:1" />
      <g
         id="g1149"
         style="fill:#ffffff;fill-opacity:1" />
      <g
         id="g1151"
         style="fill:#ffffff;fill-opacity:1" />
    </g>
  </g>
</svg>
