<?xml version="1.0" encoding="UTF-8" standalone="no"?>
<!-- Created with Inkscape (http://www.inkscape.org/) -->

<svg
   xmlns:dc="http://purl.org/dc/elements/1.1/"
   xmlns:cc="http://creativecommons.org/ns#"
   xmlns:rdf="http://www.w3.org/1999/02/22-rdf-syntax-ns#"
   xmlns:svg="http://www.w3.org/2000/svg"
   xmlns="http://www.w3.org/2000/svg"
   xmlns:sodipodi="http://sodipodi.sourceforge.net/DTD/sodipodi-0.dtd"
   xmlns:inkscape="http://www.inkscape.org/namespaces/inkscape"
   width="105mm"
   height="148mm"
   viewBox="0 0 105 148"
   version="1.1"
   id="svg8"
   inkscape:version="0.92.2 (5c3e80d, 2017-08-06)"
   sodipodi:docname="c03_disassemble_el.svg"
   inkscape:export-filename="C:\Users\ioarvanit\Desktop\New Design Cards\Προτάσεις\Transfer.png"
   inkscape:export-xdpi="90"
   inkscape:export-ydpi="90">
  <defs
     id="defs2" />
  <sodipodi:namedview
     id="base"
     pagecolor="#ffffff"
     bordercolor="#666666"
     borderopacity="1.0"
     inkscape:pageopacity="1"
     inkscape:pageshadow="2"
     inkscape:zoom="0.98999998"
     inkscape:cx="-80.928987"
     inkscape:cy="221.95928"
     inkscape:document-units="mm"
     inkscape:current-layer="layer1"
     showgrid="false"
     inkscape:window-width="1920"
     inkscape:window-height="1017"
     inkscape:window-x="-8"
     inkscape:window-y="-8"
     inkscape:window-maximized="1" />
  <metadata
     id="metadata5">
    <rdf:RDF>
      <cc:Work
         rdf:about="">
        <dc:format>image/svg+xml</dc:format>
        <dc:type
           rdf:resource="http://purl.org/dc/dcmitype/StillImage" />
        <dc:title />
      </cc:Work>
    </rdf:RDF>
  </metadata>
  <g
     inkscape:label="Layer 1"
     inkscape:groupmode="layer"
     id="layer1"
     transform="translate(0,-149.00001)">
    <rect
       y="149"
       x="0.00035554456"
       height="148"
       width="104.99964"
       id="rect1538"
       style="opacity:1;fill:#ffffff;fill-opacity:1;stroke:none;stroke-width:3.04893064;stroke-linecap:round;stroke-miterlimit:4;stroke-dasharray:none;stroke-dashoffset:0;stroke-opacity:1" />
    <rect
       style="opacity:1;fill:#ff5200;fill-opacity:1;stroke:none;stroke-width:2.27810836;stroke-linecap:round;stroke-miterlimit:4;stroke-dasharray:none;stroke-dashoffset:0;stroke-opacity:1"
       id="rect826-8"
       width="104.99998"
       height="82.625496"
       x="0"
       y="149" />
    <text
       xml:space="preserve"
       style="font-style:normal;font-weight:normal;font-size:20.71850967px;line-height:1.25;font-family:sans-serif;letter-spacing:0px;word-spacing:0px;fill:#ffffff;fill-opacity:1;stroke:none;stroke-width:0.51796269"
       x="5.1614013"
       y="168.7086"
       id="text832-3"><tspan
         sodipodi:role="line"
         id="tspan830-9"
         x="5.1614013"
         y="168.7086"
         style="font-style:normal;font-variant:normal;font-weight:300;font-stretch:normal;font-family:Aka-Acid-Sunn;-inkscape-font-specification:'Aka-Acid-Sunn Light';fill:#ffffff;fill-opacity:1;stroke-width:0.51796269">ΑΠΟΣΥΝΑΡΜΟΛΟΓΗΣΗ</tspan></text>
    <text
       xml:space="preserve"
       style="font-style:normal;font-weight:normal;font-size:12.02059937px;line-height:1.25;font-family:sans-serif;letter-spacing:0px;word-spacing:0px;fill:#ff5200;fill-opacity:1;stroke:none;stroke-width:0.90154481"
       x="67.01091"
       y="293.47055"
       id="text844-7"><tspan
         id="tspan842-3"
         sodipodi:role="line"
         x="67.01091"
         y="293.47055"
         style="font-style:normal;font-variant:normal;font-weight:normal;font-stretch:normal;font-family:Aka-Acid-Sunn;-inkscape-font-specification:Aka-Acid-Sunn;fill:#ff5200;fill-opacity:1;stroke-width:0.90154481">ΑΕΙΦΟΡΙΑ-03</tspan></text>
    <text
       id="text887-4"
       y="249.74886"
       x="4.7970915"
       style="font-style:normal;font-weight:normal;font-size:5.2211113px;line-height:1.25;font-family:sans-serif;letter-spacing:0px;word-spacing:0px;fill:#ff5200;fill-opacity:1;stroke:none;stroke-width:0.39158335"
       xml:space="preserve"><tspan
         style="font-style:normal;font-variant:normal;font-weight:normal;font-stretch:normal;font-size:7.43344688px;font-family:Aka-Acid-GeosansLight;-inkscape-font-specification:Aka-Acid-GeosansLight;fill:#ff5200;fill-opacity:1;stroke-width:0.39158335"
         y="249.74886"
         x="4.7970915"
         sodipodi:role="line"
         id="tspan1067">Δημιουργία προϊόντων που</tspan><tspan
         style="font-style:normal;font-variant:normal;font-weight:normal;font-stretch:normal;font-size:7.43344688px;font-family:Aka-Acid-GeosansLight;-inkscape-font-specification:Aka-Acid-GeosansLight;fill:#ff5200;fill-opacity:1;stroke-width:0.39158335"
         y="259.04065"
         x="4.7970915"
         sodipodi:role="line"
         id="tspan851">αποτελούνται από ξεχωριστά μέρη </tspan><tspan
         style="font-style:normal;font-variant:normal;font-weight:normal;font-stretch:normal;font-size:7.43344688px;font-family:Aka-Acid-GeosansLight;-inkscape-font-specification:Aka-Acid-GeosansLight;fill:#ff5200;fill-opacity:1;stroke-width:0.39158335"
         y="268.33246"
         x="4.7970915"
         sodipodi:role="line"
         id="tspan853">που μπορούν να διορθωθούν ή να</tspan><tspan
         style="font-style:normal;font-variant:normal;font-weight:normal;font-stretch:normal;font-size:7.43344688px;font-family:Aka-Acid-GeosansLight;-inkscape-font-specification:Aka-Acid-GeosansLight;fill:#ff5200;fill-opacity:1;stroke-width:0.39158335"
         y="277.62427"
         x="4.7970915"
         sodipodi:role="line"
         id="tspan861">επαναχρησιμοποιηθούν.</tspan></text>
    <g
       id="g957"
       transform="matrix(0.05216871,0,0,0.05216871,78.828034,202.23383)">
      <g
         id="g900">
        <g
           id="g898"
           transform="translate(-61.410507,160.20132)">
          <path
             style="fill:#ffffff;stroke-width:0.09458279"
             d="m 251.83594,179.66602 h 4.15234 c -0.42254,-0.8079 -0.88159,-1.59712 -1.11719,-2.50977 -0.0525,-0.22161 -1.49314,-6.48502 0.57813,-13.57617 0.29302,-1.00286 -0.2823,-2.05278 -1.28516,-2.3457 -1.00258,-0.2935 -2.05278,0.2822 -2.3457,1.28515 -1.3356,4.57261 -1.39764,8.78716 -1.17774,11.67383 -1.09489,-0.53591 -2.31938,-1.29814 -3.3125,-2.49414 -1.61916,-1.95011 -2.26819,-4.70974 -1.92968,-8.20117 0.7734,-7.97541 7.33944,-14.68634 10.28125,-17.32227 2.37771,3.16805 7.54271,11.07351 6.76562,19.08789 -0.29103,3.0013 -1.22973,5.26054 -2.86914,6.9043 -0.73774,0.73964 -0.73582,1.93599 0.004,2.67383 0.73954,0.73774 1.93784,0.73582 2.67578,-0.004 2.28276,-2.28881 3.57618,-5.30092 3.95508,-9.20898 0.48256,-4.97629 -0.9015,-10.60943 -4.00391,-16.29102 -2.04488,-3.74482 -4.18858,-6.34831 -4.7207,-6.97266 -0.01,-0.0139 -0.0208,-0.0292 -0.0312,-0.043 -0.63257,-0.8277 -1.81605,-0.98854 -2.64649,-0.35938 -0.12276,0.0931 -3.04201,2.32224 -6.11718,6 -4.13526,4.94555 -6.57585,10.19146 -7.0586,15.16992 -0.43943,4.5326 0.49767,8.22751 2.78516,10.98242 2.07306,2.49671 4.78127,3.61573 6.23633,4.2168 0.17365,0.0718 0.37226,0.15531 0.52539,0.22266 0.0653,0.0773 0.13785,0.14687 0.21484,0.21289 0.0998,0.32745 0.32206,0.5813 0.44141,0.89844 z"
             id="path964"
             transform="matrix(10.572748,0,0,10.572748,-2553.6012,-1496.8861)"
             inkscape:connector-curvature="0" />
          <path
             style="fill:#ff5200;fill-opacity:1;stroke-width:0.09458279"
             d="m 281.41992,179.66602 h -4.25195 c -2.03608,3.8442 -5.95112,6.55664 -10.5957,6.55664 -4.57044,0 -8.5348,-2.63856 -10.58399,-6.55664 h -4.15234 c 2.30509,6.12521 8.07383,10.33984 14.73633,10.33984 6.80607,0 12.57978,-4.31712 14.84765,-10.33984 z"
             id="path962"
             transform="matrix(10.572748,0,0,10.572748,-2553.6012,-1496.8861)"
             inkscape:connector-curvature="0" />
          <path
             style="fill:#ffffff;stroke-width:0.09458279"
             d="m 276.99609,141.58008 c -1.04476,0 -1.89257,0.84586 -1.89257,1.89062 v 4.82422 h -1.70313 c -1.04476,0 -1.89062,0.84782 -1.89062,1.89258 v 4.82227 c 0,4.38637 3.07768,8.06757 7.1875,8.99609 v 10.08984 c 0,2.04166 -0.63429,3.88049 -1.5293,5.57032 h 4.25195 c 0.65523,-1.74007 1.06055,-3.60198 1.06055,-5.56836 v -10.03321 c 4.25102,-0.81984 7.47265,-4.56787 7.47265,-9.05468 v -4.82227 c 0,-1.04467 -0.84781,-1.89258 -1.89257,-1.89258 h -1.60743 v -4.82422 c 0,-1.04476 -0.84586,-1.89062 -1.89062,-1.89062 -1.04476,0 -1.89258,0.84586 -1.89258,1.89062 v 4.82422 h -3.7832 v -4.82422 c 0,-1.04476 -0.84586,-1.89062 -1.89063,-1.89062 z m -1.70312,10.49804 h 10.87695 v 2.93165 c 0,2.99884 -2.44061,5.43945 -5.43945,5.43945 -2.99884,0 -5.4375,-2.44061 -5.4375,-5.43945 z"
             id="path896"
             transform="matrix(10.572748,0,0,10.572748,-2553.6012,-1496.8861)"
             inkscape:connector-curvature="0" />
        </g>
      </g>
      <g
         id="g902" />
      <g
         id="g904" />
      <g
         id="g906" />
      <g
         id="g908" />
      <g
         id="g910" />
      <g
         id="g912" />
      <g
         id="g914" />
      <g
         id="g916" />
      <g
         id="g918" />
      <g
         id="g920" />
      <g
         id="g922" />
      <g
         id="g924" />
      <g
         id="g926" />
      <g
         id="g928" />
      <g
         id="g930" />
    </g>
    <path
       id="path1024"
       d="m 55.398232,179.16886 c 0,-0.1082 -0.02161,-0.21629 -0.06408,-0.3178 -0.08487,-0.20383 -0.246263,-0.36524 -0.450096,-0.45009 -0.101507,-0.0424 -0.209659,-0.064 -0.317817,-0.064 H 42.922706 c -0.0042,0 -0.0067,0.003 -0.01075,0.003 -0.0042,0 -0.0067,-0.003 -0.01076,-0.003 h -10.804898 -0.0042 -8.336419 v -3.29715 c 0,-0.34942 -0.216316,-0.64561 -0.521653,-0.76958 -0.05409,-0.0225 -0.113973,-0.0241 -0.172218,-0.0349 -0.04659,-0.008 -0.08902,-0.0275 -0.138108,-0.0275 -8.19e-4,0 -0.0016,8e-4 -0.0024,8e-4 -8.12e-4,0 -0.0016,-8e-4 -0.0024,-8e-4 H 12.108822 c -0.108156,0 -0.216317,0.0217 -0.317817,0.064 -0.102339,0.0424 -0.194682,0.10413 -0.271223,0.18056 l -4.9902439,4.99023 c -0.07654,0.0764 -0.138107,0.16887 -0.179708,0.27204 -0.04242,0.10153 -0.06489,0.20883 -0.06489,0.31699 v 10.81073 c 0,0.46008 0.371893,0.83197 0.8319787,0.83197 h 4.1848482 v 7.9953 l -4.6574139,4.64578 c -0.212153,0.15058 -0.3602441,0.38687 -0.3602441,0.66724 0,0.007 0.0031,0.0114 0.0031,0.0174 0,0.007 -0.0031,0.013 -0.0031,0.0183 v 8.1e-4 10.80905 c 0,0.001 7.871e-4,0.003 7.871e-4,0.005 0,0.001 -7.871e-4,0.003 -7.871e-4,0.005 v 10.81071 c 0,0.46008 0.3718961,0.83199 0.8319778,0.83199 h 10.8057322 0.0042 10.805733 c 0.0042,0 0.0067,-0.003 0.01076,-0.003 0.0042,0 0.0067,0.003 0.01075,0.003 h 10.809906 c 0.108156,0 0.216317,-0.0217 0.317816,-0.0642 0.102322,-0.0424 0.194684,-0.10315 0.271225,-0.18054 l 4.990206,-4.99019 c 0.0031,-0.003 0.0051,-0.008 0.0093,-0.013 0.0016,-0.001 0.0031,-0.001 0.0051,-0.003 l 4.991035,-4.99085 c 0.0021,-0.003 0.0042,-0.007 0.0067,-0.008 0.0021,-0.003 0.0051,-0.003 0.0075,-0.005 l 4.991021,-4.99088 c 0.07737,-0.0766 0.138108,-0.16889 0.180541,-0.27123 0.04243,-0.10152 0.06406,-0.20965 0.06406,-0.3178 v -9.97542 c 0,-0.001 -8.64e-4,-0.003 -8.64e-4,-0.005 0,-0.001 8.64e-4,-0.003 8.64e-4,-0.005 V 190.8501 c 0,-0.007 -0.0031,-0.013 -0.0042,-0.0182 8.62e-4,-0.007 0.0042,-0.013 0.0042,-0.0182 v -11.64399 z m -42.920095,21.67887 h 4.613319 v 3.30378 H 9.1660316 Z m -0.02497,-24.976 h 8.457058 l -3.327915,3.32793 H 9.1252506 Z m 6.306391,4.50435 3.332906,-3.3329 v 2.08077 c -8.18e-4,0.0163 -0.0091,0.0292 -0.0091,0.045 0,0.0163 0.0075,0.0282 0.0083,0.0442 v 6.29308 l -3.066672,3.06585 c -0.01745,0.0166 -0.03329,0.0316 -0.04991,0.0499 l -0.217145,0.21715 v -8.46289 z m 4.751431,6.06429 c 0.07737,-0.0766 0.138108,-0.16889 0.180539,-0.27123 0.04242,-0.10152 0.06406,-0.20965 0.06406,-0.31782 v -0.84362 h 2.155657 l -3.341225,3.34123 h -0.96759 z m 9.762434,-6.4395 h 8.452897 l -3.342888,3.34287 h -0.465901 c -0.0042,0 -0.0067,0.003 -0.01075,0.003 -0.0042,0 -0.0067,-0.003 -0.01076,-0.003 h -7.966185 z m 19.284426,0 -3.342891,3.34287 h -8.477859 l 3.342891,-3.34287 z m 1.176414,20.48079 -3.341223,3.34123 v -7.96703 c 0,-0.007 -0.0031,-0.013 -0.0042,-0.0182 8.62e-4,-0.007 0.0042,-0.013 0.0042,-0.0182 v -0.48921 l 3.341223,-3.34123 z m -34.978862,3.66985 v -9.1476 h 9.145938 v 9.14677 h -9.145937 z m 9.508678,-19.14381 h 8.457061 l -3.341225,3.34123 h -8.456227 z m 12.131909,9.50952 3.327915,-3.32793 v 8.45791 l -3.327915,3.32791 z m 4.991871,-4.99189 3.341227,-3.3412 v 8.45622 l -3.341227,3.34121 z m -1.176415,-1.17723 h -8.477856 l 3.341224,-3.34123 h 8.477862 z m -10.141819,1.66394 h 8.47786 l -3.327914,3.32791 h -8.477859 z m -4.48353,4.99187 h 9.145936 v 9.14677 h -9.145936 z m 10.809893,10.32404 3.327915,-3.32792 v 8.49367 l -3.327915,3.32789 z m 4.991871,-4.99356 3.341227,-3.34121 v 8.49533 l -3.341227,3.34123 z m 8.346404,-10.69923 -3.341223,3.34123 v -8.45789 l 3.341223,-3.34123 z m -30.474531,0.37688 h 8.45706 l -3.327915,3.32791 H 19.931819 Z M 7.9488382,205.81547 h 9.1417738 v 9.18256 H 7.9488382 Z m 10.8107198,0 h 9.141781 v 9.18256 h -9.141781 z m 10.826537,0 h 9.145936 v 9.18256 h -9.145936 z m 10.809893,10.35896 3.327915,-3.3279 v 8.46621 l -3.327915,3.32789 z m 4.991871,-4.99186 3.341227,-3.34123 v 8.46455 l -3.341227,3.34123 z m 5.005181,-5.00686 3.341223,-3.34122 v 8.46621 l -3.341223,3.34123 z m -19.472451,-26.17484 -3.342891,3.34287 H 23.75559 v -3.34287 z m -22.9717508,0.86275 h 9.1459328 v 9.14677 H 7.9488382 Z m 9.9729198,10.81156 c 0.0023,0 0.0051,10e-4 0.0083,10e-4 0.212987,0 0.425975,-0.0815 0.58821,-0.24377 l 1.420186,-1.42017 h 0.968424 l -3.570853,3.57083 c -0.07737,0.0766 -0.138091,0.1689 -0.180537,0.27123 -0.04244,0.10153 -0.06408,0.20965 -0.06408,0.31782 v 5.01102 h -4.124902 v -7.50851 z m -9.9729198,24.9868 h 9.1417738 v 9.15509 H 7.9488382 Z m 10.8107198,9.15509 v -9.15509 h 9.141781 v 9.15509 z m 10.826537,-9.15509 h 9.145936 v 9.15509 h -9.145936 z"
       inkscape:connector-curvature="0"
       style="fill:#ffffff;stroke-width:0.8319782" />
  </g>
</svg>
