<?xml version="1.0" encoding="UTF-8" standalone="no"?>
<!-- Created with Inkscape (http://www.inkscape.org/) -->

<svg
   xmlns:dc="http://purl.org/dc/elements/1.1/"
   xmlns:cc="http://creativecommons.org/ns#"
   xmlns:rdf="http://www.w3.org/1999/02/22-rdf-syntax-ns#"
   xmlns:svg="http://www.w3.org/2000/svg"
   xmlns="http://www.w3.org/2000/svg"
   xmlns:sodipodi="http://sodipodi.sourceforge.net/DTD/sodipodi-0.dtd"
   xmlns:inkscape="http://www.inkscape.org/namespaces/inkscape"
   width="105mm"
   height="148mm"
   viewBox="0 0 105 148"
   version="1.1"
   id="svg8"
   inkscape:version="0.92.2 (5c3e80d, 2017-08-06)"
   sodipodi:docname="c06_local production_el.svg"
   inkscape:export-filename="C:\Users\ioarvanit\Desktop\New Design Cards\Προτάσεις\Transfer.png"
   inkscape:export-xdpi="90"
   inkscape:export-ydpi="90">
  <defs
     id="defs2" />
  <sodipodi:namedview
     id="base"
     pagecolor="#ffffff"
     bordercolor="#666666"
     borderopacity="1.0"
     inkscape:pageopacity="1"
     inkscape:pageshadow="2"
     inkscape:zoom="0.98999998"
     inkscape:cx="-80.928987"
     inkscape:cy="221.95928"
     inkscape:document-units="mm"
     inkscape:current-layer="layer1"
     showgrid="false"
     inkscape:window-width="1920"
     inkscape:window-height="1017"
     inkscape:window-x="-8"
     inkscape:window-y="-8"
     inkscape:window-maximized="1" />
  <metadata
     id="metadata5">
    <rdf:RDF>
      <cc:Work
         rdf:about="">
        <dc:format>image/svg+xml</dc:format>
        <dc:type
           rdf:resource="http://purl.org/dc/dcmitype/StillImage" />
        <dc:title />
      </cc:Work>
    </rdf:RDF>
  </metadata>
  <g
     inkscape:label="Layer 1"
     inkscape:groupmode="layer"
     id="layer1"
     transform="translate(0,-149.00001)">
    <rect
       y="149"
       x="0.00035554456"
       height="148"
       width="104.99964"
       id="rect1538"
       style="opacity:1;fill:#ffffff;fill-opacity:1;stroke:none;stroke-width:3.04893064;stroke-linecap:round;stroke-miterlimit:4;stroke-dasharray:none;stroke-dashoffset:0;stroke-opacity:1" />
    <rect
       style="opacity:1;fill:#ff5200;fill-opacity:1;stroke:none;stroke-width:2.27810836;stroke-linecap:round;stroke-miterlimit:4;stroke-dasharray:none;stroke-dashoffset:0;stroke-opacity:1"
       id="rect826-8"
       width="104.99998"
       height="82.625496"
       x="0"
       y="149" />
    <text
       xml:space="preserve"
       style="font-style:normal;font-weight:normal;font-size:20.71850967px;line-height:1.25;font-family:sans-serif;letter-spacing:0px;word-spacing:0px;fill:#ffffff;fill-opacity:1;stroke:none;stroke-width:0.51796269"
       x="5.1614013"
       y="168.7086"
       id="text832-3"><tspan
         sodipodi:role="line"
         id="tspan830-9"
         x="5.1614013"
         y="168.7086"
         style="font-style:normal;font-variant:normal;font-weight:300;font-stretch:normal;font-family:Aka-Acid-Sunn;-inkscape-font-specification:'Aka-Acid-Sunn Light';fill:#ffffff;fill-opacity:1;stroke-width:0.51796269">ΤΟΠΙΚΗ ΠΑΡΑΓΩΓΗ</tspan></text>
    <text
       xml:space="preserve"
       style="font-style:normal;font-weight:normal;font-size:12.02059937px;line-height:1.25;font-family:sans-serif;letter-spacing:0px;word-spacing:0px;fill:#ff5200;fill-opacity:1;stroke:none;stroke-width:0.90154481"
       x="67.01091"
       y="293.47055"
       id="text844-7"><tspan
         id="tspan842-3"
         sodipodi:role="line"
         x="67.01091"
         y="293.47055"
         style="font-style:normal;font-variant:normal;font-weight:normal;font-stretch:normal;font-family:Aka-Acid-Sunn;-inkscape-font-specification:Aka-Acid-Sunn;fill:#ff5200;fill-opacity:1;stroke-width:0.90154481">ΑΕΙΦΟΡΙΑ-06</tspan></text>
    <text
       id="text887-4"
       y="249.74886"
       x="4.7970915"
       style="font-style:normal;font-weight:normal;font-size:5.2211113px;line-height:1.25;font-family:sans-serif;letter-spacing:0px;word-spacing:0px;fill:#ff5200;fill-opacity:1;stroke:none;stroke-width:0.39158335"
       xml:space="preserve"><tspan
         style="font-style:normal;font-variant:normal;font-weight:normal;font-stretch:normal;font-size:7.43344688px;font-family:Aka-Acid-GeosansLight;-inkscape-font-specification:Aka-Acid-GeosansLight;fill:#ff5200;fill-opacity:1;stroke-width:0.39158335"
         y="249.74886"
         x="4.7970915"
         sodipodi:role="line"
         id="tspan1439">Το προϊόν πρέπει να </tspan><tspan
         style="font-style:normal;font-variant:normal;font-weight:normal;font-stretch:normal;font-size:7.43344688px;font-family:Aka-Acid-GeosansLight;-inkscape-font-specification:Aka-Acid-GeosansLight;fill:#ff5200;fill-opacity:1;stroke-width:0.39158335"
         y="259.04065"
         x="4.7970915"
         sodipodi:role="line"
         id="tspan852">κατασκευάζεται και να αξιοποιεί</tspan><tspan
         style="font-style:normal;font-variant:normal;font-weight:normal;font-stretch:normal;font-size:7.43344688px;font-family:Aka-Acid-GeosansLight;-inkscape-font-specification:Aka-Acid-GeosansLight;fill:#ff5200;fill-opacity:1;stroke-width:0.39158335"
         y="268.33246"
         x="4.7970915"
         sodipodi:role="line"
         id="tspan854">πόρους από τον τόπο στον οποίο </tspan><tspan
         style="font-style:normal;font-variant:normal;font-weight:normal;font-stretch:normal;font-size:7.43344688px;font-family:Aka-Acid-GeosansLight;-inkscape-font-specification:Aka-Acid-GeosansLight;fill:#ff5200;fill-opacity:1;stroke-width:0.39158335"
         y="277.62427"
         x="4.7970915"
         sodipodi:role="line"
         id="tspan864">χρησιμοποιείται.</tspan></text>
    <g
       id="g957"
       transform="matrix(0.05216871,0,0,0.05216871,78.828034,202.23383)">
      <g
         id="g900">
        <g
           id="g898"
           transform="translate(-61.410507,160.20132)">
          <path
             style="fill:#ffffff;stroke-width:0.09458279"
             d="m 251.83594,179.66602 h 4.15234 c -0.42254,-0.8079 -0.88159,-1.59712 -1.11719,-2.50977 -0.0525,-0.22161 -1.49314,-6.48502 0.57813,-13.57617 0.29302,-1.00286 -0.2823,-2.05278 -1.28516,-2.3457 -1.00258,-0.2935 -2.05278,0.2822 -2.3457,1.28515 -1.3356,4.57261 -1.39764,8.78716 -1.17774,11.67383 -1.09489,-0.53591 -2.31938,-1.29814 -3.3125,-2.49414 -1.61916,-1.95011 -2.26819,-4.70974 -1.92968,-8.20117 0.7734,-7.97541 7.33944,-14.68634 10.28125,-17.32227 2.37771,3.16805 7.54271,11.07351 6.76562,19.08789 -0.29103,3.0013 -1.22973,5.26054 -2.86914,6.9043 -0.73774,0.73964 -0.73582,1.93599 0.004,2.67383 0.73954,0.73774 1.93784,0.73582 2.67578,-0.004 2.28276,-2.28881 3.57618,-5.30092 3.95508,-9.20898 0.48256,-4.97629 -0.9015,-10.60943 -4.00391,-16.29102 -2.04488,-3.74482 -4.18858,-6.34831 -4.7207,-6.97266 -0.01,-0.0139 -0.0208,-0.0292 -0.0312,-0.043 -0.63257,-0.8277 -1.81605,-0.98854 -2.64649,-0.35938 -0.12276,0.0931 -3.04201,2.32224 -6.11718,6 -4.13526,4.94555 -6.57585,10.19146 -7.0586,15.16992 -0.43943,4.5326 0.49767,8.22751 2.78516,10.98242 2.07306,2.49671 4.78127,3.61573 6.23633,4.2168 0.17365,0.0718 0.37226,0.15531 0.52539,0.22266 0.0653,0.0773 0.13785,0.14687 0.21484,0.21289 0.0998,0.32745 0.32206,0.5813 0.44141,0.89844 z"
             id="path964"
             transform="matrix(10.572748,0,0,10.572748,-2553.6012,-1496.8861)"
             inkscape:connector-curvature="0" />
          <path
             style="fill:#ff5200;fill-opacity:1;stroke-width:0.09458279"
             d="m 281.41992,179.66602 h -4.25195 c -2.03608,3.8442 -5.95112,6.55664 -10.5957,6.55664 -4.57044,0 -8.5348,-2.63856 -10.58399,-6.55664 h -4.15234 c 2.30509,6.12521 8.07383,10.33984 14.73633,10.33984 6.80607,0 12.57978,-4.31712 14.84765,-10.33984 z"
             id="path962"
             transform="matrix(10.572748,0,0,10.572748,-2553.6012,-1496.8861)"
             inkscape:connector-curvature="0" />
          <path
             style="fill:#ffffff;stroke-width:0.09458279"
             d="m 276.99609,141.58008 c -1.04476,0 -1.89257,0.84586 -1.89257,1.89062 v 4.82422 h -1.70313 c -1.04476,0 -1.89062,0.84782 -1.89062,1.89258 v 4.82227 c 0,4.38637 3.07768,8.06757 7.1875,8.99609 v 10.08984 c 0,2.04166 -0.63429,3.88049 -1.5293,5.57032 h 4.25195 c 0.65523,-1.74007 1.06055,-3.60198 1.06055,-5.56836 v -10.03321 c 4.25102,-0.81984 7.47265,-4.56787 7.47265,-9.05468 v -4.82227 c 0,-1.04467 -0.84781,-1.89258 -1.89257,-1.89258 h -1.60743 v -4.82422 c 0,-1.04476 -0.84586,-1.89062 -1.89062,-1.89062 -1.04476,0 -1.89258,0.84586 -1.89258,1.89062 v 4.82422 h -3.7832 v -4.82422 c 0,-1.04476 -0.84586,-1.89062 -1.89063,-1.89062 z m -1.70312,10.49804 h 10.87695 v 2.93165 c 0,2.99884 -2.44061,5.43945 -5.43945,5.43945 -2.99884,0 -5.4375,-2.44061 -5.4375,-5.43945 z"
             id="path896"
             transform="matrix(10.572748,0,0,10.572748,-2553.6012,-1496.8861)"
             inkscape:connector-curvature="0" />
        </g>
      </g>
      <g
         id="g902" />
      <g
         id="g904" />
      <g
         id="g906" />
      <g
         id="g908" />
      <g
         id="g910" />
      <g
         id="g912" />
      <g
         id="g914" />
      <g
         id="g916" />
      <g
         id="g918" />
      <g
         id="g920" />
      <g
         id="g922" />
      <g
         id="g924" />
      <g
         id="g926" />
      <g
         id="g928" />
      <g
         id="g930" />
    </g>
    <g
       id="g1419"
       transform="matrix(0.1137299,0,0,0.1137299,5.5119069,171.4808)"
       style="fill:#ffffff">
      <path
         id="path1413"
         d="M 256,0 C 146.133,0 56.75,89.383 56.75,199.25 c 0,44.269 14.224,86.192 41.134,121.237 0,0 140.286,182.712 140.286,182.712 4.301,5.593 10.8,8.801 17.83,8.801 7.03,0 13.528,-3.208 17.834,-8.806 L 414.115,320.487 C 441.026,285.442 455.25,243.519 455.25,199.25 455.25,89.383 365.867,0 256,0 Z M 402.218,311.352 261.939,494.055 C 260.5,495.926 258.335,497 256,497 c -2.335,0 -4.5,-1.074 -5.936,-2.94 L 109.782,311.352 C 84.901,278.95 71.75,240.186 71.75,199.25 71.75,97.654 154.404,15 256,15 c 101.596,0 184.25,82.654 184.25,184.25 0,40.936 -13.151,79.7 -38.032,112.102 z"
         inkscape:connector-curvature="0"
         style="fill:#ffffff" />
      <path
         id="path1415"
         d="m 143.5,199.25 c 0,62.033 50.467,112.5 112.5,112.5 62.055,-0.023 112.5,-50.481 112.5,-112.5 0,-4.142 -3.357,-7.5 -7.5,-7.5 -47.801,0 -88.733,29.966 -105,72.099 -16.267,-42.133 -57.2,-72.099 -105,-72.099 -4.142,0 -7.5,3.358 -7.5,7.5 z m 209.69,7.81 c -2.443,30.674 -19.156,57.377 -43.468,73.495 0.189,-0.264 0.381,-0.522 0.568,-0.789 12.957,-18.431 20.971,-42.738 22.802,-68.925 6.45,-1.93 13.169,-3.23 20.098,-3.781 z m -35.764,10.005 c -2.469,20.659 -9.188,39.54 -19.406,54.075 -9.63,13.699 -21.542,22.272 -34.159,24.805 2.93,-34.563 23.969,-64.028 53.565,-78.88 z m -69.287,78.874 c -12.622,-2.54 -24.532,-11.113 -34.159,-24.806 -10.217,-14.532 -16.936,-33.411 -19.406,-54.069 29.595,14.852 50.633,44.315 53.565,78.875 z m -69.232,-85.098 c 1.831,26.186 9.846,50.491 22.802,68.92 0.19,0.27 0.384,0.532 0.575,0.799 -24.316,-16.118 -41.032,-42.823 -43.475,-73.5 6.93,0.551 13.649,1.851 20.098,3.781 z"
         inkscape:connector-curvature="0"
         style="fill:#ffffff" />
      <path
         id="path1417"
         d="m 256,56.75 c -32.694,0 -63.451,10.779 -88.944,31.171 -3.234,2.587 -3.759,7.307 -1.172,10.542 2.588,3.235 7.309,3.759 10.542,1.172 C 199.231,81.392 226.748,71.75 256,71.75 c 70.304,0 127.5,57.196 127.5,127.5 0,70.304 -57.196,127.5 -127.5,127.5 -70.304,0 -127.5,-57.196 -127.5,-127.5 0,-29.252 9.642,-56.769 27.885,-79.574 2.587,-3.235 2.063,-7.955 -1.172,-10.542 -3.236,-2.587 -7.955,-2.063 -10.542,1.172 -20.392,25.493 -31.171,56.25 -31.171,88.944 0,78.575 63.925,142.5 142.5,142.5 78.575,0 142.5,-63.925 142.5,-142.5 0,-78.575 -63.925,-142.5 -142.5,-142.5 z"
         inkscape:connector-curvature="0"
         style="fill:#ffffff" />
    </g>
  </g>
</svg>
