<?xml version="1.0" encoding="UTF-8" standalone="no"?>
<!-- Created with Inkscape (http://www.inkscape.org/) -->

<svg
   xmlns:dc="http://purl.org/dc/elements/1.1/"
   xmlns:cc="http://creativecommons.org/ns#"
   xmlns:rdf="http://www.w3.org/1999/02/22-rdf-syntax-ns#"
   xmlns:svg="http://www.w3.org/2000/svg"
   xmlns="http://www.w3.org/2000/svg"
   xmlns:sodipodi="http://sodipodi.sourceforge.net/DTD/sodipodi-0.dtd"
   xmlns:inkscape="http://www.inkscape.org/namespaces/inkscape"
   width="105mm"
   height="148mm"
   viewBox="0 0 105 148"
   version="1.1"
   id="svg8"
   inkscape:version="0.92.2 (5c3e80d, 2017-08-06)"
   sodipodi:docname="c07_low consumption_el.svg"
   inkscape:export-filename="C:\Users\ioarvanit\Desktop\New Design Cards\Προτάσεις\Transfer.png"
   inkscape:export-xdpi="90"
   inkscape:export-ydpi="90">
  <defs
     id="defs2" />
  <sodipodi:namedview
     id="base"
     pagecolor="#ffffff"
     bordercolor="#666666"
     borderopacity="1.0"
     inkscape:pageopacity="1"
     inkscape:pageshadow="2"
     inkscape:zoom="0.98999998"
     inkscape:cx="-80.928987"
     inkscape:cy="221.95928"
     inkscape:document-units="mm"
     inkscape:current-layer="layer1"
     showgrid="false"
     inkscape:window-width="1920"
     inkscape:window-height="1017"
     inkscape:window-x="-8"
     inkscape:window-y="-8"
     inkscape:window-maximized="1" />
  <metadata
     id="metadata5">
    <rdf:RDF>
      <cc:Work
         rdf:about="">
        <dc:format>image/svg+xml</dc:format>
        <dc:type
           rdf:resource="http://purl.org/dc/dcmitype/StillImage" />
        <dc:title />
      </cc:Work>
    </rdf:RDF>
  </metadata>
  <g
     inkscape:label="Layer 1"
     inkscape:groupmode="layer"
     id="layer1"
     transform="translate(0,-149.00001)">
    <rect
       y="149"
       x="0.00035554456"
       height="148"
       width="104.99964"
       id="rect1538"
       style="opacity:1;fill:#ffffff;fill-opacity:1;stroke:none;stroke-width:3.04893064;stroke-linecap:round;stroke-miterlimit:4;stroke-dasharray:none;stroke-dashoffset:0;stroke-opacity:1" />
    <rect
       style="opacity:1;fill:#ff5200;fill-opacity:1;stroke:none;stroke-width:2.27810836;stroke-linecap:round;stroke-miterlimit:4;stroke-dasharray:none;stroke-dashoffset:0;stroke-opacity:1"
       id="rect826-8"
       width="104.99998"
       height="82.625496"
       x="0"
       y="149" />
    <text
       xml:space="preserve"
       style="font-style:normal;font-weight:normal;font-size:20.71850967px;line-height:1.25;font-family:sans-serif;letter-spacing:0px;word-spacing:0px;fill:#ffffff;fill-opacity:1;stroke:none;stroke-width:0.51796269"
       x="5.1614013"
       y="168.7086"
       id="text832-3"><tspan
         sodipodi:role="line"
         id="tspan830-9"
         x="5.1614013"
         y="168.7086"
         style="font-style:normal;font-variant:normal;font-weight:300;font-stretch:normal;font-family:Aka-Acid-Sunn;-inkscape-font-specification:'Aka-Acid-Sunn Light';fill:#ffffff;fill-opacity:1;stroke-width:0.51796269">ΧΑΜΗΛΗ ΚΑΤΑΝΑΛΩΣΗ</tspan></text>
    <text
       xml:space="preserve"
       style="font-style:normal;font-weight:normal;font-size:12.02059937px;line-height:1.25;font-family:sans-serif;letter-spacing:0px;word-spacing:0px;fill:#ff5200;fill-opacity:1;stroke:none;stroke-width:0.90154481"
       x="67.01091"
       y="293.47055"
       id="text844-7"><tspan
         id="tspan842-3"
         sodipodi:role="line"
         x="67.01091"
         y="293.47055"
         style="font-style:normal;font-variant:normal;font-weight:normal;font-stretch:normal;font-family:Aka-Acid-Sunn;-inkscape-font-specification:Aka-Acid-Sunn;fill:#ff5200;fill-opacity:1;stroke-width:0.90154481">ΑΕΙΦΟΡΙΑ-07</tspan></text>
    <text
       id="text887-4"
       y="249.74886"
       x="4.7970915"
       style="font-style:normal;font-weight:normal;font-size:5.2211113px;line-height:1.25;font-family:sans-serif;letter-spacing:0px;word-spacing:0px;fill:#ff5200;fill-opacity:1;stroke:none;stroke-width:0.39158335"
       xml:space="preserve"><tspan
         style="font-style:normal;font-variant:normal;font-weight:normal;font-stretch:normal;font-size:7.43344688px;font-family:Aka-Acid-GeosansLight;-inkscape-font-specification:Aka-Acid-GeosansLight;fill:#ff5200;fill-opacity:1;stroke-width:0.39158335"
         y="249.74886"
         x="4.7970915"
         sodipodi:role="line"
         id="tspan1465">Προϊόν χαμηλής κατανάλωσης που</tspan><tspan
         style="font-style:normal;font-variant:normal;font-weight:normal;font-stretch:normal;font-size:7.43344688px;font-family:Aka-Acid-GeosansLight;-inkscape-font-specification:Aka-Acid-GeosansLight;fill:#ff5200;fill-opacity:1;stroke-width:0.39158335"
         y="259.04065"
         x="4.7970915"
         sodipodi:role="line"
         id="tspan845">προωθεί παράλληλα την</tspan><tspan
         style="font-style:normal;font-variant:normal;font-weight:normal;font-stretch:normal;font-size:7.43344688px;font-family:Aka-Acid-GeosansLight;-inkscape-font-specification:Aka-Acid-GeosansLight;fill:#ff5200;fill-opacity:1;stroke-width:0.39158335"
         y="268.33246"
         x="4.7970915"
         sodipodi:role="line"
         id="tspan847">οικονομική του χρήση από τους </tspan><tspan
         style="font-style:normal;font-variant:normal;font-weight:normal;font-stretch:normal;font-size:7.43344688px;font-family:Aka-Acid-GeosansLight;-inkscape-font-specification:Aka-Acid-GeosansLight;fill:#ff5200;fill-opacity:1;stroke-width:0.39158335"
         y="277.62427"
         x="4.7970915"
         sodipodi:role="line"
         id="tspan853">ενδιαφερόμενους.</tspan></text>
    <g
       id="g957"
       transform="matrix(0.05216871,0,0,0.05216871,78.828034,202.23383)">
      <g
         id="g900">
        <g
           id="g898"
           transform="translate(-61.410507,160.20132)">
          <path
             style="fill:#ffffff;stroke-width:0.09458279"
             d="m 251.83594,179.66602 h 4.15234 c -0.42254,-0.8079 -0.88159,-1.59712 -1.11719,-2.50977 -0.0525,-0.22161 -1.49314,-6.48502 0.57813,-13.57617 0.29302,-1.00286 -0.2823,-2.05278 -1.28516,-2.3457 -1.00258,-0.2935 -2.05278,0.2822 -2.3457,1.28515 -1.3356,4.57261 -1.39764,8.78716 -1.17774,11.67383 -1.09489,-0.53591 -2.31938,-1.29814 -3.3125,-2.49414 -1.61916,-1.95011 -2.26819,-4.70974 -1.92968,-8.20117 0.7734,-7.97541 7.33944,-14.68634 10.28125,-17.32227 2.37771,3.16805 7.54271,11.07351 6.76562,19.08789 -0.29103,3.0013 -1.22973,5.26054 -2.86914,6.9043 -0.73774,0.73964 -0.73582,1.93599 0.004,2.67383 0.73954,0.73774 1.93784,0.73582 2.67578,-0.004 2.28276,-2.28881 3.57618,-5.30092 3.95508,-9.20898 0.48256,-4.97629 -0.9015,-10.60943 -4.00391,-16.29102 -2.04488,-3.74482 -4.18858,-6.34831 -4.7207,-6.97266 -0.01,-0.0139 -0.0208,-0.0292 -0.0312,-0.043 -0.63257,-0.8277 -1.81605,-0.98854 -2.64649,-0.35938 -0.12276,0.0931 -3.04201,2.32224 -6.11718,6 -4.13526,4.94555 -6.57585,10.19146 -7.0586,15.16992 -0.43943,4.5326 0.49767,8.22751 2.78516,10.98242 2.07306,2.49671 4.78127,3.61573 6.23633,4.2168 0.17365,0.0718 0.37226,0.15531 0.52539,0.22266 0.0653,0.0773 0.13785,0.14687 0.21484,0.21289 0.0998,0.32745 0.32206,0.5813 0.44141,0.89844 z"
             id="path964"
             transform="matrix(10.572748,0,0,10.572748,-2553.6012,-1496.8861)"
             inkscape:connector-curvature="0" />
          <path
             style="fill:#ff5200;fill-opacity:1;stroke-width:0.09458279"
             d="m 281.41992,179.66602 h -4.25195 c -2.03608,3.8442 -5.95112,6.55664 -10.5957,6.55664 -4.57044,0 -8.5348,-2.63856 -10.58399,-6.55664 h -4.15234 c 2.30509,6.12521 8.07383,10.33984 14.73633,10.33984 6.80607,0 12.57978,-4.31712 14.84765,-10.33984 z"
             id="path962"
             transform="matrix(10.572748,0,0,10.572748,-2553.6012,-1496.8861)"
             inkscape:connector-curvature="0" />
          <path
             style="fill:#ffffff;stroke-width:0.09458279"
             d="m 276.99609,141.58008 c -1.04476,0 -1.89257,0.84586 -1.89257,1.89062 v 4.82422 h -1.70313 c -1.04476,0 -1.89062,0.84782 -1.89062,1.89258 v 4.82227 c 0,4.38637 3.07768,8.06757 7.1875,8.99609 v 10.08984 c 0,2.04166 -0.63429,3.88049 -1.5293,5.57032 h 4.25195 c 0.65523,-1.74007 1.06055,-3.60198 1.06055,-5.56836 v -10.03321 c 4.25102,-0.81984 7.47265,-4.56787 7.47265,-9.05468 v -4.82227 c 0,-1.04467 -0.84781,-1.89258 -1.89257,-1.89258 h -1.60743 v -4.82422 c 0,-1.04476 -0.84586,-1.89062 -1.89062,-1.89062 -1.04476,0 -1.89258,0.84586 -1.89258,1.89062 v 4.82422 h -3.7832 v -4.82422 c 0,-1.04476 -0.84586,-1.89062 -1.89063,-1.89062 z m -1.70312,10.49804 h 10.87695 v 2.93165 c 0,2.99884 -2.44061,5.43945 -5.43945,5.43945 -2.99884,0 -5.4375,-2.44061 -5.4375,-5.43945 z"
             id="path896"
             transform="matrix(10.572748,0,0,10.572748,-2553.6012,-1496.8861)"
             inkscape:connector-curvature="0" />
        </g>
      </g>
      <g
         id="g902" />
      <g
         id="g904" />
      <g
         id="g906" />
      <g
         id="g908" />
      <g
         id="g910" />
      <g
         id="g912" />
      <g
         id="g914" />
      <g
         id="g916" />
      <g
         id="g918" />
      <g
         id="g920" />
      <g
         id="g922" />
      <g
         id="g924" />
      <g
         id="g926" />
      <g
         id="g928" />
      <g
         id="g930" />
    </g>
    <path
       id="path1450"
       d="m 40.160028,192.69721 c 0.199015,-0.51372 0.130769,-1.09095 -0.182396,-1.54414 -0.635793,-0.92 -1.856746,-0.97415 -2.679557,-0.19141 -2.162975,2.05774 -4.303276,4.07333 -6.456235,6.11324 -0.415533,0.39374 -0.620603,0.92848 -0.562373,1.46697 0.05757,0.53342 0.36743,1.00642 0.85022,1.29801 1.028542,0.62115 2.065229,1.20576 3.09289,1.79311 -0.581196,1.38619 -1.115281,2.6013 -1.642211,3.96294 -0.317896,0.82137 0.04612,1.73302 0.846698,2.12048 0.628529,0.30413 1.354144,0.24513 2.014265,-0.38318 2.137438,-2.03473 4.319676,-4.08588 6.458215,-6.11445 0.420267,-0.39868 0.624456,-0.93696 0.560172,-1.47676 -0.06506,-0.54597 -0.39561,-1.02777 -0.906799,-1.32178 -1.01247,-0.5823 -2.022409,-1.16933 -3.033449,-1.75427 0.550816,-1.29404 1.122766,-2.6319 1.64056,-3.96876 z m -3.40011,3.88829 c -0.197474,0.46661 -0.03214,0.95226 0.411681,1.20852 1.18661,0.685 2.370356,1.37473 3.558177,2.05763 0.121743,0.07 0.125155,0.0821 0.03335,0.16919 -1.738746,1.64948 -6.44996,6.16036 -6.597241,6.21781 -0.01607,-0.006 -0.05581,-0.0208 -0.04568,-0.0469 0.585489,-1.5132 1.204772,-2.92767 1.86258,-4.48425 0.163792,-0.38757 0.09896,-0.91086 -0.415093,-1.20685 -1.192994,-0.68677 -2.399527,-1.35856 -3.584595,-2.07426 -0.08817,-0.0532 -0.08443,-0.0781 -0.0056,-0.15278 2.297487,-2.17685 6.379731,-6.08727 6.58282,-6.21484 0.0437,0.01 0.05988,0.0329 0.0601,0.0423 -0.584498,1.50694 -1.234271,3.00495 -1.860489,4.48446 z m 27.774918,-5.97113 c -0.08608,-0.44767 -0.519115,-0.74069 -0.96657,-0.65472 l -5.470512,1.05231 c -2.546367,0.48896 -5.235609,-0.067 -7.378994,-1.52508 l -3.234776,-2.20096 c -0.377117,-0.25648 -0.890507,-0.15873 -1.146982,0.21806 -0.256475,0.377 -0.158838,0.89051 0.218059,1.14698 l 3.234886,2.20107 c 2.504871,1.70439 5.652908,2.35131 8.61943,1.78145 l 5.470733,-1.05243 c 0.447787,-0.0862 0.740917,-0.519 0.654726,-0.96668 z m -39.655543,-5.63958 12.263797,-2.97138 c 0.210353,0.3211 0.488072,0.59628 0.82204,0.80301 l 6.209556,4.2249 c 0.373045,0.25427 0.888196,0.16202 1.146873,-0.21817 0.256475,-0.3769 0.158839,-0.8904 -0.218169,-1.14687 l -6.225738,-4.23591 c -0.234239,-0.15477 -0.404636,-0.33353 -0.482458,-0.61257 -0.04877,-0.17513 -0.06583,-0.47762 0.137483,-0.7899 0.0051,-0.008 0.01134,-0.0155 0.02422,-0.0315 0.426761,-0.52638 1.033825,-0.4971 1.651566,-0.29048 l 8.650582,2.59116 c 0.436889,0.13099 0.896892,-0.11701 1.027772,-0.55378 0.130877,-0.43679 -0.117011,-0.8969 -0.553788,-1.02778 l -8.60358,-2.57707 c -1.237795,-0.5266 -2.655562,-0.18933 -3.459,0.82291 -0.330225,0.41598 -0.529021,0.92739 -0.559071,1.4476 l -12.226812,2.96245 c -0.71901,0.18218 -1.433397,-0.36897 -1.433397,-1.1166 0,-0.437 0.242716,-0.83128 0.632822,-1.02854 l 16.531407,-8.3405 c 0.642289,-0.3245 1.39223,-0.35312 2.057854,-0.0792 l 13.961262,5.74239 c 0.402547,0.166 0.825343,0.29809 1.255298,0.38968 0.686317,0.14607 1.45079,0.24767 2.140851,0.14298 l 4.232387,-0.72429 c 0.449435,-0.077 0.751372,-0.50359 0.674431,-0.95304 -0.07695,-0.44942 -0.504036,-0.75126 -0.953033,-0.67443 l -4.188134,0.71671 c -0.507446,0.0292 -1.016436,-0.01 -1.513203,-0.11327 -0.355102,-0.0745 -0.686428,-0.17271 -1.020068,-0.31108 L 42.901997,171.2799 c -1.109557,-0.45703 -2.3599,-0.40881 -3.43049,0.13199 l -16.531738,8.34071 c -0.949618,0.48015 -1.53951,1.43901 -1.53951,2.50223 0,1.79048 1.726968,3.16807 3.479034,2.71996 z m 4.533332,23.56212 c -0.245357,0.38427 -0.13253,0.8948 0.251853,1.13994 2.002045,1.27742 4.320887,1.95273 6.705994,1.95273 6.882336,0 12.481636,-5.5992 12.481636,-12.48164 0,-6.88244 -5.59919,-12.48163 -12.481636,-12.48163 -6.882445,0 -12.481635,5.59919 -12.481635,12.48163 0,3.0285 1.098219,5.94923 3.09234,8.22404 0.300615,0.34277 0.82226,0.37724 1.165034,0.0766 0.342885,-0.30051 0.377118,-0.82216 0.07661,-1.16493 -1.73005,-1.97375 -2.68286,-4.5079 -2.68286,-7.13573 0,-5.9719 4.858494,-10.8305 10.830508,-10.8305 5.972014,0 10.830509,4.85849 10.830509,10.8305 0,5.97191 -4.858495,10.83051 -10.830509,10.83051 -2.069852,0 -4.081695,-0.5856 -5.817798,-1.69351 -0.384603,-0.24535 -0.894801,-0.13241 -1.140048,0.25197 z m 18.449026,4.78452 -12.263796,2.97148 c -0.210353,-0.32109 -0.488073,-0.59639 -0.82204,-0.8031 l -11.824597,-8.04539 c -2.503768,-1.70342 -5.645312,-2.35286 -8.619431,-1.78157 l -5.4707316,1.05243 c -0.4477853,0.0862 -0.7409159,0.51901 -0.654837,0.96667 0.086194,0.44757 0.5185644,0.74048 0.9666795,0.65473 l 5.4705121,-1.05242 c 2.546037,-0.48907 5.235501,0.0668 7.379104,1.52519 0.02136,0.0145 11.854207,8.06576 11.876663,8.07941 0.438098,0.26637 0.684226,0.84472 0.324391,1.35667 -0.39594,0.56326 -1.085231,0.55126 -1.691084,0.34442 l -5.113099,-1.53103 c -1.179894,-0.35334 -2.358688,-0.70668 -3.537482,-1.06002 -0.436668,-0.1311 -0.896892,0.1169 -1.027882,0.55357 -0.130879,0.43677 0.11701,0.89689 0.553678,1.02788 1.179014,0.35356 2.357918,0.70689 3.538254,1.06035 l 5.065436,1.51673 c 1.20235,0.51438 2.625731,0.20199 3.45944,-0.82326 0.335949,-0.41311 0.5288,-0.92429 0.55863,-1.44704 l 12.227032,-2.96245 c 0.710975,-0.1824 1.433288,0.36313 1.433288,1.1166 0,0.43711 -0.242716,0.83129 -0.632822,1.02854 l -16.531407,8.34061 c -0.642068,0.32439 -1.39223,0.35345 -2.057965,0.0791 L 16.50621,219.74718 c -0.403755,-0.16644 -0.829966,-0.27376 -1.255295,-0.38978 -0.650654,-0.17744 -1.46554,-0.24447 -2.140851,-0.14287 l -4.2323876,0.72418 c -0.4494362,0.0768 -0.7513724,0.50348 -0.67443,0.95292 0.076832,0.44943 0.5032635,0.75137 0.9530305,0.67454 l 4.1881371,-0.71671 c 0.529131,-0.0301 1.050226,0.0114 1.56912,0.12418 0.330666,0.0718 0.654837,0.17271 0.964038,0.30028 l 13.961594,5.74239 c 1.107906,0.45638 2.35869,0.40948 3.430491,-0.13186 l 16.531737,-8.34072 c 0.949618,-0.48026 1.539509,-1.43901 1.539509,-2.50235 -2.16e-4,-1.82162 -1.739074,-3.16376 -3.479252,-2.71995 z"
       inkscape:connector-curvature="0"
       style="stroke-width:0.11007509;fill:#ffffff" />
  </g>
</svg>
