<?xml version="1.0" encoding="UTF-8" standalone="no"?>
<!-- Created with Inkscape (http://www.inkscape.org/) -->

<svg
   xmlns:dc="http://purl.org/dc/elements/1.1/"
   xmlns:cc="http://creativecommons.org/ns#"
   xmlns:rdf="http://www.w3.org/1999/02/22-rdf-syntax-ns#"
   xmlns:svg="http://www.w3.org/2000/svg"
   xmlns="http://www.w3.org/2000/svg"
   xmlns:sodipodi="http://sodipodi.sourceforge.net/DTD/sodipodi-0.dtd"
   xmlns:inkscape="http://www.inkscape.org/namespaces/inkscape"
   width="105mm"
   height="148mm"
   viewBox="0 0 105 148"
   version="1.1"
   id="svg8"
   inkscape:version="0.92.2 (5c3e80d, 2017-08-06)"
   sodipodi:docname="c09_eco footprint_el.svg"
   inkscape:export-filename="C:\Users\ioarvanit\Desktop\New Design Cards\Προτάσεις\Transfer.png"
   inkscape:export-xdpi="90"
   inkscape:export-ydpi="90">
  <defs
     id="defs2" />
  <sodipodi:namedview
     id="base"
     pagecolor="#ffffff"
     bordercolor="#666666"
     borderopacity="1.0"
     inkscape:pageopacity="1"
     inkscape:pageshadow="2"
     inkscape:zoom="0.98999998"
     inkscape:cx="62.000304"
     inkscape:cy="221.95928"
     inkscape:document-units="mm"
     inkscape:current-layer="layer1"
     showgrid="false"
     inkscape:window-width="1920"
     inkscape:window-height="1017"
     inkscape:window-x="-8"
     inkscape:window-y="-8"
     inkscape:window-maximized="1" />
  <metadata
     id="metadata5">
    <rdf:RDF>
      <cc:Work
         rdf:about="">
        <dc:format>image/svg+xml</dc:format>
        <dc:type
           rdf:resource="http://purl.org/dc/dcmitype/StillImage" />
        <dc:title />
      </cc:Work>
    </rdf:RDF>
  </metadata>
  <g
     inkscape:label="Layer 1"
     inkscape:groupmode="layer"
     id="layer1"
     transform="translate(0,-149.00001)">
    <rect
       y="149"
       x="0.00035554456"
       height="148"
       width="104.99964"
       id="rect1538"
       style="opacity:1;fill:#ffffff;fill-opacity:1;stroke:none;stroke-width:3.04893064;stroke-linecap:round;stroke-miterlimit:4;stroke-dasharray:none;stroke-dashoffset:0;stroke-opacity:1" />
    <rect
       style="opacity:1;fill:#ff5200;fill-opacity:1;stroke:none;stroke-width:2.27810836;stroke-linecap:round;stroke-miterlimit:4;stroke-dasharray:none;stroke-dashoffset:0;stroke-opacity:1"
       id="rect826-8"
       width="104.99998"
       height="82.625496"
       x="0"
       y="149" />
    <text
       xml:space="preserve"
       style="font-style:normal;font-weight:normal;font-size:19.19713974px;line-height:1.25;font-family:sans-serif;letter-spacing:0px;word-spacing:0px;fill:#ffffff;fill-opacity:1;stroke:none;stroke-width:0.47992843"
       x="5.2146583"
       y="167.64218"
       id="text832-3"><tspan
         sodipodi:role="line"
         id="tspan830-9"
         x="5.2146583"
         y="167.64218"
         style="font-style:normal;font-variant:normal;font-weight:300;font-stretch:normal;font-family:Aka-Acid-Sunn;-inkscape-font-specification:'Aka-Acid-Sunn Light';fill:#ffffff;fill-opacity:1;stroke-width:0.47992843">ΟΙΚΟΛΟΓΙΚΟ ΑΠΟΤΥΠΩΜΑ</tspan></text>
    <text
       xml:space="preserve"
       style="font-style:normal;font-weight:normal;font-size:12.02059937px;line-height:1.25;font-family:sans-serif;letter-spacing:0px;word-spacing:0px;fill:#ff5200;fill-opacity:1;stroke:none;stroke-width:0.90154481"
       x="67.01091"
       y="293.47055"
       id="text844-7"><tspan
         id="tspan842-3"
         sodipodi:role="line"
         x="67.01091"
         y="293.47055"
         style="font-style:normal;font-variant:normal;font-weight:normal;font-stretch:normal;font-family:Aka-Acid-Sunn;-inkscape-font-specification:Aka-Acid-Sunn;fill:#ff5200;fill-opacity:1;stroke-width:0.90154481">ΑΕΙΦΟΡΙΑ-09</tspan></text>
    <text
       id="text887-4"
       y="249.74886"
       x="4.7970915"
       style="font-style:normal;font-weight:normal;font-size:5.2211113px;line-height:1.25;font-family:sans-serif;letter-spacing:0px;word-spacing:0px;fill:#ff5200;fill-opacity:1;stroke:none;stroke-width:0.39158335"
       xml:space="preserve"><tspan
         style="font-style:normal;font-variant:normal;font-weight:normal;font-stretch:normal;font-size:7.43344688px;font-family:Aka-Acid-GeosansLight;-inkscape-font-specification:Aka-Acid-GeosansLight;fill:#ff5200;fill-opacity:1;stroke-width:0.39158335"
         y="249.74886"
         x="4.7970915"
         sodipodi:role="line"
         id="tspan908">Να έχει μικρές επιδράσεις πάνω</tspan><tspan
         style="font-style:normal;font-variant:normal;font-weight:normal;font-stretch:normal;font-size:7.43344688px;font-family:Aka-Acid-GeosansLight;-inkscape-font-specification:Aka-Acid-GeosansLight;fill:#ff5200;fill-opacity:1;stroke-width:0.39158335"
         y="259.04065"
         x="4.7970915"
         sodipodi:role="line"
         id="tspan869">στη γη (κατανάλωση πόρων,</tspan><tspan
         style="font-style:normal;font-variant:normal;font-weight:normal;font-stretch:normal;font-size:7.43344688px;font-family:Aka-Acid-GeosansLight;-inkscape-font-specification:Aka-Acid-GeosansLight;fill:#ff5200;fill-opacity:1;stroke-width:0.39158335"
         y="268.33246"
         x="4.7970915"
         sodipodi:role="line"
         id="tspan871">καταστροφή φυσικού</tspan><tspan
         style="font-style:normal;font-variant:normal;font-weight:normal;font-stretch:normal;font-size:7.43344688px;font-family:Aka-Acid-GeosansLight;-inkscape-font-specification:Aka-Acid-GeosansLight;fill:#ff5200;fill-opacity:1;stroke-width:0.39158335"
         y="277.62427"
         x="4.7970915"
         sodipodi:role="line"
         id="tspan873">περιβάλλοντος κτλ.).</tspan></text>
    <g
       id="g957"
       transform="matrix(0.05216871,0,0,0.05216871,78.828034,202.23383)">
      <g
         id="g900">
        <g
           id="g898"
           transform="translate(-61.410507,160.20132)">
          <path
             style="fill:#ffffff;stroke-width:0.09458279"
             d="m 251.83594,179.66602 h 4.15234 c -0.42254,-0.8079 -0.88159,-1.59712 -1.11719,-2.50977 -0.0525,-0.22161 -1.49314,-6.48502 0.57813,-13.57617 0.29302,-1.00286 -0.2823,-2.05278 -1.28516,-2.3457 -1.00258,-0.2935 -2.05278,0.2822 -2.3457,1.28515 -1.3356,4.57261 -1.39764,8.78716 -1.17774,11.67383 -1.09489,-0.53591 -2.31938,-1.29814 -3.3125,-2.49414 -1.61916,-1.95011 -2.26819,-4.70974 -1.92968,-8.20117 0.7734,-7.97541 7.33944,-14.68634 10.28125,-17.32227 2.37771,3.16805 7.54271,11.07351 6.76562,19.08789 -0.29103,3.0013 -1.22973,5.26054 -2.86914,6.9043 -0.73774,0.73964 -0.73582,1.93599 0.004,2.67383 0.73954,0.73774 1.93784,0.73582 2.67578,-0.004 2.28276,-2.28881 3.57618,-5.30092 3.95508,-9.20898 0.48256,-4.97629 -0.9015,-10.60943 -4.00391,-16.29102 -2.04488,-3.74482 -4.18858,-6.34831 -4.7207,-6.97266 -0.01,-0.0139 -0.0208,-0.0292 -0.0312,-0.043 -0.63257,-0.8277 -1.81605,-0.98854 -2.64649,-0.35938 -0.12276,0.0931 -3.04201,2.32224 -6.11718,6 -4.13526,4.94555 -6.57585,10.19146 -7.0586,15.16992 -0.43943,4.5326 0.49767,8.22751 2.78516,10.98242 2.07306,2.49671 4.78127,3.61573 6.23633,4.2168 0.17365,0.0718 0.37226,0.15531 0.52539,0.22266 0.0653,0.0773 0.13785,0.14687 0.21484,0.21289 0.0998,0.32745 0.32206,0.5813 0.44141,0.89844 z"
             id="path964"
             transform="matrix(10.572748,0,0,10.572748,-2553.6012,-1496.8861)"
             inkscape:connector-curvature="0" />
          <path
             style="fill:#ff5200;fill-opacity:1;stroke-width:0.09458279"
             d="m 281.41992,179.66602 h -4.25195 c -2.03608,3.8442 -5.95112,6.55664 -10.5957,6.55664 -4.57044,0 -8.5348,-2.63856 -10.58399,-6.55664 h -4.15234 c 2.30509,6.12521 8.07383,10.33984 14.73633,10.33984 6.80607,0 12.57978,-4.31712 14.84765,-10.33984 z"
             id="path962"
             transform="matrix(10.572748,0,0,10.572748,-2553.6012,-1496.8861)"
             inkscape:connector-curvature="0" />
          <path
             style="fill:#ffffff;stroke-width:0.09458279"
             d="m 276.99609,141.58008 c -1.04476,0 -1.89257,0.84586 -1.89257,1.89062 v 4.82422 h -1.70313 c -1.04476,0 -1.89062,0.84782 -1.89062,1.89258 v 4.82227 c 0,4.38637 3.07768,8.06757 7.1875,8.99609 v 10.08984 c 0,2.04166 -0.63429,3.88049 -1.5293,5.57032 h 4.25195 c 0.65523,-1.74007 1.06055,-3.60198 1.06055,-5.56836 v -10.03321 c 4.25102,-0.81984 7.47265,-4.56787 7.47265,-9.05468 v -4.82227 c 0,-1.04467 -0.84781,-1.89258 -1.89257,-1.89258 h -1.60743 v -4.82422 c 0,-1.04476 -0.84586,-1.89062 -1.89062,-1.89062 -1.04476,0 -1.89258,0.84586 -1.89258,1.89062 v 4.82422 h -3.7832 v -4.82422 c 0,-1.04476 -0.84586,-1.89062 -1.89063,-1.89062 z m -1.70312,10.49804 h 10.87695 v 2.93165 c 0,2.99884 -2.44061,5.43945 -5.43945,5.43945 -2.99884,0 -5.4375,-2.44061 -5.4375,-5.43945 z"
             id="path896"
             transform="matrix(10.572748,0,0,10.572748,-2553.6012,-1496.8861)"
             inkscape:connector-curvature="0" />
        </g>
      </g>
      <g
         id="g902" />
      <g
         id="g904" />
      <g
         id="g906" />
      <g
         id="g908" />
      <g
         id="g910" />
      <g
         id="g912" />
      <g
         id="g914" />
      <g
         id="g916" />
      <g
         id="g918" />
      <g
         id="g920" />
      <g
         id="g922" />
      <g
         id="g924" />
      <g
         id="g926" />
      <g
         id="g928" />
      <g
         id="g930" />
    </g>
    <g
       id="g982"
       transform="matrix(0.29753342,0,0,0.29753342,0.4602883,162.84445)"
       style="fill:#ffffff">
      <g
         id="g954"
         style="fill:#ffffff">
        <path
           id="path942"
           d="m 78.629,136.05 c -6.06,0 -10.098,-0.475 -10.526,-0.527 -1.139,-0.14 -2.037,-1.038 -2.177,-2.177 -0.141,-1.15 -3.333,-28.434 7.858,-50.835 0.616,-1.235 2.119,-1.737 3.354,-1.119 1.235,0.617 1.736,2.119 1.119,3.354 -8.838,17.69 -8.043,39.392 -7.549,45.996 6.602,0.493 28.306,1.289 45.997,-7.55 1.234,-0.618 2.736,-0.116 3.354,1.119 0.617,1.235 0.116,2.736 -1.119,3.354 -14.073,7.03 -30.074,8.385 -40.311,8.385 z"
           inkscape:connector-curvature="0"
           style="fill:#ffffff" />
        <path
           id="path944"
           d="m 101.138,113.416 c -6.078,0 -10.087,-0.476 -10.412,-0.516 -1.139,-0.14 -2.036,-1.038 -2.176,-2.176 -0.08,-0.653 -1.92,-16.181 1.876,-33.473 0.296,-1.349 1.632,-2.201 2.978,-1.906 1.349,0.296 2.202,1.629 1.906,2.978 -2.842,12.943 -2.332,25.135 -1.979,29.796 4.654,0.353 16.819,0.862 29.74,-1.967 1.349,-0.295 2.681,0.559 2.977,1.908 0.295,1.349 -0.559,2.682 -1.908,2.977 -8.664,1.897 -16.882,2.379 -23.002,2.379 z"
           inkscape:connector-curvature="0"
           style="fill:#ffffff" />
        <path
           id="path946"
           d="m 45.785,158.165 c -0.64,0 -1.28,-0.244 -1.768,-0.732 -0.977,-0.976 -0.977,-2.559 0,-3.535 L 123.66,74.256 c 0.976,-0.977 2.56,-0.977 3.535,0 0.977,0.976 0.977,2.559 0,3.535 l -79.643,79.642 c -0.487,0.487 -1.127,0.732 -1.767,0.732 z"
           inkscape:connector-curvature="0"
           style="fill:#ffffff" />
        <path
           id="path948"
           d="m 60.548,217.454 c -0.375,0 -0.757,-0.085 -1.115,-0.264 -1.235,-0.617 -1.736,-2.119 -1.119,-3.354 5.617,-11.243 5.396,-24.957 5.078,-30.032 -5.076,-0.317 -18.788,-0.54 -30.032,5.078 -1.235,0.616 -2.737,0.116 -3.354,-1.119 -0.617,-1.235 -0.116,-2.736 1.119,-3.354 15.387,-7.688 34.096,-5.499 34.886,-5.401 1.139,0.14 2.036,1.038 2.176,2.176 0.097,0.789 2.286,19.5 -5.401,34.886 -0.438,0.877 -1.321,1.384 -2.238,1.384 z"
           inkscape:connector-curvature="0"
           style="fill:#ffffff" />
        <path
           id="path950"
           d="m 49.144,221.409 c -0.178,0 -0.358,-0.019 -0.539,-0.059 -1.349,-0.296 -2.202,-1.629 -1.906,-2.978 1.775,-8.085 1.595,-15.737 1.373,-19.249 -3.507,-0.222 -11.141,-0.402 -19.212,1.364 -1.349,0.29 -2.682,-0.56 -2.977,-1.908 -0.295,-1.349 0.559,-2.682 1.908,-2.977 11.827,-2.589 22.453,-1.33 22.899,-1.274 1.139,0.14 2.036,1.038 2.176,2.176 0.055,0.448 1.317,11.096 -1.283,22.94 -0.256,1.169 -1.291,1.965 -2.439,1.965 z"
           inkscape:connector-curvature="0"
           style="fill:#ffffff" />
        <path
           id="path952"
           d="m 27.091,222.604 c -0.64,0 -1.28,-0.244 -1.768,-0.732 -0.977,-0.976 -0.977,-2.559 0,-3.535 l 53.935,-53.935 c 0.976,-0.977 2.56,-0.977 3.535,0 0.977,0.976 0.977,2.559 0,3.535 l -53.935,53.935 c -0.487,0.488 -1.127,0.732 -1.767,0.732 z"
           inkscape:connector-curvature="0"
           style="fill:#ffffff" />
      </g>
      <path
         id="path956"
         d="m 177.421,197.795 c -26.816,0 -49.179,-20.083 -52.016,-46.716 -0.146,-1.373 0.848,-2.604 2.221,-2.75 1.371,-0.151 2.604,0.848 2.751,2.221 2.565,24.083 22.79,42.245 47.044,42.245 24.254,0 44.479,-18.162 47.044,-42.245 0.146,-1.374 1.384,-2.366 2.751,-2.221 1.373,0.146 2.367,1.378 2.222,2.75 -2.838,26.633 -25.201,46.716 -52.017,46.716 z"
         inkscape:connector-curvature="0"
         style="fill:#ffffff" />
      <g
         id="g974"
         style="fill:#ffffff">
        <path
           id="path958"
           d="m 127.909,75.717 c -0.14,-1.139 -1.038,-2.036 -2.177,-2.176 -1.708,-0.209 -42.122,-4.885 -64.718,17.711 -22.595,22.595 -17.921,63.008 -17.711,64.717 0.14,1.139 1.038,2.037 2.176,2.177 0.519,0.063 4.595,0.538 10.655,0.538 13.925,0 38.32,-2.504 54.063,-18.248 22.597,-22.596 17.922,-63.009 17.712,-64.719 z M 106.663,136.9 c -18.15,18.15 -50.282,17.08 -58.578,16.462 -0.622,-8.293 -1.71,-40.4 16.465,-58.576 18.151,-18.15 50.284,-17.079 58.578,-16.463 0.622,8.295 1.711,40.402 -16.465,58.577 z"
           inkscape:connector-curvature="0"
           style="fill:#ffffff" />
        <path
           id="path960"
           d="m 81.331,163.688 c -1.174,-0.145 -28.919,-3.353 -44.497,12.225 -15.577,15.577 -12.368,43.323 -12.224,44.497 0.14,1.139 1.038,2.037 2.177,2.177 0.354,0.043 3.137,0.367 7.28,0.367 9.558,0 26.35,-1.725 37.216,-12.592 15.577,-15.577 12.368,-43.323 12.224,-44.497 -0.14,-1.14 -1.037,-2.037 -2.176,-2.177 z m -13.583,43.138 c -11.598,11.598 -31.91,11.363 -38.344,10.962 -0.406,-6.428 -0.657,-26.718 10.965,-38.341 11.599,-11.598 31.914,-11.36 38.344,-10.962 0.406,6.428 0.657,26.718 -10.965,38.341 z"
           inkscape:connector-curvature="0"
           style="fill:#ffffff" />
        <path
           id="path962-4"
           d="m 129.41,67.742 c 1.125,0.417 2.285,0.617 3.454,0.617 5.938,0 12.101,-5.15 15.058,-13.131 h 0.001 c 3.538,-9.552 0.952,-19.021 -5.889,-21.556 -3.441,-1.275 -7.31,-0.55 -10.896,2.037 -3.288,2.372 -5.993,6.093 -7.617,10.477 -3.539,9.553 -0.953,19.021 5.889,21.556 z m -1.2,-19.818 c 1.283,-3.464 3.362,-6.362 5.854,-8.16 0.979,-0.706 2.688,-1.7 4.548,-1.7 0.553,0 1.12,0.088 1.684,0.297 4.072,1.509 5.417,8.438 2.938,15.13 -2.48,6.692 -8.021,11.069 -12.087,9.563 -4.072,-1.509 -5.417,-8.438 -2.937,-15.13 z"
           inkscape:connector-curvature="0"
           style="fill:#ffffff" />
        <path
           id="path964-8"
           d="m 105.557,67.542 c 0.287,0.028 0.572,0.042 0.857,0.042 2.931,0 5.744,-1.475 8,-4.217 2.241,-2.724 3.692,-6.447 4.087,-10.484 0.395,-4.037 -0.308,-7.971 -1.979,-11.078 -1.845,-3.431 -4.644,-5.495 -7.881,-5.812 -3.236,-0.313 -6.382,1.166 -8.857,4.175 -2.241,2.724 -3.692,6.448 -4.087,10.485 -0.395,4.037 0.308,7.971 1.979,11.077 1.845,3.431 4.644,5.495 7.881,5.812 z m -4.883,-16.403 c 0.295,-3.016 1.378,-5.857 2.972,-7.794 0.754,-0.917 2.263,-2.393 4.155,-2.393 0.117,0 0.235,0.006 0.354,0.018 2.058,0.201 3.367,2.094 3.964,3.204 1.188,2.209 1.701,5.207 1.405,8.223 -0.295,3.016 -1.378,5.856 -2.972,7.794 -0.801,0.974 -2.453,2.578 -4.51,2.375 -2.058,-0.201 -3.367,-2.093 -3.964,-3.204 -1.187,-2.21 -1.7,-5.207 -1.404,-8.223 z"
           inkscape:connector-curvature="0"
           style="fill:#ffffff" />
        <path
           id="path966"
           d="m 81.702,71.229 h 0.056 c 5.776,-0.041 10.256,-6.278 10.201,-14.199 -0.025,-3.596 -1.011,-7.003 -2.776,-9.595 -1.932,-2.837 -4.688,-4.459 -7.57,-4.459 -0.018,0 -0.036,0 -0.054,0 -5.776,0.041 -10.256,6.277 -10.201,14.199 0.055,7.896 4.594,14.054 10.344,14.054 z M 81.594,47.976 h 0.02 c 1.641,0 2.856,1.423 3.436,2.274 1.195,1.754 1.891,4.238 1.909,6.815 0.038,5.378 -2.729,9.146 -5.236,9.164 -0.006,0 -0.012,0 -0.018,0 -2.503,0 -5.31,-3.724 -5.347,-9.09 -0.038,-5.378 2.729,-9.145 5.236,-9.163 z"
           inkscape:connector-curvature="0"
           style="fill:#ffffff" />
        <path
           id="path968"
           d="m 62.356,79.981 c 0.72,0 1.439,-0.108 2.146,-0.332 4.838,-1.538 6.997,-7.878 4.914,-14.435 -0.939,-2.954 -2.625,-5.511 -4.748,-7.201 -2.376,-1.892 -5.146,-2.528 -7.597,-1.75 -4.838,1.538 -6.997,7.878 -4.914,14.435 1.78,5.599 5.993,9.283 10.199,9.283 z M 58.585,61.029 c 0.207,-0.066 0.416,-0.095 0.624,-0.095 0.939,0 1.84,0.589 2.346,0.992 1.335,1.062 2.463,2.812 3.095,4.802 1.297,4.083 0.165,7.575 -1.662,8.156 -1.827,0.583 -4.768,-1.617 -6.065,-5.7 -1.298,-4.082 -0.165,-7.575 1.662,-8.155 z"
           inkscape:connector-curvature="0"
           style="fill:#ffffff" />
        <path
           id="path970"
           d="m 42.004,93.677 c 1.562,1.119 3.266,1.696 4.908,1.696 0.802,0 1.589,-0.138 2.338,-0.418 4.477,-1.677 6.215,-7.713 3.958,-13.742 -2.257,-6.029 -7.533,-9.438 -12.01,-7.763 -4.477,1.676 -6.216,7.712 -3.959,13.742 1.013,2.707 2.705,5.01 4.765,6.485 z m 0.947,-15.544 c 0.184,-0.069 0.384,-0.103 0.597,-0.103 1.584,0 3.831,1.873 4.978,4.936 1.301,3.474 0.529,6.723 -1.029,7.306 -0.981,0.369 -2.132,-0.339 -2.581,-0.661 -1.243,-0.891 -2.335,-2.412 -2.994,-4.173 -1.301,-3.473 -0.529,-6.721 1.029,-7.305 z"
           inkscape:connector-curvature="0"
           style="fill:#ffffff" />
        <path
           id="path972"
           d="m 177.421,103.834 c -28.849,0 -52.318,23.47 -52.318,52.318 0,10.041 2.836,19.747 8.215,28.153 l -7.002,19.624 c -0.325,0.91 -0.096,1.925 0.587,2.608 0.683,0.683 1.697,0.913 2.607,0.587 l 19.58,-6.986 c 8.449,5.456 18.217,8.333 28.331,8.333 28.849,0 52.318,-23.47 52.318,-52.318 0,-28.848 -23.469,-52.319 -52.318,-52.319 z m 0,99.637 c -9.536,0 -18.729,-2.827 -26.587,-8.174 -0.42,-0.286 -0.911,-0.433 -1.406,-0.433 -0.283,0 -0.567,0.048 -0.84,0.146 l -15.791,5.634 5.647,-15.829 c 0.268,-0.749 0.162,-1.58 -0.282,-2.238 -5.272,-7.818 -8.06,-16.955 -8.06,-26.423 0,-26.091 21.227,-47.318 47.318,-47.318 26.091,0 47.318,21.227 47.318,47.318 0,26.091 -21.225,47.317 -47.317,47.317 z"
           inkscape:connector-curvature="0"
           style="fill:#ffffff" />
      </g>
      <path
         id="path976"
         d="m 156.207,150.992 c 1.023,-1.291 2.371,-1.918 4.119,-1.918 3.228,0 4.854,1.515 5.275,4.911 0.093,0.751 0.731,1.315 1.488,1.315 h 2.081 c 0.424,0 0.827,-0.179 1.111,-0.493 0.284,-0.314 0.423,-0.733 0.382,-1.155 -0.282,-2.857 -1.33,-5.147 -3.115,-6.809 -1.796,-1.669 -4.226,-2.516 -7.223,-2.516 -2.139,0 -4.068,0.54 -5.733,1.604 -1.669,1.067 -2.961,2.591 -3.84,4.53 -0.847,1.867 -1.275,4.018 -1.275,6.393 v 3.18 c 0.013,2.342 0.448,4.466 1.294,6.314 0.878,1.916 2.148,3.424 3.777,4.484 1.634,1.063 3.527,1.602 5.626,1.602 2.957,0 5.388,-0.813 7.223,-2.418 1.846,-1.613 2.943,-3.926 3.265,-6.874 0.046,-0.424 -0.09,-0.847 -0.375,-1.164 -0.284,-0.317 -0.69,-0.499 -1.116,-0.499 h -2.081 c -0.757,0 -1.395,0.563 -1.488,1.314 -0.213,1.706 -0.741,2.968 -1.572,3.752 -0.805,0.759 -2.101,1.144 -3.854,1.144 -1.702,0 -3.012,-0.631 -4.002,-1.929 -1.071,-1.404 -1.614,-3.37 -1.614,-5.842 v -2.99 c -0.001,-2.561 0.554,-4.558 1.647,-5.936 z"
         inkscape:connector-curvature="0"
         style="fill:#ffffff" />
      <path
         id="path978"
         d="m 189.866,145.919 c -1.674,-1.055 -3.617,-1.59 -5.775,-1.59 -2.162,0 -4.111,0.545 -5.794,1.621 -1.682,1.076 -2.994,2.623 -3.902,4.599 -0.876,1.907 -1.32,4.108 -1.32,6.542 v 2.518 c 0,3.82 1.009,6.931 2.998,9.244 2.046,2.378 4.755,3.584 8.052,3.584 2.172,0 4.125,-0.542 5.806,-1.61 1.685,-1.071 2.994,-2.608 3.892,-4.57 0.864,-1.89 1.302,-4.093 1.302,-6.548 v -2.943 c -0.036,-2.385 -0.497,-4.529 -1.369,-6.375 -0.907,-1.912 -2.216,-3.416 -3.89,-4.472 z m -5.743,21.721 c -1.839,0 -3.243,-0.646 -4.296,-1.974 -1.121,-1.416 -1.689,-3.421 -1.689,-5.958 v -2.551 c 0,-2.633 0.568,-4.674 1.69,-6.065 1.058,-1.312 2.451,-1.95 4.262,-1.95 1.852,0 3.258,0.633 4.299,1.936 1.107,1.388 1.669,3.399 1.669,5.979 v 2.584 c 0,2.631 -0.554,4.671 -1.646,6.066 -1.017,1.301 -2.42,1.933 -4.289,1.933 z"
         inkscape:connector-curvature="0"
         style="fill:#ffffff" />
      <path
         id="path980"
         d="m 203.864,143.029 h -2.578 c 0,0 0.93,-1.051 0.93,-1.051 0.984,-1.113 1.959,-2.323 2.382,-3.772 0.407,-1.392 0.201,-2.961 -0.708,-4.117 -0.13,-0.165 -0.273,-0.32 -0.427,-0.464 -1.458,-1.36 -3.896,-1.597 -5.659,-0.736 -1.703,0.831 -2.729,2.536 -2.729,4.419 0,0.829 0.672,1.5 1.5,1.5 h 0.919 c 0.828,0 1.5,-0.671 1.5,-1.5 0,-0.796 0.607,-1.289 1.398,-1.07 0.692,0.192 0.533,0.986 0.279,1.478 -0.132,0.255 -0.435,0.728 -1.12,1.518 l -3.854,4.371 c -0.242,0.274 -0.375,0.627 -0.375,0.992 v 0.71 c 0,0.829 0.672,1.5 1.5,1.5 h 7.043 c 0.828,0 1.5,-0.671 1.5,-1.5 v -0.78 c -0.001,-0.827 -0.673,-1.498 -1.501,-1.498 z"
         inkscape:connector-curvature="0"
         style="fill:#ffffff" />
    </g>
  </g>
</svg>
