<?xml version="1.0" encoding="UTF-8" standalone="no"?>
<!-- Created with Inkscape (http://www.inkscape.org/) -->

<svg
   xmlns:dc="http://purl.org/dc/elements/1.1/"
   xmlns:cc="http://creativecommons.org/ns#"
   xmlns:rdf="http://www.w3.org/1999/02/22-rdf-syntax-ns#"
   xmlns:svg="http://www.w3.org/2000/svg"
   xmlns="http://www.w3.org/2000/svg"
   xmlns:sodipodi="http://sodipodi.sourceforge.net/DTD/sodipodi-0.dtd"
   xmlns:inkscape="http://www.inkscape.org/namespaces/inkscape"
   width="105mm"
   height="148mm"
   viewBox="0 0 105 148"
   version="1.1"
   id="svg8"
   inkscape:version="0.92.2 (5c3e80d, 2017-08-06)"
   sodipodi:docname="c08_multi usability_en.svg"
   inkscape:export-filename="C:\Users\ioarvanit\Desktop\New Design Cards\Προτάσεις\Transfer.png"
   inkscape:export-xdpi="90"
   inkscape:export-ydpi="90">
  <defs
     id="defs2" />
  <sodipodi:namedview
     id="base"
     pagecolor="#ffffff"
     bordercolor="#666666"
     borderopacity="1.0"
     inkscape:pageopacity="1"
     inkscape:pageshadow="2"
     inkscape:zoom="0.98999998"
     inkscape:cx="-137.49465"
     inkscape:cy="221.95928"
     inkscape:document-units="mm"
     inkscape:current-layer="layer1"
     showgrid="false"
     inkscape:window-width="1920"
     inkscape:window-height="1017"
     inkscape:window-x="-8"
     inkscape:window-y="-8"
     inkscape:window-maximized="1" />
  <metadata
     id="metadata5">
    <rdf:RDF>
      <cc:Work
         rdf:about="">
        <dc:format>image/svg+xml</dc:format>
        <dc:type
           rdf:resource="http://purl.org/dc/dcmitype/StillImage" />
        <dc:title></dc:title>
      </cc:Work>
    </rdf:RDF>
  </metadata>
  <g
     inkscape:label="Layer 1"
     inkscape:groupmode="layer"
     id="layer1"
     transform="translate(0,-149.00001)">
    <rect
       y="149"
       x="0.00035554456"
       height="148"
       width="104.99964"
       id="rect1538"
       style="opacity:1;fill:#ffffff;fill-opacity:1;stroke:none;stroke-width:3.04893064;stroke-linecap:round;stroke-miterlimit:4;stroke-dasharray:none;stroke-dashoffset:0;stroke-opacity:1" />
    <rect
       style="opacity:1;fill:#ff5200;fill-opacity:1;stroke:none;stroke-width:2.27810836;stroke-linecap:round;stroke-miterlimit:4;stroke-dasharray:none;stroke-dashoffset:0;stroke-opacity:1"
       id="rect826-8"
       width="104.99998"
       height="82.625496"
       x="0"
       y="149" />
    <text
       xml:space="preserve"
       style="font-style:normal;font-weight:normal;font-size:20.71850967px;line-height:1.25;font-family:sans-serif;letter-spacing:0px;word-spacing:0px;fill:#ffffff;fill-opacity:1;stroke:none;stroke-width:0.51796269"
       x="5.1614013"
       y="168.7086"
       id="text832-3"><tspan
         sodipodi:role="line"
         id="tspan830-9"
         x="5.1614013"
         y="168.7086"
         style="font-style:normal;font-variant:normal;font-weight:300;font-stretch:normal;font-family:Aka-Acid-Sunn;-inkscape-font-specification:'Aka-Acid-Sunn Light';fill:#ffffff;fill-opacity:1;stroke-width:0.51796269">MULTI USABILITY</tspan></text>
    <text
       xml:space="preserve"
       style="font-style:normal;font-weight:normal;font-size:12.02059937px;line-height:1.25;font-family:sans-serif;letter-spacing:0px;word-spacing:0px;fill:#ff5200;fill-opacity:1;stroke:none;stroke-width:0.90154481"
       x="56.427574"
       y="293.47055"
       id="text844-7"><tspan
         id="tspan842-3"
         sodipodi:role="line"
         x="56.427574"
         y="293.47055"
         style="font-style:normal;font-variant:normal;font-weight:normal;font-stretch:normal;font-family:Aka-Acid-Sunn;-inkscape-font-specification:Aka-Acid-Sunn;fill:#ff5200;fill-opacity:1;stroke-width:0.90154481">SUSTAINABILITY-08</tspan></text>
    <text
       id="text887-4"
       y="249.74886"
       x="4.7970915"
       style="font-style:normal;font-weight:normal;font-size:5.2211113px;line-height:1.25;font-family:sans-serif;letter-spacing:0px;word-spacing:0px;fill:#ff5200;fill-opacity:1;stroke:none;stroke-width:0.39158335"
       xml:space="preserve"><tspan
         style="font-style:normal;font-variant:normal;font-weight:normal;font-stretch:normal;font-size:7.43344688px;font-family:Aka-Acid-GeosansLight;-inkscape-font-specification:Aka-Acid-GeosansLight;fill:#ff5200;fill-opacity:1;stroke-width:0.39158335"
         y="249.74886"
         x="4.7970915"
         sodipodi:role="line"
         id="tspan1465">Create products that have</tspan><tspan
         style="font-style:normal;font-variant:normal;font-weight:normal;font-stretch:normal;font-size:7.43344688px;font-family:Aka-Acid-GeosansLight;-inkscape-font-specification:Aka-Acid-GeosansLight;fill:#ff5200;fill-opacity:1;stroke-width:0.39158335"
         y="259.04065"
         x="4.7970915"
         sodipodi:role="line"
         id="tspan851">multiple functions and serve </tspan><tspan
         style="font-style:normal;font-variant:normal;font-weight:normal;font-stretch:normal;font-size:7.43344688px;font-family:Aka-Acid-GeosansLight;-inkscape-font-specification:Aka-Acid-GeosansLight;fill:#ff5200;fill-opacity:1;stroke-width:0.39158335"
         y="268.33246"
         x="4.7970915"
         sodipodi:role="line"
         id="tspan853">multiple users and purpose.</tspan></text>
    <g
       id="g957"
       transform="matrix(0.05216871,0,0,0.05216871,78.828034,202.23383)">
      <g
         id="g900">
        <g
           id="g898"
           transform="translate(-61.410507,160.20132)">
          <path
             style="fill:#ffffff;stroke-width:0.09458279"
             d="m 251.83594,179.66602 h 4.15234 c -0.42254,-0.8079 -0.88159,-1.59712 -1.11719,-2.50977 -0.0525,-0.22161 -1.49314,-6.48502 0.57813,-13.57617 0.29302,-1.00286 -0.2823,-2.05278 -1.28516,-2.3457 -1.00258,-0.2935 -2.05278,0.2822 -2.3457,1.28515 -1.3356,4.57261 -1.39764,8.78716 -1.17774,11.67383 -1.09489,-0.53591 -2.31938,-1.29814 -3.3125,-2.49414 -1.61916,-1.95011 -2.26819,-4.70974 -1.92968,-8.20117 0.7734,-7.97541 7.33944,-14.68634 10.28125,-17.32227 2.37771,3.16805 7.54271,11.07351 6.76562,19.08789 -0.29103,3.0013 -1.22973,5.26054 -2.86914,6.9043 -0.73774,0.73964 -0.73582,1.93599 0.004,2.67383 0.73954,0.73774 1.93784,0.73582 2.67578,-0.004 2.28276,-2.28881 3.57618,-5.30092 3.95508,-9.20898 0.48256,-4.97629 -0.9015,-10.60943 -4.00391,-16.29102 -2.04488,-3.74482 -4.18858,-6.34831 -4.7207,-6.97266 -0.01,-0.0139 -0.0208,-0.0292 -0.0312,-0.043 -0.63257,-0.8277 -1.81605,-0.98854 -2.64649,-0.35938 -0.12276,0.0931 -3.04201,2.32224 -6.11718,6 -4.13526,4.94555 -6.57585,10.19146 -7.0586,15.16992 -0.43943,4.5326 0.49767,8.22751 2.78516,10.98242 2.07306,2.49671 4.78127,3.61573 6.23633,4.2168 0.17365,0.0718 0.37226,0.15531 0.52539,0.22266 0.0653,0.0773 0.13785,0.14687 0.21484,0.21289 0.0998,0.32745 0.32206,0.5813 0.44141,0.89844 z"
             id="path964"
             transform="matrix(10.572748,0,0,10.572748,-2553.6012,-1496.8861)"
             inkscape:connector-curvature="0" />
          <path
             style="fill:#ff5200;fill-opacity:1;stroke-width:0.09458279"
             d="m 281.41992,179.66602 h -4.25195 c -2.03608,3.8442 -5.95112,6.55664 -10.5957,6.55664 -4.57044,0 -8.5348,-2.63856 -10.58399,-6.55664 h -4.15234 c 2.30509,6.12521 8.07383,10.33984 14.73633,10.33984 6.80607,0 12.57978,-4.31712 14.84765,-10.33984 z"
             id="path962"
             transform="matrix(10.572748,0,0,10.572748,-2553.6012,-1496.8861)"
             inkscape:connector-curvature="0" />
          <path
             style="fill:#ffffff;stroke-width:0.09458279"
             d="m 276.99609,141.58008 c -1.04476,0 -1.89257,0.84586 -1.89257,1.89062 v 4.82422 h -1.70313 c -1.04476,0 -1.89062,0.84782 -1.89062,1.89258 v 4.82227 c 0,4.38637 3.07768,8.06757 7.1875,8.99609 v 10.08984 c 0,2.04166 -0.63429,3.88049 -1.5293,5.57032 h 4.25195 c 0.65523,-1.74007 1.06055,-3.60198 1.06055,-5.56836 v -10.03321 c 4.25102,-0.81984 7.47265,-4.56787 7.47265,-9.05468 v -4.82227 c 0,-1.04467 -0.84781,-1.89258 -1.89257,-1.89258 h -1.60743 v -4.82422 c 0,-1.04476 -0.84586,-1.89062 -1.89062,-1.89062 -1.04476,0 -1.89258,0.84586 -1.89258,1.89062 v 4.82422 h -3.7832 v -4.82422 c 0,-1.04476 -0.84586,-1.89062 -1.89063,-1.89062 z m -1.70312,10.49804 h 10.87695 v 2.93165 c 0,2.99884 -2.44061,5.43945 -5.43945,5.43945 -2.99884,0 -5.4375,-2.44061 -5.4375,-5.43945 z"
             id="path896"
             transform="matrix(10.572748,0,0,10.572748,-2553.6012,-1496.8861)"
             inkscape:connector-curvature="0" />
        </g>
      </g>
      <g
         id="g902" />
      <g
         id="g904" />
      <g
         id="g906" />
      <g
         id="g908" />
      <g
         id="g910" />
      <g
         id="g912" />
      <g
         id="g914" />
      <g
         id="g916" />
      <g
         id="g918" />
      <g
         id="g920" />
      <g
         id="g922" />
      <g
         id="g924" />
      <g
         id="g926" />
      <g
         id="g928" />
      <g
         id="g930" />
    </g>
    <path
       id="path849"
       d="m 59.376648,183.9243 c 0.983661,0 1.377126,-0.59021 2.282089,-1.49518 0.354122,-0.35412 0.590195,-0.82628 0.590195,-1.33777 0,-0.51151 -0.236073,-0.98365 -0.590195,-1.33778 l -0.94431,-0.94433 c -0.354118,-0.35411 -0.826278,-0.55084 -1.337779,-0.55084 h -16.52551 c -1.416469,-4.48548 -5.862621,-7.23975 -10.466151,-6.5315 -4.642882,0.70823 -8.026676,4.68221 -8.026676,9.36445 v 18.25674 l -0.904968,-0.94432 -0.196732,-1.80993 c -0.118035,-0.90498 -0.826275,-1.57386 -1.691895,-1.69189 l -1.377128,-0.15741 -0.157387,-1.33777 c -0.118035,-0.86564 -0.786929,-1.57386 -1.691897,-1.6919 l -1.377126,-0.1574 -0.196732,-1.37713 c -0.07868,-0.86561 -0.786929,-1.57386 -1.691899,-1.65254 l -1.377121,-0.15741 -0.157386,-1.37712 c -0.07868,-0.86564 -0.786929,-1.57386 -1.652551,-1.6919 l -1.337779,-0.1574 -0.118035,-0.94432 c -0.118036,-0.90498 -0.7475837,-1.6919 -1.613204,-2.00667 -0.8656222,-0.31477 -1.8492832,-0.1574 -2.5575193,0.47216 -0.5115042,0.43305 -0.8262766,1.10193 -0.865624,1.81018 -0.078684,3.54116 0.7475835,7.04301 2.4394805,10.15138 2.5181718,4.64288 1.9673221,3.54116 16.5255058,18.09936 v 0.55084 h -6.649549 c -1.023008,0 -1.888631,0.86563 -1.888631,1.92799 h -3.777262 c 0,-1.06236 -0.865623,-1.92799 -1.888629,-1.92799 H 7.2819459 c -1.0230102,0 -1.8886306,0.86563 -1.8886306,1.92799 0,3.10837 2.5575175,5.66588 5.7052337,5.66588 h 13.417136 c 0.983661,4.76092 5.429809,8.02668 10.269422,7.55452 4.839612,-0.51149 8.498831,-4.5642 8.498831,-9.44313 v -18.88631 l 6.020007,6.02001 c 2.596866,2.59686 5.626539,4.60353 9.010333,5.98065 1.062358,0.43281 2.242752,0.19674 3.069023,-0.62954 0.786926,-0.78693 1.023009,-2.00667 0.629543,-3.069 -1.377123,-3.34447 -3.423136,-6.41349 -5.980657,-8.97102 L 43.283938,186.71806 v -2.79358 z m 0,-3.77727 0.983661,0.94432 -0.983661,0.94431 H 43.283951 c 0.03935,-0.62954 0.03935,-1.25908 0,-1.88863 z M 9.4853563,193.72156 c -1.5345111,-2.83295 -2.2820928,-5.98066 -2.2033997,-9.20707 0.039351,-0.31479 0.3147724,-0.55086 0.6295429,-0.55086 0.3147706,0 0.5901956,0.23607 0.629543,0.55086 l 0.1180352,0.90495 c 0.1180352,0.86563 0.7869291,1.53453 1.6525493,1.61321 l 1.416474,0.15741 0.157386,1.37714 c 0.07869,0.90497 0.786929,1.6132 1.652549,1.6919 l 1.377123,0.1574 0.157387,1.37714 c 0.118035,0.86562 0.826276,1.57385 1.691898,1.65253 l 1.377125,0.15741 0.196734,1.41645 c 0.07868,0.86564 0.786927,1.57387 1.652549,1.65257 l 1.377128,0.1574 0.275424,2.16406 c 0.03935,0.4328 0.03935,0.35412 2.714903,3.02967 v 8.02668 C 11.177249,196.86926 11.767447,197.93163 9.4853503,193.72156 Z m 1.6132047,25.26042 c -2.1247074,0 -3.8166044,-1.6919 -3.8166044,-3.77727 h 2.8722894 c 0,1.023 0.826277,1.88863 1.888629,1.88863 h 3.777256 c 1.062356,0 1.88863,-0.86563 1.88863,-1.88863 h 6.64955 v 3.77727 z m 30.296763,0 c 0,4.17072 -3.383796,7.55452 -7.593867,7.55452 -4.170723,0 -7.554519,-3.3838 -7.554519,-7.55452 v -37.89063 c 0,-4.21008 3.383796,-7.59387 7.554519,-7.59387 4.210071,0 7.593867,3.38379 7.593867,7.59387 z m 13.259747,-18.21741 c 2.321439,2.32144 4.210069,5.11504 5.46916,8.14471 l -14.20407,-14.20407 c -0.236077,-0.27541 -0.590195,-0.39346 -0.944313,-0.31477 -0.35412,0.0787 -0.629543,0.35412 -0.708236,0.70824 -0.07869,0.35413 0.03935,0.70823 0.314772,0.9443 l 14.20407,14.20407 c -3.029683,-1.25909 -5.783934,-3.1477 -8.105371,-5.46914 l -7.397132,-7.35779 v -8.06602 z"
       style="fill:#ffffff;fill-opacity:1;fill-rule:nonzero;stroke:none;stroke-width:0.49183416"
       inkscape:connector-curvature="0" />
  </g>
</svg>
