<?xml version="1.0" encoding="UTF-8" standalone="no"?>
<!-- Created with Inkscape (http://www.inkscape.org/) -->

<svg
   xmlns:dc="http://purl.org/dc/elements/1.1/"
   xmlns:cc="http://creativecommons.org/ns#"
   xmlns:rdf="http://www.w3.org/1999/02/22-rdf-syntax-ns#"
   xmlns:svg="http://www.w3.org/2000/svg"
   xmlns="http://www.w3.org/2000/svg"
   xmlns:sodipodi="http://sodipodi.sourceforge.net/DTD/sodipodi-0.dtd"
   xmlns:inkscape="http://www.inkscape.org/namespaces/inkscape"
   width="105mm"
   height="148mm"
   viewBox="0 0 105 148"
   version="1.1"
   id="svg8"
   inkscape:version="0.92.2 (5c3e80d, 2017-08-06)"
   sodipodi:docname="sustainability_back_en.svg"
   inkscape:export-filename="C:\Users\ioarvanit\Desktop\New Design Cards\Προτάσεις\Back.png"
   inkscape:export-xdpi="90"
   inkscape:export-ydpi="90">
  <defs
     id="defs2" />
  <sodipodi:namedview
     id="base"
     pagecolor="#ffffff"
     bordercolor="#666666"
     borderopacity="1.0"
     inkscape:pageopacity="0.0"
     inkscape:pageshadow="2"
     inkscape:zoom="0.7"
     inkscape:cx="116.38536"
     inkscape:cy="18.925938"
     inkscape:document-units="mm"
     inkscape:current-layer="layer1"
     showgrid="false"
     inkscape:window-width="1920"
     inkscape:window-height="1017"
     inkscape:window-x="-8"
     inkscape:window-y="-8"
     inkscape:window-maximized="1" />
  <metadata
     id="metadata5">
    <rdf:RDF>
      <cc:Work
         rdf:about="">
        <dc:format>image/svg+xml</dc:format>
        <dc:type
           rdf:resource="http://purl.org/dc/dcmitype/StillImage" />
        <dc:title></dc:title>
      </cc:Work>
    </rdf:RDF>
  </metadata>
  <g
     inkscape:label="Layer 1"
     inkscape:groupmode="layer"
     id="layer1"
     transform="translate(0,-149)">
    <rect
       y="149.00003"
       x="7.3978532e-007"
       height="148"
       width="105"
       id="rect989"
       style="opacity:1;fill:#ff5200;fill-opacity:1;stroke:none;stroke-width:3.04893517;stroke-linecap:round;stroke-miterlimit:4;stroke-dasharray:none;stroke-dashoffset:0;stroke-opacity:1" />
    <g
       id="g950"
       transform="matrix(0.1593845,0,0,0.1593845,11.697537,182.19757)"
       style="fill:#ffffff">
      <g
         id="g893"
         style="fill:#ffffff">
        <g
           id="g891"
           style="fill:#ffffff">
          <path
             id="path889"
             d="m 491.999,71 h -17 V 20 c 0,-11.046 -8.954,-20 -20,-20 -11.046,0 -20,8.954 -20,20 v 51 h -40 V 20 c 0,-11.046 -8.954,-20 -20,-20 -11.046,0 -20,8.954 -20,20 v 51 h -18 c -11.046,0 -20,8.954 -20,20 v 51 c 0,46.376 32.548,85.289 76,95.106 v 106.688 c 0,70.692 -57.513,128.205 -128.205,128.205 -58.286,0 -109.14,-39.409 -123.711,-95.854 -0.555,-2.343 -15.786,-68.565 6.113,-143.538 3.098,-10.603 -2.987,-21.708 -13.59,-24.805 -10.6,-3.103 -21.708,2.986 -24.805,13.59 C 94.68,269.737 94.03,314.289 96.355,344.809 84.779,339.143 71.834,331.088 61.334,318.443 44.215,297.825 37.349,268.654 40.928,231.74 49.105,147.418 118.538,76.453 149.641,48.584 c 25.139,33.495 79.744,117.093 71.528,201.827 -3.077,31.732 -12.998,55.604 -30.331,72.983 -7.8,7.82 -7.783,20.483 0.038,28.284 7.819,7.8 20.482,7.783 28.284,-0.038 24.135,-24.199 37.815,-56.049 41.821,-97.368 C 266.083,201.659 251.441,142.097 218.64,82.027 197.02,42.434 174.356,14.897 168.73,8.296 168.624,8.149 168.514,8.003 168.404,7.858 161.716,-0.893 149.211,-2.59 140.431,4.062 139.133,5.046 108.259,28.611 75.746,67.495 32.025,119.783 6.219,175.243 1.115,227.879 c -4.646,47.922 5.26,86.989 29.445,116.116 21.918,26.397 50.554,38.227 65.938,44.582 1.836,0.759 3.944,1.63 5.563,2.342 0.691,0.817 1.46,1.565 2.274,2.263 C 125.768,463.51 190.706,512 264.794,512 357.543,512 432.999,436.544 432.999,343.795 V 237.732 c 44.945,-8.668 79,-48.294 79,-95.732 V 91 c 0,-11.045 -8.954,-20 -20,-20 z m -20,71 c 0,31.706 -25.794,57.5 -57.5,57.5 -31.706,0 -57.5,-25.794 -57.5,-57.5 v -31 h 115 z"
             inkscape:connector-curvature="0"
             style="fill:#ffffff" />
        </g>
      </g>
      <g
         id="g895"
         style="fill:#ffffff" />
      <g
         id="g897"
         style="fill:#ffffff" />
      <g
         id="g899"
         style="fill:#ffffff" />
      <g
         id="g901"
         style="fill:#ffffff" />
      <g
         id="g903"
         style="fill:#ffffff" />
      <g
         id="g905"
         style="fill:#ffffff" />
      <g
         id="g907"
         style="fill:#ffffff" />
      <g
         id="g909"
         style="fill:#ffffff" />
      <g
         id="g911"
         style="fill:#ffffff" />
      <g
         id="g913"
         style="fill:#ffffff" />
      <g
         id="g915"
         style="fill:#ffffff" />
      <g
         id="g917"
         style="fill:#ffffff" />
      <g
         id="g919"
         style="fill:#ffffff" />
      <g
         id="g921"
         style="fill:#ffffff" />
      <g
         id="g923"
         style="fill:#ffffff" />
    </g>
  </g>
</svg>
