<?xml version="1.0" encoding="UTF-8" standalone="no"?>
<!-- Created with Inkscape (http://www.inkscape.org/) -->

<svg
   xmlns:dc="http://purl.org/dc/elements/1.1/"
   xmlns:cc="http://creativecommons.org/ns#"
   xmlns:rdf="http://www.w3.org/1999/02/22-rdf-syntax-ns#"
   xmlns:svg="http://www.w3.org/2000/svg"
   xmlns="http://www.w3.org/2000/svg"
   xmlns:sodipodi="http://sodipodi.sourceforge.net/DTD/sodipodi-0.dtd"
   xmlns:inkscape="http://www.inkscape.org/namespaces/inkscape"
   width="59mm"
   height="84.286003mm"
   viewBox="0 0 59 84.286003"
   version="1.1"
   id="svg8"
   inkscape:version="0.92.2 (5c3e80d, 2017-08-06)"
   sodipodi:docname="BackENG.svg"
   inkscape:export-filename="C:\Users\ioarvanit\Desktop\New Design Cards\Πλαίσιο\Back.png"
   inkscape:export-xdpi="90"
   inkscape:export-ydpi="90">
  <defs
     id="defs2" />
  <sodipodi:namedview
     id="base"
     pagecolor="#ffffff"
     bordercolor="#666666"
     borderopacity="1.0"
     inkscape:pageopacity="0.0"
     inkscape:pageshadow="2"
     inkscape:zoom="1.4"
     inkscape:cx="-175.93595"
     inkscape:cy="129.13077"
     inkscape:document-units="mm"
     inkscape:current-layer="g893"
     showgrid="false"
     inkscape:window-width="1920"
     inkscape:window-height="1017"
     inkscape:window-x="-8"
     inkscape:window-y="-8"
     inkscape:window-maximized="1" />
  <metadata
     id="metadata5">
    <rdf:RDF>
      <cc:Work
         rdf:about="">
        <dc:format>image/svg+xml</dc:format>
        <dc:type
           rdf:resource="http://purl.org/dc/dcmitype/StillImage" />
        <dc:title></dc:title>
      </cc:Work>
    </rdf:RDF>
  </metadata>
  <g
     inkscape:label="Layer 1"
     inkscape:groupmode="layer"
     id="layer1"
     transform="translate(0,-212.714)">
    <g
       id="g893"
       transform="matrix(0.99966463,0,0,0.99966463,-0.18892448,-1.2228723)">
      <rect
         style="opacity:1;fill:#ff3da1;fill-opacity:1;stroke:none;stroke-width:1.72532678;stroke-linecap:round;stroke-miterlimit:4;stroke-dasharray:none;stroke-dashoffset:0;stroke-opacity:1"
         id="rect989"
         width="59.019791"
         height="84.313988"
         x="0.1889905"
         y="214.00893" />
      <path
         inkscape:connector-curvature="0"
         id="path1043"
         d="M 0.18898786,214.00893 59.146046,254.66282 0.18898786,298.32292 Z"
         style="fill:#c70067;fill-opacity:1;stroke:none;stroke-width:0.22308075px;stroke-linecap:butt;stroke-linejoin:miter;stroke-opacity:1"
         sodipodi:nodetypes="cccc" />
      <path
         sodipodi:nodetypes="cccc"
         style="fill:#eb007a;fill-opacity:1;stroke:none;stroke-width:0.22308075px;stroke-linecap:butt;stroke-linejoin:miter;stroke-opacity:1"
         d="M 0.18898786,214.00893 42.574334,254.66282 0.18898786,298.32292 Z"
         id="path1041"
         inkscape:connector-curvature="0" />
      <path
         inkscape:connector-curvature="0"
         id="path1039"
         d="M 0.18898786,214.00893 29.667515,254.66282 0.18898786,298.32292 Z"
         style="fill:#a6266e;fill-opacity:1;stroke:none;stroke-width:0.22308075px;stroke-linecap:butt;stroke-linejoin:miter;stroke-opacity:1" />
      <g
         id="g1033"
         transform="matrix(0.06825021,0,0,0.06825021,12.226763,229.11741)"
         style="fill:#ffffff;fill-opacity:1">
        <g
           id="g1001"
           style="fill:#ffffff;fill-opacity:1">
          <g
             id="g999"
             style="fill:#ffffff;fill-opacity:1">
            <g
               id="g997"
               style="fill:#ffffff;fill-opacity:1">
              <path
                 id="path991"
                 d="M 504.813,254.448 475.271,121.49 C 470.521,100.198 451.979,85.334 430.188,85.334 404.73,85.334 384,106.053 384,131.511 v 7.156 c 0,5.896 4.771,10.667 10.667,10.667 5.896,0 10.667,-4.771 10.667,-10.667 v -7.156 c 0,-13.698 11.146,-24.844 24.854,-24.844 11.729,0 21.708,8.01 24.25,19.458 l 29.542,132.948 c 3.667,16.521 5.833,33.375 6.479,50.26 h -0.87 c -5.441,-53.75 -50.428,-96 -105.589,-96 -48.228,0 -88.613,32.385 -101.758,76.398 -6.527,-6.881 -15.129,-12.398 -26.242,-12.398 -11.113,0 -19.715,5.517 -26.242,12.398 -13.145,-44.013 -53.53,-76.398 -101.758,-76.398 -55.16,0 -100.147,42.25 -105.589,96 h -0.87 c 0.646,-16.885 2.813,-33.74 6.479,-50.26 L 57.562,126.135 c 2.542,-11.458 12.521,-19.469 24.25,-19.469 13.708,0 24.854,11.146 24.854,24.844 v 7.156 c 0,5.896 4.771,10.667 10.667,10.667 5.896,0 10.667,-4.771 10.667,-10.667 V 131.51 C 128,106.052 107.271,85.333 81.812,85.333 60.02,85.333 41.479,100.198 36.729,121.5 L 7.188,254.448 C 2.417,275.969 0,298.021 0,320 c 0,5.896 4.771,10.667 10.667,10.667 h 11.745 c 5.441,53.75 50.428,96 105.589,96 57.904,0 104.951,-46.451 106.398,-104.012 2.143,-5.964 10.667,-23.988 21.602,-23.988 10.654,0 19.07,17.02 21.599,23.956 1.43,57.576 48.487,104.044 106.401,104.044 55.16,0 100.147,-42.25 105.589,-96 h 11.745 c 5.896,0 10.667,-4.771 10.667,-10.667 -0.002,-21.979 -2.419,-44.031 -7.189,-65.552 z M 128,405.333 c -47.063,0 -85.333,-38.281 -85.333,-85.333 0,-47.052 38.271,-85.333 85.333,-85.333 47.062,0 85.333,38.281 85.333,85.333 0,47.052 -38.27,85.333 -85.333,85.333 z m 256,0 c -47.063,0 -85.333,-38.281 -85.333,-85.333 0,-47.052 38.271,-85.333 85.333,-85.333 47.062,0 85.333,38.281 85.333,85.333 0,47.052 -38.27,85.333 -85.333,85.333 z"
                 inkscape:connector-curvature="0"
                 style="fill:#ffffff;fill-opacity:1" />
              <path
                 id="path993"
                 d="m 128,256 c -35.292,0 -64,28.708 -64,64 0,5.896 4.771,10.667 10.667,10.667 5.896,0 10.667,-4.771 10.667,-10.667 0,-23.531 19.146,-42.667 42.667,-42.667 5.896,0 10.667,-4.771 10.667,-10.667 C 138.667,260.771 133.896,256 128,256 Z"
                 inkscape:connector-curvature="0"
                 style="fill:#ffffff;fill-opacity:1" />
              <path
                 id="path995"
                 d="m 384,256 c -35.292,0 -64,28.708 -64,64 0,5.896 4.771,10.667 10.667,10.667 5.896,0 10.667,-4.771 10.667,-10.667 0,-23.531 19.146,-42.667 42.667,-42.667 5.896,0 10.667,-4.771 10.667,-10.667 C 394.667,260.771 389.896,256 384,256 Z"
                 inkscape:connector-curvature="0"
                 style="fill:#ffffff;fill-opacity:1" />
            </g>
          </g>
        </g>
        <g
           id="g1003"
           style="fill:#ffffff;fill-opacity:1" />
        <g
           id="g1005"
           style="fill:#ffffff;fill-opacity:1" />
        <g
           id="g1007"
           style="fill:#ffffff;fill-opacity:1" />
        <g
           id="g1009"
           style="fill:#ffffff;fill-opacity:1" />
        <g
           id="g1011"
           style="fill:#ffffff;fill-opacity:1" />
        <g
           id="g1013"
           style="fill:#ffffff;fill-opacity:1" />
        <g
           id="g1015"
           style="fill:#ffffff;fill-opacity:1" />
        <g
           id="g1017"
           style="fill:#ffffff;fill-opacity:1" />
        <g
           id="g1019"
           style="fill:#ffffff;fill-opacity:1" />
        <g
           id="g1021"
           style="fill:#ffffff;fill-opacity:1" />
        <g
           id="g1023"
           style="fill:#ffffff;fill-opacity:1" />
        <g
           id="g1025"
           style="fill:#ffffff;fill-opacity:1" />
        <g
           id="g1027"
           style="fill:#ffffff;fill-opacity:1" />
        <g
           id="g1029"
           style="fill:#ffffff;fill-opacity:1" />
        <g
           id="g1031"
           style="fill:#ffffff;fill-opacity:1" />
      </g>
      <text
         xml:space="preserve"
         style="font-style:normal;font-weight:normal;font-size:8.27398014px;line-height:1.25;font-family:sans-serif;letter-spacing:0px;word-spacing:0px;fill:#ffffff;fill-opacity:1;stroke:none;stroke-width:0.62054849"
         x="13.276165"
         y="267.87326"
         id="text1037"><tspan
           id="tspan1035"
           sodipodi:role="line"
           x="13.276165"
           y="267.87326"
           style="fill:#ffffff;fill-opacity:1;stroke-width:0.62054849">Context</tspan></text>
    </g>
  </g>
</svg>
